SplineFontDB: 3.2
FontName: SeriousShannsItalic
FullName: Serious Shanns Italic
FamilyName: Serious Shanns
Weight: Book
Copyright: https://github.com/kaBeech/serious-shanns/blob/main/LICENSE
Version: 6.0.0
ItalicAngle: -12.7
UnderlinePosition: 0
UnderlineWidth: 0
Ascent: 800
Descent: 200
InvalidEm: 0
sfntRevision: 0x00003333
LayerCount: 2
Layer: 0 0 "Back" 1
Layer: 1 0 "Fore" 0
XUID: [1021 45 630387186 1984481]
StyleMap: 0x0040
FSType: 0
OS2Version: 3
OS2_WeightWidthSlopeOnly: 0
OS2_UseTypoMetrics: 0
CreationTime: 1532631502
ModificationTime: 315532800
PfmFamily: 49
TTFWeight: 400
TTFWidth: 5
LineGap: 0
VLineGap: 0
Panose: 0 0 0 0 0 0 0 0 0 0
OS2TypoAscent: 613
OS2TypoAOffset: 0
OS2TypoDescent: -188
OS2TypoDOffset: 0
OS2TypoLinegap: 98
OS2WinAscent: 778
OS2WinAOffset: 0
OS2WinDescent: 308
OS2WinDOffset: 0
HheadAscent: 796
HheadAOffset: 0
HheadDescent: -317
HheadDOffset: 0
OS2SubXSize: 317
OS2SubYSize: 293
OS2SubXOff: 0
OS2SubYOff: 37
OS2SupXSize: 317
OS2SupYSize: 293
OS2SupXOff: 0
OS2SupYOff: 171
OS2StrikeYSize: 0
OS2StrikeYPos: 132
OS2CapHeight: 576
OS2XHeight: 485
OS2Vendor: 'NONE'
OS2CodePages: 00000001.00000000
OS2UnicodeRanges: 00000001.00000000.00000000.00000000
MarkAttachClasses: 1
DEI: 91125
LangName: 1033 "" "" "Normal" "" "" "Version 0.2.0"
Encoding: UnicodeBmp
Compacted: 1
UnicodeInterp: none
NameList: AGL For New Fonts
DisplaySize: -48
AntiAlias: 1
FitToEm: 0
WinInfo: 0 16 9
BeginPrivate: 8
BlueValues 32 [-40 -6 497 511 708 718 765 769]
OtherBlues 11 [-298 -287]
BlueScale 9 0.0291667
BlueShift 1 2
StdHW 4 [86]
StdVW 4 [58]
StemSnapH 19 [82 85 86 89 90 94]
StemSnapV 7 [58 68]
EndPrivate
BeginChars: 65537 125

StartChar: .notdef
Encoding: 65536 -1 0
Width: 548
VWidth: 886
GlyphClass: 1
Flags: W
HStem: -191.725 45.8994<80.1748 333.475> 626.825 45.8994<258.675 511.975>
LayerCount: 2
Fore
SplineSet
27.474609375 -191.724609375 m 1
 226.375 672.724609375 l 1
 565.525390625 672.724609375 l 1
 365.775390625 -191.724609375 l 1
 27.474609375 -191.724609375 l 1
80.1748046875 -145.825195312 m 1
 333.474609375 -145.825195312 l 1
 511.974609375 626.825195312 l 1
 258.674804688 626.825195312 l 1
 80.1748046875 -145.825195312 l 1
EndSplineSet
Validated: 1
EndChar

StartChar: exclam
Encoding: 33 33 12
Width: 548
VWidth: 907
GlyphClass: 2
Flags: HMW
HStem: 37.0116 130.047
VStem: 174.502 128.35
LayerCount: 2
Fore
SplineSet
418.455078125 684.712890625 m 0
 417.322265625 679.612304688 407.685546875 642.353515625 389.552734375 572.936523438 c 0
 371.418945312 503.51953125 357.819335938 446.995117188 348.751953125 403.361328125 c 0
 339.685546875 360.861328125 333.735351562 335.50390625 330.90234375 327.286132812 c 0
 328.069335938 319.069335938 324.668945312 305.89453125 320.702148438 287.76171875 c 0
 316.735351562 275.294921875 309.935546875 265.51953125 300.302734375 258.436523438 c 0
 291.3828125 251.877929688 281.978515625 248.599609375 272.086914062 248.599609375 c 0
 271.294921875 248.599609375 270.5 248.620117188 269.702148438 248.662109375 c 0
 258.935546875 248.662109375 251.001953125 252.345703125 245.90234375 259.712890625 c 0
 243.202148438 263.612304688 241.852539062 268.465820312 241.852539062 274.271484375 c 0
 241.852539062 279.432617188 242.918945312 285.345703125 245.052734375 292.013671875 c 0
 247.885742188 300.513671875 250.860351562 308.73046875 253.977539062 316.663085938 c 0
 257.094726562 324.596679688 259.501953125 331.25390625 261.202148438 336.637695312 c 0
 262.90234375 342.020507812 266.16015625 354.770507812 270.977539062 374.887695312 c 0
 275.793945312 395.00390625 281.319335938 420.9296875 287.552734375 452.662109375 c 0
 291.51953125 474.762695312 296.3359375 498.137695312 302.002929688 522.787109375 c 0
 307.669921875 547.4375 312.627929688 567.979492188 316.877929688 584.412109375 c 0
 321.127929688 600.845703125 325.9453125 619.545898438 331.328125 640.512695312 c 0
 336.7109375 661.479492188 340.252929688 675.362304688 341.953125 682.162109375 c 0
 345.919921875 697.462890625 352.4375 709.079101562 361.50390625 717.012695312 c 0
 370.571289062 724.9453125 380.48828125 728.912109375 391.254882812 728.912109375 c 0
 392.065429688 728.953125 392.858398438 728.97265625 393.63671875 728.97265625 c 0
 403.747070312 728.97265625 411.168945312 725.552734375 415.905273438 718.712890625 c 0
 418.96484375 714.291992188 420.495117188 708.444335938 420.495117188 701.168945312 c 0
 420.495117188 696.317382812 419.814453125 690.833007812 418.455078125 684.712890625 c 0
224.651367188 37.01171875 m 0
 221.81640625 36.6875 219.092773438 36.5263671875 216.477539062 36.5263671875 c 0
 200.798828125 36.5263671875 189.07421875 42.3525390625 181.302734375 54.0078125 c 0
 175.258789062 63.0751953125 172.236328125 73.4013671875 172.236328125 84.986328125 c 0
 172.236328125 90.779296875 172.991210938 96.8857421875 174.501953125 103.30859375 c 0
 178.469726562 120.30859375 188.668945312 135.041015625 205.102539062 147.5078125 c 0
 221.53515625 159.975585938 238.251953125 166.4921875 255.251953125 167.059570312 c 0
 256.083984375 167.083984375 256.905273438 167.09765625 257.716796875 167.09765625 c 0
 275.151367188 167.09765625 287.9296875 161.276367188 296.052734375 149.634765625 c 0
 301.84765625 141.328125 304.74609375 131.638671875 304.74609375 120.56640625 c 0
 304.74609375 115.399414062 304.115234375 109.930664062 302.852539062 104.161132812 c 0
 298.885742188 86.02734375 289.818359375 70.8701171875 275.651367188 58.6865234375 c 0
 261.484375 46.50390625 244.484375 39.2783203125 224.651367188 37.01171875 c 0
EndSplineSet
Validated: 1
EndChar

StartChar: quotedbl
Encoding: 34 34 13
Width: 548
VWidth: 941
GlyphClass: 2
Flags: HMW
VStem: 166.87 260.102
LayerCount: 2
Fore
SplineSet
300.323242188 718.748046875 m 0
 295.223632812 695.514648438 286.013671875 657.403320312 272.697265625 604.419921875 c 0
 259.379882812 551.4375 249.322265625 515.029296875 242.522460938 495.196289062 c 0
 238.5546875 483.86328125 232.038085938 475.36328125 222.970703125 469.696289062 c 0
 214.728515625 464.544921875 206.720703125 461.96875 198.947265625 461.96875 c 0
 198.168945312 461.96875 197.393554688 461.995117188 196.62109375 462.045898438 c 0
 185.854492188 462.61328125 177.211914062 466.155273438 170.6953125 472.671875 c 0
 166.64453125 476.72265625 164.619140625 481.813476562 164.619140625 487.944335938 c 0
 164.619140625 491.676757812 165.369140625 495.793945312 166.870117188 500.296875 c 0
 175.370117188 529.197265625 184.578125 566.313476562 194.495117188 611.646484375 c 0
 204.412109375 656.98046875 212.204101562 694.379882812 217.87109375 723.846679688 c 0
 219.00390625 730.646484375 221.5546875 736.455078125 225.521484375 741.271484375 c 0
 229.48828125 746.088867188 234.021484375 749.630859375 239.12109375 751.897460938 c 0
 244.220703125 754.165039062 249.321289062 755.72265625 254.420898438 756.573242188 c 0
 259.521484375 757.422851562 264.62109375 757.564453125 269.720703125 756.998046875 c 0
 274.25390625 756.998046875 278.50390625 756.430664062 282.470703125 755.297851562 c 0
 286.438476562 754.165039062 289.98046875 752.323242188 293.096679688 749.772460938 c 0
 296.213867188 747.22265625 298.48046875 743.255859375 299.897460938 737.873046875 c 0
 301.314453125 732.489257812 301.45703125 726.114257812 300.323242188 718.748046875 c 0
426.971679688 718.744140625 m 0
 422.438476562 695.51171875 413.515625 657.400390625 400.198242188 604.416992188 c 0
 386.881835938 551.43359375 376.540039062 515.025390625 369.172851562 495.192382812 c 0
 365.206054688 483.859375 358.688476562 475.359375 349.622070312 469.692382812 c 0
 341.37890625 464.541015625 333.37109375 461.965820312 325.59765625 461.965820312 c 0
 324.8203125 461.965820312 324.044921875 461.991210938 323.272460938 462.04296875 c 0
 313.072265625 462.609375 304.572265625 466.151367188 297.772460938 472.668945312 c 0
 293.692382812 476.579101562 291.651367188 481.45703125 291.651367188 487.305664062 c 0
 291.651367188 491.204101562 292.559570312 495.534179688 294.372070312 500.293945312 c 0
 302.872070312 529.193359375 311.938476562 566.310546875 321.572265625 611.643554688 c 0
 331.205078125 656.9765625 338.85546875 694.376953125 344.522460938 723.84375 c 0
 345.655273438 730.643554688 348.205078125 736.452148438 352.171875 741.268554688 c 0
 356.138671875 746.0859375 360.813476562 749.627929688 366.197265625 751.89453125 c 0
 371.580078125 754.161132812 376.6796875 755.719726562 381.497070312 756.569335938 c 0
 386.313476562 757.419921875 391.272460938 757.561523438 396.372070312 756.994140625 c 0
 401.471679688 756.994140625 405.864257812 756.427734375 409.546875 755.294921875 c 0
 413.23046875 754.161132812 416.772460938 752.319335938 420.171875 749.76953125 c 0
 423.572265625 747.219726562 425.98046875 743.252929688 427.397460938 737.869140625 c 0
 428.813476562 732.486328125 428.671875 726.111328125 426.971679688 718.744140625 c 0
EndSplineSet
Validated: 1
EndChar

StartChar: numbersign
Encoding: 35 35 14
Width: 548
VWidth: 904
GlyphClass: 2
Flags: HMW
HStem: 217.396 69.7<398.947 415.097 370.897 431.247> 432.446 71.4<285.891 404.896 314.796 376.841 314.796 483.947 314.796 455.047>
LayerCount: 2
Fore
SplineSet
142.247070312 89.8955078125 m 0
 135.447265625 77.99609375 125.524414062 68.220703125 112.491210938 60.5703125 c 0
 103.46875 55.2744140625 95.396484375 52.626953125 88.2744140625 52.626953125 c 0
 85.109375 52.626953125 82.1318359375 53.1494140625 79.341796875 54.1953125 c 0
 70.2744140625 56.462890625 64.75 63.6875 62.7666015625 75.87109375 c 0
 62.345703125 78.455078125 62.1357421875 81.095703125 62.1357421875 83.794921875 c 0
 62.1357421875 93.8193359375 65.0380859375 104.63671875 70.8427734375 116.245117188 c 0
 78.775390625 131.544921875 93.7919921875 164.412109375 115.892578125 214.844726562 c 1
 92.0927734375 214.844726562 l 2
 79.0595703125 214.844726562 69.708984375 217.677734375 64.0419921875 223.344726562 c 0
 58.3759765625 229.01171875 56.67578125 236.662109375 58.9423828125 246.294921875 c 0
 60.642578125 256.495117188 65.458984375 264.995117188 73.392578125 271.794921875 c 0
 81.3251953125 278.594726562 92.0927734375 282.561523438 105.692382812 283.6953125 c 0
 109.659179688 283.6953125 116.034179688 283.836914062 124.817382812 284.120117188 c 0
 133.600585938 284.403320312 140.258789062 284.544921875 144.791992188 284.544921875 c 1
 205.991210938 431.594726562 l 1
 201.458984375 431.594726562 195.508789062 431.453125 188.141601562 431.169921875 c 0
 180.774414062 430.88671875 175.674804688 430.745117188 172.841796875 430.745117188 c 0
 171.797851562 430.69921875 170.779296875 430.676757812 169.786132812 430.676757812 c 0
 158.359375 430.676757812 150.169921875 433.673828125 145.217773438 439.669921875 c 0
 139.833984375 446.186523438 138.276367188 454.26171875 140.54296875 463.89453125 c 0
 142.243164062 474.094726562 147.201171875 482.737304688 155.41796875 489.8203125 c 0
 163.634765625 496.903320312 174.827148438 500.727539062 188.994140625 501.294921875 c 0
 199.194335938 501.862304688 214.494140625 502.14453125 234.89453125 502.14453125 c 1
 270.02734375 587.711914062 287.876953125 631.912109375 288.444335938 634.745117188 c 0
 295.811523438 648.912109375 304.59375 658.829101562 314.793945312 664.49609375 c 0
 321.59375 668.274414062 328.142578125 670.163085938 334.439453125 670.163085938 c 0
 337.586914062 670.163085938 340.671875 669.69140625 343.694335938 668.74609375 c 0
 354.4609375 666.479492188 361.828125 660.8125 365.794921875 651.74609375 c 0
 367.337890625 648.219726562 368.109375 644.264648438 368.109375 639.881835938 c 0
 368.109375 632.994140625 366.205078125 625.048828125 362.395507812 616.045898438 c 2
 314.795898438 503.845703125 l 1
 404.895507812 503.845703125 l 1
 454.1953125 627.9453125 l 2
 461.5625 642.678710938 470.345703125 652.87890625 480.545898438 658.545898438 c 0
 487.345703125 662.32421875 494.020507812 664.212890625 500.569335938 664.212890625 c 0
 503.842773438 664.212890625 507.084960938 663.741210938 510.295898438 662.796875 c 0
 521.62890625 660.529296875 529.279296875 654.862304688 533.24609375 645.795898438 c 0
 534.634765625 642.622070312 535.328125 639.1015625 535.328125 635.233398438 c 0
 535.328125 628.05078125 532.934570312 619.671875 528.145507812 610.095703125 c 0
 516.8125 586.295898438 502.362304688 551.4453125 484.795898438 505.545898438 c 1
 493.295898438 505.545898438 l 2
 505.762695312 505.545898438 515.538085938 501.720703125 522.62109375 494.0703125 c 0
 528.333007812 487.901367188 531.189453125 481.455078125 531.189453125 474.733398438 c 0
 531.189453125 473.120117188 531.024414062 471.491210938 530.6953125 469.845703125 c 0
 528.428710938 459.645507812 523.329101562 451.00390625 515.395507812 443.920898438 c 0
 507.462890625 436.837890625 496.979492188 433.012695312 483.946289062 432.4453125 c 2
 455.046875 432.4453125 l 1
 398.946289062 287.095703125 l 1
 431.247070312 287.095703125 l 2
 443.713867188 287.095703125 451.505859375 284.12109375 454.622070312 278.170898438 c 0
 457.739257812 272.220703125 458.447265625 264.428710938 456.747070312 254.795898438 c 0
 451.080078125 229.862304688 437.197265625 217.395507812 415.09765625 217.395507812 c 2
 370.897460938 217.395507812 l 1
 345.397460938 152.795898438 327.547851562 109.163085938 317.34765625 86.49609375 c 0
 309.98046875 74.595703125 300.34765625 65.3876953125 288.447265625 58.87109375 c 0
 280.626953125 54.587890625 273.296875 52.4462890625 266.456054688 52.4462890625 c 0
 262.88671875 52.4462890625 259.450195312 53.0302734375 256.147460938 54.1953125 c 0
 247.080078125 56.462890625 241.272460938 63.12109375 238.72265625 74.1708984375 c 0
 238.06640625 77.01171875 237.739257812 79.95703125 237.739257812 83.0048828125 c 0
 237.739257812 91.80859375 240.474609375 101.471679688 245.947265625 111.99609375 c 0
 256.71484375 134.663085938 271.447265625 169.512695312 290.147460938 216.545898438 c 1
 279.380859375 216.545898438 263.372070312 216.403320312 242.122070312 216.12109375 c 0
 220.872070312 215.837890625 205.430664062 215.6953125 195.797851562 215.6953125 c 1
 170.297851562 154.49609375 152.447265625 112.5625 142.247070312 89.8955078125 c 0
285.891601562 432.4453125 m 1
 225.541992188 287.094726562 l 1
 247.075195312 287.662109375 277.958984375 287.9453125 318.19140625 287.9453125 c 1
 337.458984375 334.412109375 357.008789062 382.579101562 376.841796875 432.4453125 c 1
 285.891601562 432.4453125 l 1
EndSplineSet
Validated: 1
EndChar

StartChar: dollar
Encoding: 36 36 15
Width: 548
VWidth: 901
GlyphClass: 2
Flags: HMW
HStem: 26.5076 72.2442<185.526 216.975 194.876 216.975> 597.7 67.1517
VStem: 182.126 70.5491 402.702 79.8983
LayerCount: 2
Fore
SplineSet
252.67578125 -32.998046875 m 0
 248.708007812 -45.46484375 241.909179688 -55.0927734375 232.276367188 -61.892578125 c 0
 222.643554688 -68.6923828125 212.443359375 -72.0927734375 201.67578125 -72.0927734375 c 0
 192.04296875 -72.0927734375 185.526367188 -68.267578125 182.125976562 -60.6171875 c 0
 180.766601562 -57.5576171875 180.0859375 -53.9755859375 180.0859375 -49.8740234375 c 0
 180.0859375 -43.7197265625 181.616210938 -36.392578125 184.67578125 -27.892578125 c 0
 188.643554688 -14.2919921875 193.17578125 3.8408203125 198.276367188 26.5078125 c 1
 194.875976562 26.5078125 l 2
 176.17578125 26.5078125 159.17578125 29.0576171875 143.875976562 34.1572265625 c 0
 128.576171875 39.2578125 115.826171875 46.0576171875 105.625976562 54.5576171875 c 0
 95.42578125 63.0576171875 87.208984375 72.125 80.9765625 81.7578125 c 0
 74.7431640625 91.390625 69.92578125 101.874023438 66.5263671875 113.20703125 c 0
 65.4365234375 119.090820312 64.8916015625 124.556640625 64.8916015625 129.603515625 c 0
 64.8916015625 137.677734375 66.2861328125 144.678710938 69.076171875 150.606445312 c 0
 73.609375 160.240234375 80.6923828125 167.323242188 90.3251953125 171.856445312 c 0
 97.125 174.689453125 102.650390625 176.671875 106.900390625 177.8046875 c 0
 111.150390625 178.938476562 115.400390625 179.221679688 119.650390625 178.654296875 c 0
 123.900390625 178.086914062 127.725585938 175.8203125 131.125 171.853515625 c 0
 134.525390625 167.88671875 137.92578125 162.219726562 141.325195312 154.852539062 c 0
 148.125 137.286132812 157.05078125 123.543945312 168.100585938 113.626953125 c 0
 179.150390625 103.709960938 194.875 98.751953125 215.275390625 98.751953125 c 2
 216.975585938 98.751953125 l 1
 240.208007812 193.384765625 260.041015625 277.818359375 276.474609375 352.05078125 c 1
 273.641601562 352.05078125 269.25 352.618164062 263.299804688 353.750976562 c 0
 257.349609375 354.883789062 252.674804688 355.451171875 249.274414062 355.451171875 c 0
 231.141601562 357.717773438 215.274414062 363.100585938 201.674804688 371.600585938 c 0
 188.07421875 380.100585938 177.875 390.443359375 171.07421875 402.625976562 c 0
 164.274414062 414.80859375 159.741210938 427.55859375 157.474609375 440.875976562 c 0
 156.568359375 446.202148438 156.114257812 451.551757812 156.114257812 456.923828125 c 0
 156.114257812 464.982421875 157.133789062 473.091796875 159.174804688 481.250976562 c 0
 163.708007812 501.651367188 171.07421875 521.201171875 181.274414062 539.901367188 c 0
 191.474609375 558.600585938 204.366210938 576.026367188 219.94921875 592.17578125 c 0
 235.532226562 608.326171875 254.375 622.208984375 276.474609375 633.826171875 c 0
 298.57421875 645.443359375 322.375 653.517578125 347.875 658.05078125 c 1
 351.841796875 671.651367188 356.375 688.083984375 361.474609375 707.350585938 c 0
 369.407226562 738.517578125 383.57421875 754.100585938 403.974609375 754.100585938 c 0
 404.415039062 754.111328125 404.8515625 754.1171875 405.282226562 754.1171875 c 0
 422.920898438 754.1171875 431.741210938 745.296875 431.741210938 727.657226562 c 0
 431.741210938 722.494140625 430.985351562 716.575195312 429.474609375 709.901367188 c 2
 418.424804688 664.8515625 l 1
 430.32421875 664.28515625 446.049804688 661.452148438 465.599609375 656.3515625 c 0
 485.149414062 651.251953125 499.458007812 646.434570312 508.524414062 641.901367188 c 0
 517.591796875 637.934570312 523.399414062 631.702148438 525.94921875 623.202148438 c 0
 526.947265625 619.875976562 527.446289062 616.462890625 527.446289062 612.962890625 c 0
 527.446289062 607.51953125 526.239257812 601.865234375 523.82421875 596.001953125 c 0
 521.557617188 589.202148438 518.299804688 583.959960938 514.049804688 580.276367188 c 0
 509.799804688 576.59375 505.125 574.327148438 500.024414062 573.4765625 c 0
 494.924804688 572.626953125 490.107421875 572.485351562 485.57421875 573.051757812 c 0
 481.041015625 573.619140625 476.791015625 574.46875 472.82421875 575.6015625 c 0
 468.291015625 576.735351562 462.766601562 579.142578125 456.25 582.826171875 c 0
 449.732421875 586.508789062 442.224609375 589.767578125 433.724609375 592.600585938 c 0
 425.224609375 595.43359375 414.741210938 597.1328125 402.274414062 597.700195312 c 1
 390.94140625 552.3671875 376.208007812 492.299804688 358.075195312 417.5 c 1
 381.30859375 414.100585938 401.42578125 408.0078125 418.42578125 399.225585938 c 0
 435.42578125 390.442382812 448.317382812 380.383789062 457.100585938 369.05078125 c 0
 465.883789062 357.717773438 472.400390625 344.684570312 476.650390625 329.952148438 c 0
 480.634765625 316.138671875 482.626953125 302.575195312 482.626953125 289.259765625 c 0
 482.626953125 277.947265625 481.287109375 261.924804688 476.225585938 242.401367188 c 0
 469.9921875 216.334960938 460.217773438 191.684570312 446.900390625 168.452148438 c 0
 433.583007812 145.21875 417.575195312 125.1015625 398.875 108.1015625 c 0
 380.17578125 91.1015625 359.633789062 76.369140625 337.25 63.9013671875 c 0
 314.8671875 51.4345703125 291.4921875 42.0849609375 267.125 35.8515625 c 1
 259.192382812 1.8515625 254.375 -21.0986328125 252.67578125 -32.998046875 c 0
237.375976562 502.5078125 m 0
 236.243164062 497.326171875 235.67578125 492.331054688 235.67578125 487.51953125 c 0
 235.67578125 475.493164062 239.217773438 464.622070312 246.30078125 454.907226562 c 0
 256.217773438 441.307617188 271.943359375 431.674804688 293.4765625 426.0078125 c 1
 303.109375 465.107421875 316.142578125 519.5078125 332.575195312 589.208007812 c 1
 308.208007812 581.840820312 287.383789062 570.791015625 270.100585938 556.057617188 c 0
 252.817382812 541.32421875 241.909179688 523.474609375 237.375976562 502.5078125 c 0
399.7265625 227.958007812 m 0
 401.741210938 237.529296875 402.749023438 246.4296875 402.749023438 254.658203125 c 0
 402.749023438 265.40625 400.822265625 275.549804688 397.176757812 286.184570312 c 0
 393.77734375 296.1015625 387.119140625 305.309570312 377.202148438 313.809570312 c 0
 367.28515625 322.309570312 354.393554688 329.67578125 338.526367188 335.909179688 c 1
 332.29296875 310.9765625 323.2265625 273.434570312 311.326171875 223.284179688 c 0
 299.42578125 173.134765625 290.643554688 136.7265625 284.9765625 114.059570312 c 1
 313.309570312 125.392578125 338.1015625 140.975585938 359.3515625 160.80859375 c 0
 380.6015625 180.641601562 394.059570312 203.024414062 399.7265625 227.958007812 c 0
EndSplineSet
Validated: 1
EndChar

StartChar: percent
Encoding: 37 37 16
Width: 548
VWidth: 899
GlyphClass: 2
Flags: HMW
HStem: 25.2157 64.6 194.366 62.9<385.052 396.102> 416.217 63.75<205.135 243.952> 586.217 62.05<264.068 267.468>
LayerCount: 2
Fore
SplineSet
214.485351562 416.216796875 m 0
 195.78515625 416.216796875 180.486328125 421.741210938 168.5859375 432.791992188 c 0
 156.686523438 443.841796875 149.177734375 457.724609375 146.061523438 474.44140625 c 0
 144.791015625 481.252929688 144.15625 488.275390625 144.15625 495.509765625 c 0
 144.15625 506.032226562 145.499023438 517 148.185546875 528.416992188 c 0
 156.118164062 563.55078125 171.84375 592.30859375 195.360351562 614.69140625 c 0
 218.876953125 637.07421875 247.352539062 648.266601562 280.78515625 648.266601562 c 0
 293.818359375 648.266601562 305.435546875 645.858398438 315.635742188 641.041992188 c 0
 325.834960938 636.224609375 334.334960938 629 341.135742188 619.366210938 c 0
 347.935546875 609.733398438 351.760742188 596.55859375 352.610351562 579.841796875 c 0
 352.711914062 577.834960938 352.762695312 575.791015625 352.762695312 573.70703125 c 0
 352.762695312 558.427734375 350.020507812 541.064453125 344.53515625 521.616210938 c 0
 334.90234375 487.049804688 319.602539062 460.841796875 298.635742188 442.991210938 c 0
 277.66796875 425.141601562 249.618164062 416.216796875 214.485351562 416.216796875 c 0
61.486328125 65.1669921875 m 0
 77.9189453125 89.533203125 115.885742188 140.67578125 175.385742188 218.592773438 c 0
 234.885742188 296.509765625 294.52734375 375.134765625 354.310546875 454.467773438 c 0
 414.09375 533.80078125 455.03515625 590.467773438 477.135742188 624.467773438 c 0
 485.635742188 634.666992188 495.268554688 641.041992188 506.03515625 643.592773438 c 0
 509.376953125 644.383789062 512.58203125 644.779296875 515.651367188 644.779296875 c 0
 522.46875 644.779296875 528.614257812 642.825195312 534.084960938 638.916992188 c 0
 542.584960938 634.384765625 546.41015625 627.7265625 545.560546875 618.943359375 c 0
 544.709960938 610.16015625 539.46875 599.53515625 529.834960938 587.068359375 c 0
 502.068359375 552.500976562 435.060546875 464.384765625 328.810546875 322.717773438 c 0
 222.560546875 181.05078125 151.584960938 85.283203125 115.885742188 35.4169921875 c 0
 101.239257812 15.330078125 87.5205078125 5.287109375 74.728515625 5.287109375 c 0
 70.1982421875 5.287109375 65.7841796875 6.546875 61.486328125 9.06640625 c 0
 52.1357421875 14.4501953125 47.4609375 21.81640625 47.4609375 31.1669921875 c 0
 47.4609375 40.5166015625 52.1357421875 51.8505859375 61.486328125 65.1669921875 c 0
237.435546875 479.966796875 m 0
 250.46875 479.966796875 261.51953125 484.499023438 270.5859375 493.565429688 c 0
 279.653320312 502.6328125 286.453125 514.815429688 290.986328125 530.115234375 c 0
 293.401367188 539.2421875 294.610351562 547.224609375 294.610351562 554.0625 c 0
 294.610351562 561.659179688 293.118164062 567.844726562 290.135742188 572.616210938 c 0
 284.46875 581.68359375 274.551757812 586.216796875 260.385742188 586.216796875 c 0
 247.91796875 586.216796875 237.010742188 581.258789062 227.66015625 571.341796875 c 0
 218.310546875 561.424804688 211.084960938 547.966796875 205.985351562 530.966796875 c 0
 204.000976562 523.032226562 203.010742188 516.020507812 203.010742188 509.928710938 c 0
 203.010742188 503.836914062 204.000976562 498.666992188 205.985351562 494.416992188 c 0
 209.952148438 485.916992188 220.435546875 481.099609375 237.435546875 479.966796875 c 0
336.036132812 25.2158203125 m 0
 317.3359375 25.2158203125 302.03515625 30.740234375 290.135742188 41.791015625 c 0
 278.235351562 52.8408203125 270.727539062 66.7236328125 267.610351562 83.4404296875 c 0
 266.33984375 90.251953125 265.705078125 97.2744140625 265.705078125 104.508789062 c 0
 265.705078125 115.03125 267.047851562 126 269.734375 137.416992188 c 0
 277.66796875 172.549804688 293.392578125 201.307617188 316.909179688 223.690429688 c 0
 340.426757812 246.07421875 368.618164062 257.265625 401.485351562 257.265625 c 0
 414.518554688 257.265625 426.276367188 254.999023438 436.759765625 250.465820312 c 0
 447.2421875 245.932617188 455.884765625 238.708007812 462.684570312 228.791015625 c 0
 469.484375 218.874023438 473.309570312 205.556640625 474.159179688 188.83984375 c 0
 474.25390625 186.982421875 474.301757812 185.091796875 474.301757812 183.16796875 c 0
 474.301757812 167.776367188 471.279296875 150.259765625 465.234375 130.615234375 c 0
 455.6015625 96.0478515625 440.443359375 69.6982421875 419.760742188 51.564453125 c 0
 399.704101562 33.9814453125 372.85546875 25.1904296875 339.211914062 25.1904296875 c 0
 338.159179688 25.1904296875 337.1015625 25.1982421875 336.036132812 25.2158203125 c 0
358.985351562 89.8154296875 m 0
 359.698242188 89.783203125 360.404296875 89.7666015625 361.107421875 89.7666015625 c 0
 372.677734375 89.7666015625 382.737304688 94.1748046875 391.286132812 102.990234375 c 0
 400.353515625 112.340820312 407.153320312 124.3828125 411.686523438 139.115234375 c 0
 414.025390625 148.060546875 415.1953125 155.919921875 415.1953125 162.692382812 c 0
 415.1953125 183.807617188 403.825195312 194.365234375 381.0859375 194.365234375 c 0
 368.619140625 194.365234375 357.852539062 189.407226562 348.78515625 179.490234375 c 0
 339.71875 169.57421875 332.635742188 156.3984375 327.53515625 139.965820312 c 0
 325.620117188 132.580078125 324.662109375 125.953125 324.662109375 120.084960938 c 0
 324.662109375 113.797851562 325.762695312 108.383789062 327.959960938 103.840820312 c 0
 332.209960938 95.0576171875 342.551757812 90.3828125 358.985351562 89.8154296875 c 0
EndSplineSet
Validated: 1
EndChar

StartChar: ampersand
Encoding: 38 38 17
Width: 548
VWidth: 901
GlyphClass: 2
Flags: HMW
HStem: 15.4519 79.8983<186.134 223.249> 599.401 67.15<377.1 377.383>
VStem: 370.869 76.4975 444.816 70.975<303.6 303.6>
LayerCount: 2
Fore
SplineSet
426.116210938 21.400390625 m 0xe0
 420.576171875 18.3525390625 415.137695312 16.830078125 409.80078125 16.830078125 c 0
 404.221679688 16.830078125 398.751953125 18.49609375 393.393554688 21.8271484375 c 0
 382.91015625 28.34375 375.40234375 39.5361328125 370.869140625 55.40234375 c 0xe0
 370.301757812 58.2353515625 369.02734375 66.7353515625 367.043945312 80.90234375 c 0
 365.060546875 95.0693359375 363.21875 105.26953125 361.518554688 111.502929688 c 1
 359.819335938 109.235351562 355.569335938 104.418945312 348.768554688 97.0517578125 c 0
 341.96875 89.6845703125 336.869140625 84.3017578125 333.46875 80.90234375 c 0
 330.069335938 77.501953125 324.543945312 72.40234375 316.893554688 65.6015625 c 0
 309.244140625 58.8017578125 302.869140625 53.5595703125 297.768554688 49.876953125 c 0
 292.668945312 46.193359375 286.010742188 41.8017578125 277.793945312 36.7021484375 c 0
 269.577148438 31.6015625 261.78515625 27.77734375 254.41796875 25.2265625 c 0
 247.05078125 22.6767578125 238.693359375 20.41015625 229.342773438 18.4267578125 c 0
 219.993164062 16.443359375 210.500976562 15.4521484375 200.868164062 15.4521484375 c 0
 171.401367188 15.4521484375 146.184570312 23.6689453125 125.216796875 40.1015625 c 0
 104.25 56.53515625 90.0830078125 78.068359375 82.716796875 104.701171875 c 0
 78.8857421875 118.549804688 76.970703125 133.012695312 76.970703125 148.086914062 c 0
 76.970703125 162.002929688 78.6025390625 176.440429688 81.8662109375 191.401367188 c 0
 106.233398438 298.500976562 164.31640625 371.318359375 256.116210938 409.850585938 c 1
 253.283203125 418.350585938 249.741210938 428.55078125 245.491210938 440.451171875 c 0
 241.241210938 452.350585938 238.266601562 460.708984375 236.56640625 465.526367188 c 0
 234.866210938 470.342773438 233.024414062 476.576171875 231.041015625 484.225585938 c 0
 229.05859375 491.875976562 228.06640625 498.534179688 228.06640625 504.201171875 c 0
 228.06640625 509.868164062 228.491210938 516.809570312 229.341796875 525.02734375 c 0
 230.19140625 533.244140625 231.749023438 542.168945312 234.016601562 551.801757812 c 0
 236.283203125 562.001953125 239.825195312 572.059570312 244.642578125 581.9765625 c 0
 249.458984375 591.893554688 256.1171875 602.09375 264.6171875 612.577148438 c 0
 273.1171875 623.059570312 282.892578125 632.267578125 293.942382812 640.201171875 c 0
 304.9921875 648.133789062 318.591796875 654.508789062 334.7421875 659.326171875 c 0
 350.892578125 664.142578125 368.034179688 666.55078125 386.166992188 666.55078125 c 0
 401.466796875 666.55078125 415.916992188 664.000976562 429.517578125 658.901367188 c 0
 443.1171875 653.80078125 454.875 646.29296875 464.791992188 636.375976562 c 0
 474.708984375 626.458984375 481.3671875 613.42578125 484.767578125 597.276367188 c 0
 486.223632812 590.354492188 486.953125 583.094726562 486.953125 575.497070312 c 0
 486.953125 565.3671875 485.658203125 554.633789062 483.067382812 543.30078125 c 0
 479.100585938 525.16796875 473.008789062 508.309570312 464.791015625 492.7265625 c 0
 456.57421875 477.143554688 448.07421875 464.110351562 439.291015625 453.627929688 c 0
 430.508789062 443.14453125 419.883789062 433.086914062 407.416015625 423.453125 c 0
 394.94921875 413.8203125 383.899414062 406.170898438 374.266601562 400.50390625 c 0
 364.633789062 394.836914062 353.583007812 389.169921875 341.116210938 383.502929688 c 1
 346.783203125 365.935546875 356.983398438 339.869140625 371.716796875 305.301757812 c 0
 386.44921875 270.735351562 395.799804688 247.78515625 399.766601562 236.452148438 c 1
 404.866210938 244.384765625 410.81640625 253.592773438 417.616210938 264.076171875 c 0
 424.416015625 274.559570312 430.083007812 283.059570312 434.616210938 289.576171875 c 0
 439.149414062 296.092773438 442.549804688 300.767578125 444.81640625 303.600585938 c 0
 457.283203125 318.333984375 468.19140625 327.541992188 477.541015625 331.225585938 c 0
 481.224609375 332.67578125 484.884765625 333.401367188 488.524414062 333.401367188 c 0
 494.124023438 333.401367188 499.670898438 331.684570312 505.166015625 328.249023438 c 0
 512.33203125 324.154296875 515.915039062 316.940429688 515.915039062 306.604492188 c 0
 515.915039062 296.490234375 512.669921875 282.131835938 499.216796875 261.950195312 c 0
 495.249023438 256.850585938 484.766601562 245.517578125 467.766601562 227.950195312 c 0
 450.766601562 210.3828125 436.033203125 194.233398438 423.56640625 179.5 c 1
 426.966796875 168.733398438 431.783203125 153.291015625 438.016601562 133.174804688 c 0
 444.249023438 113.057617188 447.649414062 101.299804688 448.216796875 97.8994140625 c 0
 450.349609375 91.4990234375 451.416015625 84.7861328125 451.416015625 77.7578125 c 0
 451.416015625 69.8515625 450.06640625 61.5498046875 447.366210938 52.849609375 c 0
 442.266601562 36.416015625 435.18359375 25.93359375 426.116210938 21.400390625 c 0xe0
305.416992188 537.350585938 m 0
 303.716796875 530.265625 302.866210938 522.826171875 302.866210938 515.033203125 c 0
 302.866210938 507.2421875 303.716796875 499.099609375 305.416015625 490.600585938 c 0
 308.815429688 473.600585938 314.198242188 458.583984375 321.565429688 445.55078125 c 1
 334.032226562 449.517578125 344.799804688 453.625976562 353.866210938 457.875976562 c 0
 362.93359375 462.125976562 371.858398438 467.651367188 380.641601562 474.451171875 c 0
 389.424804688 481.250976562 396.649414062 489.609375 402.31640625 499.526367188 c 0
 407.983398438 509.443359375 412.233398438 521.201171875 415.06640625 534.80078125 c 0
 416.83203125 542.05859375 417.71484375 548.72265625 417.71484375 554.791992188 c 0
 417.71484375 566.255859375 414.565429688 575.600585938 408.266601562 582.826171875 c 0
 398.633789062 593.875976562 385.600585938 599.401367188 369.166992188 599.401367188 c 0
 336.30078125 599.401367188 315.05078125 578.717773438 305.416992188 537.350585938 c 0
162.615234375 199.05078125 m 0
 159.940429688 187.45703125 158.602539062 176.608398438 158.602539062 166.504882812 c 0
 158.602539062 150.931640625 161.78125 137.129882812 168.139648438 125.100585938 c 0
 178.623046875 105.267578125 195.764648438 95.3505859375 219.564453125 95.3505859375 c 0
 226.931640625 95.3505859375 234.298828125 96.2001953125 241.666015625 97.900390625 c 0
 249.032226562 99.6005859375 255.549804688 101.299804688 261.216796875 103 c 0
 266.883789062 104.700195312 272.833007812 107.533203125 279.06640625 111.5 c 0
 285.299804688 115.466796875 290.2578125 118.725585938 293.940429688 121.275390625 c 0
 297.624023438 123.825195312 302.298828125 127.791992188 307.965820312 133.174804688 c 0
 313.6328125 138.55859375 317.599609375 142.3828125 319.866210938 144.650390625 c 0
 322.133789062 146.916992188 325.81640625 151.025390625 330.916015625 156.975585938 c 0
 336.016601562 162.924804688 339.133789062 166.466796875 340.266601562 167.600585938 c 0
 336.299804688 189.700195312 332.333007812 206.983398438 328.365234375 219.450195312 c 0
 324.965820312 232.483398438 317.173828125 253.733398438 304.990234375 283.200195312 c 0
 292.807617188 312.666992188 284.166015625 334.484375 279.065429688 348.651367188 c 1
 261.499023438 341.284179688 245.916015625 332.076171875 232.315429688 321.026367188 c 0
 218.715820312 309.975585938 207.3828125 297.79296875 198.315429688 284.475585938 c 0
 189.249023438 271.159179688 182.0234375 257.701171875 176.640625 244.100585938 c 0
 171.2578125 230.500976562 166.583007812 215.484375 162.615234375 199.05078125 c 0
EndSplineSet
Validated: 1
EndChar

StartChar: quotesingle
Encoding: 39 39 18
Width: 548
VWidth: 941
GlyphClass: 2
Flags: HMW
HStem: 470.474 276.674
VStem: 232.276 129.2
LayerCount: 2
Fore
SplineSet
361.4765625 710.172851562 m 0
 356.943359375 687.505859375 348.727539062 652.515625 336.828125 605.19921875 c 0
 324.927734375 557.881835938 315.294921875 524.307617188 307.927734375 504.473632812 c 0
 303.9609375 492.57421875 297.444335938 483.791015625 288.376953125 478.124023438 c 0
 280.134765625 472.97265625 272.126953125 470.396484375 264.353515625 470.396484375 c 0
 263.575195312 470.396484375 262.799804688 470.422851562 262.02734375 470.473632812 c 0
 251.259765625 471.041015625 242.618164062 474.723632812 236.1015625 481.524414062 c 0
 232.05078125 485.750976562 230.025390625 490.963867188 230.025390625 497.161132812 c 0
 230.025390625 500.93359375 230.775390625 505.071289062 232.276367188 509.57421875 c 0
 240.776367188 539.041015625 249.276367188 573.041015625 257.776367188 611.57421875 c 0
 266.276367188 650.107421875 273.359375 684.390625 279.026367188 714.422851562 c 0
 280.159179688 721.223632812 282.708984375 727.172851562 286.676757812 732.2734375 c 0
 290.643554688 737.373046875 295.318359375 740.915039062 300.701171875 742.8984375 c 0
 306.083984375 744.880859375 311.184570312 746.297851562 316.000976562 747.1484375 c 0
 320.818359375 747.998046875 325.776367188 748.140625 330.875976562 747.573242188 c 0
 335.409179688 747.573242188 339.659179688 747.005859375 343.625976562 745.873046875 c 0
 347.59375 744.740234375 351.276367188 742.8984375 354.676757812 740.348632812 c 0
 358.076171875 737.797851562 360.34375 733.973632812 361.4765625 728.873046875 c 0
 362.609375 723.7734375 362.609375 717.540039062 361.4765625 710.172851562 c 0
EndSplineSet
Validated: 1
EndChar

StartChar: parenleft
Encoding: 40 40 19
Width: 548
VWidth: 901
GlyphClass: 2
Flags: HMW
HStem: -60.123 71.3983<240.285 279.954> 674.277 68.85<420.204 454.77>
LayerCount: 2
Fore
SplineSet
296.954101562 -27.82421875 m 0
 294.6875 -36.8916015625 289.444335938 -44.5400390625 281.227539062 -50.7734375 c 0
 273.010742188 -57.005859375 265.21875 -60.123046875 257.8515625 -60.123046875 c 0
 222.71875 -60.123046875 193.9609375 -46.5234375 171.577148438 -19.3232421875 c 0
 149.194335938 7.876953125 134.602539062 45.5595703125 127.802734375 93.7265625 c 0
 124.780273438 115.134765625 123.26953125 137.997070312 123.26953125 162.314453125 c 0
 123.26953125 192.711914062 125.629882812 225.3828125 130.352539062 260.327148438 c 0
 136.01953125 301.694335938 149.3359375 355.52734375 170.303710938 421.827148438 c 0
 191.270507812 488.126953125 214.219726562 542.809570312 239.153320312 585.876953125 c 0
 250.486328125 604.577148438 263.803710938 623.134765625 279.103515625 641.551757812 c 0
 294.403320312 659.96875 311.120117188 676.827148438 329.252929688 692.126953125 c 0
 347.38671875 707.426757812 366.653320312 719.751953125 387.053710938 729.1015625 c 0
 407.453125 738.452148438 426.436523438 743.126953125 444.002929688 743.126953125 c 0
 461.413085938 743.126953125 470.118164062 735.533203125 470.118164062 720.345703125 c 0
 470.118164062 716.749023438 469.629882812 712.7265625 468.653320312 708.27734375 c 0
 465.8203125 696.376953125 460.4375 687.735351562 452.50390625 682.3515625 c 0
 444.571289062 676.96875 436.071289062 674.27734375 427.00390625 674.27734375 c 0
 413.404296875 674.27734375 399.662109375 670.02734375 385.779296875 661.52734375 c 0
 371.896484375 653.02734375 358.720703125 641.41015625 346.25390625 626.676757812 c 0
 333.787109375 611.944335938 322.3125 595.793945312 311.829101562 578.2265625 c 0
 301.345703125 560.66015625 291.571289062 541.676757812 282.50390625 521.27734375 c 0
 268.904296875 491.809570312 254.87890625 451.29296875 240.428710938 399.7265625 c 0
 225.979492188 348.159179688 216.204101562 306.2265625 211.104492188 273.92578125 c 0
 206.931640625 245.643554688 204.845703125 218.025390625 204.845703125 191.0703125 c 0
 204.845703125 185.081054688 204.948242188 179.125 205.154296875 173.201171875 c 0
 206.287109375 140.618164062 209.829101562 112.568359375 215.779296875 89.05078125 c 0
 221.729492188 65.5341796875 229.946289062 46.6923828125 240.428710938 32.525390625 c 0
 250.912109375 18.3583984375 262.38671875 11.275390625 274.854492188 11.275390625 c 0
 285.053710938 11.275390625 292.13671875 8.4423828125 296.104492188 2.775390625 c 0
 298.240234375 -0.2763671875 299.30859375 -4.6416015625 299.30859375 -10.3212890625 c 0
 299.30859375 -15.1904296875 298.5234375 -21.0244140625 296.954101562 -27.82421875 c 0
EndSplineSet
Validated: 1
EndChar

StartChar: parenright
Encoding: 41 41 20
Width: 548
VWidth: 901
GlyphClass: 2
Flags: HMW
HStem: -60.1296 71.4<160.633 166.584> 674.273 68.8517<315.051 342.534>
VStem: 393.817 73.1009
LayerCount: 2
Fore
SplineSet
424.41796875 260.32421875 m 0
 404.018554688 197.424804688 379.366210938 141.887695312 350.465820312 93.720703125 c 0
 321.565429688 45.5537109375 289.548828125 7.8701171875 254.416015625 -19.3291015625 c 0
 219.283203125 -46.529296875 184.149414062 -60.1298828125 149.016601562 -60.1298828125 c 0
 141.649414062 -60.1298828125 135.1328125 -57.0126953125 129.465820312 -50.779296875 c 0
 123.798828125 -44.546875 122.098632812 -36.896484375 124.366210938 -27.8291015625 c 0
 127.765625 -13.0966796875 132.866210938 -2.896484375 139.666015625 2.7705078125 c 0
 146.465820312 8.4375 155.249023438 11.2705078125 166.015625 11.2705078125 c 0
 178.482421875 11.2705078125 193.07421875 18.353515625 209.791992188 32.5205078125 c 0
 226.508789062 46.6875 243.366210938 65.529296875 260.366210938 89.0458984375 c 0
 277.366210938 112.563476562 294.083984375 140.754882812 310.516601562 173.622070312 c 0
 326.94921875 206.489257812 340.266601562 239.921875 350.466796875 273.921875 c 0
 360.666992188 306.221679688 370.299804688 348.155273438 379.366210938 399.721679688 c 0
 388.43359375 451.2890625 393.250976562 491.805664062 393.817382812 521.2734375 c 0
 393.817382812 541.672851562 392.541992188 560.65625 389.9921875 578.22265625 c 0
 387.442382812 595.790039062 383.475585938 611.939453125 378.092773438 626.672851562 c 0
 372.708984375 641.40625 365.059570312 653.0234375 355.142578125 661.5234375 c 0
 345.225585938 670.0234375 333.467773438 674.2734375 319.8671875 674.2734375 c 0
 310.234375 674.2734375 302.8671875 676.96484375 297.767578125 682.34765625 c 0
 294.236328125 686.075195312 292.471679688 691.36328125 292.471679688 698.213867188 c 0
 292.471679688 701.2578125 292.8203125 704.611328125 293.517578125 708.2734375 c 0
 295.217773438 715.639648438 297.767578125 721.731445312 301.166992188 726.548828125 c 0
 304.567382812 731.366210938 308.250976562 734.907226562 312.217773438 737.174804688 c 0
 316.184570312 739.44140625 319.8671875 741 323.267578125 741.849609375 c 0
 326.666992188 742.69921875 330.067382812 743.125 333.467773438 743.125 c 0
 351.600585938 743.125 368.600585938 738.44921875 384.467773438 729.099609375 c 0
 400.333984375 719.75 413.791992188 707.424804688 424.842773438 692.125 c 0
 435.892578125 676.82421875 445.100585938 659.966796875 452.467773438 641.549804688 c 0
 459.833984375 623.1328125 464.651367188 604.57421875 466.91796875 585.875 c 0
 468.650390625 571.248046875 469.516601562 555.28125 469.516601562 537.974609375 c 0
 469.516601562 504.323242188 466.2421875 465.607421875 459.693359375 421.82421875 c 0
 449.776367188 355.524414062 438.018554688 301.69140625 424.41796875 260.32421875 c 0
EndSplineSet
Validated: 1
EndChar

StartChar: asterisk
Encoding: 42 42 21
Width: 548
VWidth: 901
GlyphClass: 2
Flags: HMW
HStem: 301.041 88.3991 312.092 65.45<345.327 382.727>
VStem: 216.976 73.1009 301.977 73.1
LayerCount: 2
Fore
SplineSet
213.579101562 170.142578125 m 0x70
 210.178710938 163.342773438 205.501953125 158.2421875 199.552734375 154.841796875 c 0
 193.602539062 151.442382812 187.510742188 149.458984375 181.27734375 148.892578125 c 0
 175.043945312 148.325195312 169.376953125 148.75 164.27734375 150.166992188 c 0
 159.177734375 151.583984375 154.927734375 153.42578125 151.52734375 155.693359375 c 0
 147.560546875 158.526367188 144.443359375 162.633789062 142.176757812 168.017578125 c 0
 139.909179688 173.400390625 139.201171875 180.05859375 140.051757812 187.991210938 c 0
 140.901367188 195.924804688 144.443359375 204.141601562 150.676757812 212.641601562 c 2
 224.626953125 305.291015625 l 1
 180.426757812 302.458007812 148.126953125 301.041015625 127.7265625 301.041015625 c 0
 115.259765625 301.041015625 106.4765625 305.57421875 101.376953125 314.641601562 c 0
 97.845703125 320.91796875 96.0810546875 327.466796875 96.0810546875 334.287109375 c 0
 96.0810546875 337.318359375 96.4296875 340.403320312 97.126953125 343.541015625 c 0
 97.693359375 348.641601562 99.251953125 353.883789062 101.801757812 359.266601562 c 0
 104.3515625 364.649414062 107.609375 369.749023438 111.576171875 374.56640625 c 0
 115.543945312 379.383789062 120.643554688 383.208007812 126.876953125 386.041015625 c 0
 133.109375 388.874023438 139.342773438 390.0078125 145.576171875 389.440429688 c 0xb0
 169.375976562 387.173828125 204.508789062 384.340820312 250.975585938 380.940429688 c 1
 237.942382812 422.307617188 226.609375 454.041015625 216.9765625 476.140625 c 0
 214.709960938 482.657226562 213.576171875 489.103515625 213.576171875 495.478515625 c 0
 213.576171875 501.853515625 214.709960938 508.15625 216.9765625 514.390625 c 0
 221.509765625 526.857421875 228.309570312 535.07421875 237.376953125 539.041015625 c 0
 243.043945312 542.44140625 249.418945312 544.283203125 256.501953125 544.56640625 c 0
 263.584960938 544.849609375 270.384765625 542.724609375 276.901367188 538.19140625 c 0
 283.418945312 533.658203125 287.810546875 526.858398438 290.077148438 517.791015625 c 0
 292.91015625 504.19140625 300.84375 471.608398438 313.876953125 420.041015625 c 1
 343.909179688 458.57421875 367.142578125 490.874023438 383.576171875 516.94140625 c 0
 389.2421875 526.008789062 396.184570312 532.80859375 404.401367188 537.341796875 c 0
 412.618164062 541.874023438 419.985351562 543.999023438 426.501953125 543.716796875 c 0
 433.01953125 543.43359375 438.26171875 541.30859375 442.228515625 537.341796875 c 0
 446.76171875 534.508789062 450.01953125 529.975585938 452.001953125 523.7421875 c 0
 453.985351562 517.508789062 453.985351562 510.142578125 452.001953125 501.642578125 c 0
 450.01953125 493.142578125 445.626953125 484.924804688 438.827148438 476.9921875 c 0
 415.594726562 450.359375 389.244140625 417.208984375 359.77734375 377.541992188 c 1
 405.677734375 377.541992188 439.110351562 380.659179688 460.077148438 386.892578125 c 0
 464.043945312 388.154296875 467.709960938 388.78515625 471.07421875 388.78515625 c 0
 478.283203125 388.78515625 484.109375 385.887695312 488.552734375 380.091796875 c 0
 493.721679688 373.3515625 496.305664062 366.252929688 496.305664062 358.798828125 c 0
 496.305664062 356.854492188 496.129882812 354.884765625 495.778320312 352.892578125 c 0
 494.645507812 347.791992188 492.9453125 342.692382812 490.677734375 337.591796875 c 0
 488.411132812 332.4921875 485.436523438 327.392578125 481.752929688 322.291992188 c 0
 478.0703125 317.192382812 473.395507812 313.225585938 467.728515625 310.392578125 c 0
 462.061523438 307.559570312 456.39453125 306.9921875 450.727539062 308.692382812 c 0
 437.977539062 311.2421875 415.026367188 312.517578125 381.875976562 312.517578125 c 0
 370.826171875 312.517578125 358.643554688 312.375 345.327148438 312.091796875 c 1
 375.927734375 213.4921875 l 2
 377.21484375 207.568359375 377.859375 201.965820312 377.859375 196.685546875 c 0
 377.859375 190.348632812 376.931640625 184.475585938 375.077148438 179.067382812 c 0
 371.677734375 169.150390625 366.010742188 161.924804688 358.077148438 157.392578125 c 0
 352.41015625 153.9921875 345.327148438 152.008789062 336.827148438 151.442382812 c 0
 328.327148438 150.875 320.53515625 152.575195312 313.452148438 156.541992188 c 0
 306.369140625 160.508789062 302.543945312 167.026367188 301.977539062 176.092773438 c 0
 300.844726562 198.759765625 294.611328125 231.342773438 283.278320312 273.842773438 c 1
 246.4453125 221.709960938 223.211914062 187.142578125 213.579101562 170.142578125 c 0x70
EndSplineSet
Validated: 1
EndChar

StartChar: plus
Encoding: 43 43 22
Width: 548
VWidth: 910
GlyphClass: 2
Flags: HMW
HStem: 363.456 71.4009<249.057 271.44>
LayerCount: 2
Fore
SplineSet
297.791015625 272.506835938 m 0
 294.958007812 259.474609375 290.140625 250.263671875 283.340820312 244.880859375 c 0
 276.540039062 239.498046875 268.607421875 236.805664062 259.540039062 236.805664062 c 0
 241.22265625 236.805664062 232.0625 244.203125 232.0625 258.999023438 c 0
 232.0625 262.96875 232.72265625 267.471679688 234.040039062 272.505859375 c 2
 254.440429688 363.456054688 l 1
 243.673828125 363.456054688 229.365234375 363.313476562 211.515625 363.030273438 c 0
 193.665039062 362.748046875 181.624023438 362.60546875 175.390625 362.60546875 c 0
 162.357421875 362.60546875 153.432617188 366.147460938 148.615234375 373.23046875 c 0
 145.33984375 378.046875 143.702148438 383.583984375 143.702148438 389.841796875 c 0
 143.702148438 392.787109375 144.065429688 395.891601562 144.790039062 399.155273438 c 0
 146.490234375 409.922851562 151.307617188 418.989257812 159.240234375 426.356445312 c 0
 166.606445312 433.197265625 176.416015625 436.6171875 188.66796875 436.6171875 c 0
 189.611328125 436.6171875 190.568359375 436.596679688 191.540039062 436.556640625 c 0
 228.374023438 435.423828125 255.006835938 434.856445312 271.439453125 434.856445312 c 1
 278.239257812 463.189453125 284.47265625 493.7890625 290.139648438 526.65625 c 0
 294.672851562 551.0234375 308.83984375 563.206054688 332.639648438 563.206054688 c 0
 343.40625 563.7734375 351.624023438 561.506835938 357.290039062 556.40625 c 0
 360.624023438 553.40625 362.291015625 548.837890625 362.291015625 542.701171875 c 0
 362.291015625 538.404296875 361.473632812 533.33984375 359.840820312 527.506835938 c 0
 350.20703125 494.639648438 341.990234375 463.189453125 335.190429688 433.15625 c 1
 421.890625 433.15625 l 2
 434.357421875 433.15625 442.290039062 430.323242188 445.690429688 424.65625 c 0
 449.090820312 418.989257812 450.223632812 411.33984375 449.090820312 401.706054688 c 0
 447.95703125 396.606445312 446.399414062 391.931640625 444.416015625 387.681640625 c 0
 442.43359375 383.431640625 439.741210938 379.323242188 436.341796875 375.356445312 c 0
 432.94140625 371.389648438 428.69140625 368.4140625 423.591796875 366.431640625 c 0
 418.491210938 364.448242188 412.82421875 363.740234375 406.591796875 364.307617188 c 0
 398.431640625 365.327148438 384.662109375 365.836914062 365.282226562 365.836914062 c 0
 352.362304688 365.836914062 336.948242188 365.610351562 319.041015625 365.157226562 c 1
 315.641601562 349.857421875 311.533203125 331.724609375 306.716796875 310.756835938 c 0
 301.899414062 289.790039062 298.924804688 277.040039062 297.791015625 272.506835938 c 0
EndSplineSet
Validated: 1
EndChar

StartChar: comma
Encoding: 44 44 23
Width: 548
VWidth: 845
GlyphClass: 2
Flags: HMW
VStem: 186.822 216.749
LayerCount: 2
Fore
SplineSet
402.295898438 76.6943359375 m 0
 390.396484375 48.927734375 369.147460938 6.1435546875 338.547851562 -51.65625 c 0
 307.947265625 -109.456054688 286.415039062 -145.15625 273.947265625 -158.755859375 c 0
 262.614257812 -170.65625 249.864257812 -179.15625 235.697265625 -184.255859375 c 0
 227.197265625 -187.315429688 219.920898438 -188.846679688 213.869140625 -188.846679688 c 0
 209.833984375 -188.846679688 206.34375 -188.166015625 203.396484375 -186.805664062 c 0
 198.296875 -185.106445312 194.046875 -181.706054688 190.646484375 -176.606445312 c 0
 187.247070312 -171.505859375 185.971679688 -165.2734375 186.822265625 -157.90625 c 0
 187.671875 -150.5390625 191.497070312 -142.888671875 198.296875 -134.956054688 c 0
 213.030273438 -117.956054688 236.688476562 -80.5556640625 269.271484375 -22.755859375 c 0
 301.854492188 35.0439453125 322.961914062 75.27734375 332.595703125 97.9443359375 c 0
 335.995117188 105.876953125 341.237304688 112.110351562 348.3203125 116.643554688 c 0
 355.403320312 121.17578125 362.203125 123.443359375 368.720703125 123.443359375 c 0
 375.237304688 123.443359375 381.329101562 122.875976562 386.99609375 121.743164062 c 0
 394.36328125 118.91015625 399.887695312 113.52734375 403.571289062 105.59375 c 0
 405.221679688 102.038085938 406.046875 98.1396484375 406.046875 93.900390625 c 0
 406.046875 88.6826171875 404.796875 82.947265625 402.295898438 76.6943359375 c 0
EndSplineSet
Validated: 1
EndChar

StartChar: hyphen
Encoding: 45 45 24
Width: 548
VWidth: 893
GlyphClass: 2
Flags: HMW
HStem: 249.75 73.95<203.708 208.526> 256.55 69.7<374.276 400.06>
VStem: 173.676 246.501
LayerCount: 2
Fore
SplineSet
215.325195312 323.700195312 m 0xa0
 245.358398438 323.700195312 281.202148438 324.125 322.8515625 324.974609375 c 0
 364.501953125 325.825195312 388.16015625 326.25 393.827148438 326.25 c 0
 406.293945312 326.25 414.2265625 323.275390625 417.626953125 317.325195312 c 0
 421.02734375 311.375 421.876953125 303.583007812 420.176757812 293.950195312 c 0
 414.509765625 269.016601562 400.342773438 256.549804688 377.67578125 256.549804688 c 0x60
 370.875976562 256.549804688 344.100585938 255.416992188 297.350585938 253.150390625 c 0
 250.600585938 250.8828125 217.875976562 249.75 199.17578125 249.75 c 0
 181.04296875 249.75 171.975585938 257.546875 171.975585938 273.141601562 c 0
 171.975585938 277.040039062 172.54296875 281.426757812 173.67578125 286.299804688 c 0
 178.208984375 311.233398438 192.091796875 323.700195312 215.325195312 323.700195312 c 0xa0
EndSplineSet
Validated: 1
EndChar

StartChar: period
Encoding: 46 46 25
Width: 548
VWidth: 859
GlyphClass: 2
Flags: HMW
HStem: -2.48889 130.898
VStem: 232.33 128.35
LayerCount: 2
Fore
SplineSet
282.479492188 -2.4892578125 m 0
 279.694335938 -2.806640625 277.015625 -2.9658203125 274.444335938 -2.9658203125 c 0
 258.6953125 -2.9658203125 246.924804688 2.9990234375 239.130859375 14.9326171875 c 0
 233.086914062 24.1884765625 230.064453125 34.515625 230.064453125 45.9111328125 c 0
 230.064453125 51.609375 230.819335938 57.5751953125 232.330078125 63.8076171875 c 0
 236.296875 81.375 246.497070312 96.3916015625 262.930664062 108.858398438 c 0
 279.36328125 121.325195312 296.080078125 127.842773438 313.080078125 128.409179688 c 0
 313.912109375 128.434570312 314.733398438 128.447265625 315.545898438 128.447265625 c 0
 332.9921875 128.447265625 345.912109375 122.625976562 354.305664062 110.985351562 c 0
 360.098632812 102.94921875 362.995117188 93.49609375 362.995117188 82.625 c 0
 362.995117188 77.0146484375 362.223632812 71.0263671875 360.680664062 64.66015625 c 0
 356.712890625 46.52734375 347.646484375 31.369140625 333.479492188 19.1865234375 c 0
 319.3125 7.0029296875 302.3125 -0.2216796875 282.479492188 -2.4892578125 c 0
EndSplineSet
Validated: 1
EndChar

StartChar: slash
Encoding: 47 47 26
Width: 548
VWidth: 901
GlyphClass: 2
Flags: HMW
VStem: 27.475 80.75
LayerCount: 2
Fore
SplineSet
551.924804688 626.501953125 m 0
 531.525390625 597.6015625 476.701171875 526.625 387.451171875 413.575195312 c 0
 298.201171875 300.525390625 243.66015625 230.400390625 223.826171875 203.200195312 c 0
 211.359375 185.633789062 190.817382812 155.883789062 162.201171875 113.950195312 c 0
 133.583984375 72.017578125 115.591796875 46.517578125 108.224609375 37.4501953125 c 0
 96.3251953125 21.5830078125 83.150390625 10.533203125 68.7001953125 4.2998046875 c 0
 61.474609375 1.1845703125 54.994140625 -0.375 49.255859375 -0.375 c 0
 43.5185546875 -0.375 38.525390625 1.1845703125 34.275390625 4.2998046875 c 0
 29.1748046875 7.7001953125 26.625 14.4462890625 26.625 24.5400390625 c 0
 26.625 27.904296875 26.908203125 31.6416015625 27.474609375 35.7490234375 c 0
 29.7421875 52.1826171875 36.5419921875 67.19921875 47.875 80.7998046875 c 0
 156.674804688 216.799804688 250.458007812 337.782226562 329.224609375 443.749023438 c 0
 378.525390625 508.916015625 431.791992188 582.583007812 489.025390625 664.75 c 0
 495.2578125 673.817382812 502.625 680.758789062 511.125 685.576171875 c 0
 519.625 690.392578125 527.275390625 692.66015625 534.075195312 692.376953125 c 0
 540.875 692.09375 547.391601562 690.536132812 553.625 687.703125 c 0
 562.125 682.602539062 566.375 674.669921875 566.375 663.90234375 c 0
 566.375 653.135742188 561.557617188 640.668945312 551.924804688 626.501953125 c 0
EndSplineSet
Validated: 1
EndChar

StartChar: zero
Encoding: 48 48 27
Width: 548
VWidth: 902
GlyphClass: 2
Flags: HMW
HStem: 31.65 71.3991<207.652 217.284> 593.499 68.8509<366.034 367.168>
LayerCount: 2
Fore
SplineSet
209.350585938 31.650390625 m 0
 184.983398438 31.650390625 163.309570312 36.4658203125 144.326171875 46.099609375 c 0
 125.34375 55.732421875 110.46875 69.048828125 99.701171875 86.048828125 c 0
 88.9345703125 103.048828125 82.2763671875 124.298828125 79.7265625 149.798828125 c 0
 79.1064453125 156.001953125 78.7958984375 162.354492188 78.7958984375 168.859375 c 0
 78.7958984375 189.095703125 81.798828125 210.79296875 87.8017578125 233.94921875 c 0
 88.9345703125 239.616210938 91.9091796875 253.640625 96.7265625 276.024414062 c 0
 101.54296875 298.407226562 105.510742188 316.256835938 108.626953125 329.57421875 c 0
 111.744140625 342.890625 116.418945312 361.307617188 122.65234375 384.825195312 c 0
 128.885742188 408.341796875 134.834960938 428.599609375 140.501953125 445.599609375 c 0
 146.168945312 462.599609375 153.251953125 480.875 161.751953125 500.424804688 c 0
 170.251953125 519.974609375 178.751953125 537.1171875 187.251953125 551.849609375 c 0
 208.78515625 587.549804688 236.693359375 614.891601562 270.9765625 633.875 c 0
 305.259765625 652.858398438 344.217773438 662.349609375 387.850585938 662.349609375 c 0
 409.383789062 662.349609375 428.508789062 658.3828125 445.225585938 650.450195312 c 0
 461.942382812 642.516601562 476.109375 630.900390625 487.7265625 615.599609375 c 0
 499.34375 600.299804688 507.135742188 580.466796875 511.102539062 556.099609375 c 0
 512.953125 544.727539062 513.879882812 532.553710938 513.879882812 519.577148438 c 0
 513.879882812 504.749023438 512.669921875 488.874023438 510.252929688 471.950195312 c 0
 505.719726562 443.6171875 499.487304688 411.458984375 491.553710938 375.475585938 c 0
 483.62109375 339.493164062 474.270507812 303.225585938 463.50390625 266.67578125 c 0
 452.737304688 230.125976562 442.8203125 202.217773438 433.752929688 182.951171875 c 0
 424.686523438 163.68359375 415.619140625 146.68359375 406.552734375 131.951171875 c 0
 397.485351562 117.217773438 388.41796875 104.467773438 379.3515625 93.701171875 c 0
 370.284179688 82.93359375 360.509765625 73.8671875 350.026367188 66.5 c 0
 339.54296875 59.1328125 329.34375 53.1826171875 319.426757812 48.650390625 c 0
 309.509765625 44.1171875 298.459960938 40.5751953125 286.276367188 38.025390625 c 0
 274.09375 35.474609375 262.193359375 33.775390625 250.576171875 32.9248046875 c 0
 238.959960938 32.0751953125 225.217773438 31.650390625 209.350585938 31.650390625 c 0
167.701171875 247.548828125 m 0
 167.134765625 245.282226562 166.426757812 241.8828125 165.576171875 237.349609375 c 0
 164.7265625 232.817382812 164.018554688 229.700195312 163.451171875 228 c 1
 258.084960938 331.700195312 346.484375 438.233398438 428.651367188 547.599609375 c 1
 422.41796875 562.333007812 413.3515625 573.666015625 401.451171875 581.599609375 c 0
 389.551757812 589.532226562 375.384765625 593.499023438 358.951171875 593.499023438 c 0
 329.484375 593.499023438 304.551757812 584.715820312 284.151367188 567.149414062 c 0
 263.751953125 549.58203125 245.051757812 521.249023438 228.051757812 482.149414062 c 0
 221.251953125 467.982421875 214.876953125 451.407226562 208.926757812 432.423828125 c 0
 202.9765625 413.44140625 197.026367188 390.491210938 191.076171875 363.57421875 c 0
 185.126953125 336.657226562 181.159179688 317.673828125 179.176757812 306.624023438 c 0
 177.193359375 295.57421875 173.368164062 275.881835938 167.701171875 247.548828125 c 0
362.3515625 194.849609375 m 0
 365.751953125 201.650390625 372.268554688 220.349609375 381.901367188 250.94921875 c 0
 391.534179688 281.548828125 401.451171875 316.541015625 411.651367188 355.923828125 c 0
 421.8515625 395.307617188 429.784179688 433.131835938 435.451171875 469.399414062 c 1
 349.884765625 344.732421875 258.934570312 240.182617188 162.6015625 155.749023438 c 1
 168.834960938 120.616210938 189.801757812 103.048828125 225.501953125 103.048828125 c 0
 239.66796875 103.048828125 252.701171875 104.32421875 264.6015625 106.874023438 c 0
 276.501953125 109.423828125 288.259765625 113.95703125 299.876953125 120.474609375 c 0
 311.493164062 126.991210938 322.401367188 136.483398438 332.6015625 148.950195312 c 0
 342.801757812 161.416992188 352.71875 176.716796875 362.3515625 194.849609375 c 0
EndSplineSet
Validated: 1
EndChar

StartChar: one
Encoding: 49 49 28
Width: 548
VWidth: 904
GlyphClass: 2
Flags: HMW
HStem: 46.4251 72.675 49.8251 75.65<141.891 142.456>
LayerCount: 2
Fore
SplineSet
488.974609375 86.375 m 0x80
 486.708007812 75.0419921875 481.747070312 65.5498046875 474.09765625 57.900390625 c 0
 466.447265625 50.25 454.689453125 46.4248046875 438.822265625 46.4248046875 c 0x80
 432.022460938 46.4248046875 385.272460938 46.9921875 298.572265625 48.125 c 0
 211.872070312 49.2578125 155.489257812 49.8251953125 129.421875 49.8251953125 c 0
 117.522460938 49.8251953125 109.73046875 53.224609375 106.046875 60.025390625 c 0
 103.767578125 64.234375 102.626953125 69.203125 102.626953125 74.9326171875 c 0
 102.626953125 78.458984375 103.05859375 82.2724609375 103.922851562 86.375 c 0
 106.190429688 97.7080078125 111.006835938 107.05859375 118.374023438 114.424804688 c 0
 125.741210938 121.791992188 135.658203125 125.474609375 148.125 125.474609375 c 0x40
 171.924804688 125.474609375 212.44140625 125.192382812 269.674804688 124.625 c 1
 274.774414062 147.291992188 278.7421875 165.424804688 281.575195312 179.025390625 c 0
 282.141601562 183.55859375 285.399414062 198.575195312 291.349609375 224.075195312 c 0
 297.299804688 249.575195312 301.69140625 267.9921875 304.524414062 279.325195312 c 0
 307.357421875 290.658203125 312.8828125 311.625 321.099609375 342.224609375 c 0
 329.31640625 372.825195312 335.266601562 395.6328125 338.950195312 410.650390625 c 0
 342.6328125 425.666992188 348.866210938 449.466796875 357.649414062 482.049804688 c 0
 366.431640625 514.6328125 373.08984375 538.575195312 377.623046875 553.875 c 1
 330.58984375 518.7421875 297.157226562 497.775390625 277.32421875 490.974609375 c 0
 273.836914062 489.580078125 270.484375 488.8828125 267.264648438 488.8828125 c 0
 260.022460938 488.8828125 253.458007812 492.4140625 247.57421875 499.474609375 c 0
 241.19921875 507.125 238.01171875 514.775390625 238.01171875 522.424804688 c 0
 238.01171875 524.974609375 238.366210938 527.525390625 239.07421875 530.075195312 c 0
 240.774414062 539.141601562 244.45703125 547.216796875 250.124023438 554.299804688 c 0
 255.791015625 561.3828125 264.291015625 568.608398438 275.624023438 575.974609375 c 0
 293.756835938 588.442382812 312.881835938 602.18359375 332.999023438 617.201171875 c 0
 353.116210938 632.217773438 367.848632812 643.125976562 377.19921875 649.92578125 c 0
 386.548828125 656.725585938 395.616210938 662.534179688 404.399414062 667.350585938 c 0
 413.181640625 672.16796875 420.690429688 674.576171875 426.922851562 674.576171875 c 0
 438.255859375 674.576171875 448.598632812 669.475585938 457.948242188 659.276367188 c 0
 465.859375 650.64453125 469.815429688 643.231445312 469.815429688 637.03515625 c 0
 469.815429688 634.8046875 469.815429688 634.8046875 432.448242188 494.80078125 c 0
 411.198242188 415.18359375 399.15625 368.576171875 396.323242188 354.975585938 c 0
 383.290039062 298.30859375 372.5234375 250.9921875 364.0234375 213.025390625 c 0
 358.922851562 192.05859375 352.690429688 161.458007812 345.323242188 121.224609375 c 1
 360.623046875 121.224609375 376.630859375 120.942382812 393.348632812 120.375 c 0
 410.065429688 119.80859375 423.806640625 119.3828125 434.57421875 119.099609375 c 0
 445.340820312 118.817382812 452.708007812 118.674804688 456.674804688 118.674804688 c 0
 471.408203125 118.674804688 480.899414062 115.700195312 485.149414062 109.75 c 0
 489.399414062 103.799804688 490.674804688 96.0078125 488.974609375 86.375 c 0x80
EndSplineSet
Validated: 1
EndChar

StartChar: two
Encoding: 50 50 29
Width: 548
VWidth: 902
GlyphClass: 2
Flags: HMW
HStem: 37.3452 71.4042 42.4493 75.65<387.878 418.904> 594.947 71.3991<374.562 385.614>
LayerCount: 2
Fore
SplineSet
398.928710938 42.44921875 m 0x60
 376.828125 42.44921875 349.205078125 41.876953125 316.0546875 40.744140625 c 0
 282.905273438 39.611328125 253.438476562 38.478515625 227.655273438 37.3447265625 c 0
 201.872070312 36.2119140625 175.8046875 35.6455078125 149.455078125 35.6455078125 c 0
 123.104492188 35.6455078125 102.563476562 36.7783203125 87.830078125 39.044921875 c 0
 76.4970703125 40.1787109375 69.8388671875 47.828125 67.85546875 61.9951171875 c 0
 67.408203125 65.1943359375 67.1845703125 68.7109375 67.1845703125 72.5458984375 c 0
 67.1845703125 85.6923828125 69.81640625 102.576171875 75.0810546875 123.1953125 c 0
 80.748046875 147.5625 91.373046875 173.204101562 106.956054688 200.12109375 c 0
 122.5390625 227.038085938 142.796875 252.821289062 167.729492188 277.470703125 c 0
 192.663085938 302.12109375 219.580078125 322.095703125 248.479492188 337.396484375 c 0
 313.080078125 371.396484375 355.012695312 395.196289062 374.280273438 408.795898438 c 0
 399.780273438 426.928710938 417.913085938 446.196289062 428.6796875 466.595703125 c 0
 434.346679688 478.49609375 439.1640625 493.229492188 443.130859375 510.795898438 c 0
 445.49609375 521.044921875 446.678710938 530.317382812 446.678710938 538.61328125 c 0
 446.678710938 554.16796875 442.520507812 566.287109375 434.206054688 574.971679688 c 0
 421.456054688 588.2890625 400.34765625 594.947265625 370.880859375 594.947265625 c 0
 350.48046875 594.947265625 329.23046875 588.146484375 307.130859375 574.546875 c 0
 285.03125 560.947265625 266.897460938 545.9296875 252.73046875 529.497070312 c 0
 245.930664062 522.129882812 240.123046875 516.322265625 235.305664062 512.072265625 c 0
 230.489257812 507.822265625 225.671875 505.4140625 220.854492188 504.846679688 c 0
 216.038085938 504.280273438 211.788085938 504.5625 208.104492188 505.696289062 c 0
 204.421875 506.829101562 200.030273438 508.8125 194.9296875 511.645507812 c 0
 186.997070312 516.745117188 183.030273438 524.112304688 183.030273438 533.745117188 c 0
 183.030273438 543.377929688 188.129882812 555.844726562 198.330078125 571.145507812 c 0
 206.262695312 581.912109375 216.604492188 592.678710938 229.354492188 603.446289062 c 0
 242.104492188 614.212890625 256.5546875 624.413085938 272.705078125 634.045898438 c 0
 288.854492188 643.678710938 306.846679688 651.470703125 326.6796875 657.420898438 c 0
 346.512695312 663.37109375 365.49609375 666.345703125 383.62890625 666.345703125 c 0
 440.862304688 666.345703125 480.954101562 652.178710938 503.904296875 623.845703125 c 0
 518.541992188 605.775390625 525.859375 581.942382812 525.859375 552.345703125 c 0
 525.859375 535.537109375 523.5 516.87109375 518.779296875 496.345703125 c 0
 508.01171875 449.3125 488.178710938 411.629882812 459.279296875 383.296875 c 0
 437.74609375 362.330078125 402.896484375 339.096679688 354.729492188 313.596679688 c 0
 342.829101562 306.796875 322.146484375 296.313476562 292.678710938 282.146484375 c 0
 267.178710938 269.114257812 244.654296875 253.10546875 225.104492188 234.123046875 c 0
 205.553710938 215.139648438 190.112304688 195.731445312 178.779296875 175.8984375 c 0
 167.446289062 156.065429688 158.37890625 134.532226562 151.579101562 111.299804688 c 1
 180.479492188 109.599609375 208.529296875 108.749023438 235.729492188 108.749023438 c 0xa0
 262.928710938 108.749023438 284.321289062 109.174804688 299.904296875 110.024414062 c 0
 315.487304688 110.874023438 333.479492188 112.149414062 353.87890625 113.849609375 c 2
 394.678710938 117.249023438 l 2
 395.24609375 117.249023438 397.795898438 117.391601562 402.329101562 117.674804688 c 0
 406.862304688 117.95703125 409.836914062 118.099609375 411.25390625 118.099609375 c 2
 418.904296875 118.099609375 l 2
 422.586914062 118.099609375 425.279296875 117.532226562 426.979492188 116.399414062 c 0
 428.678710938 115.266601562 430.521484375 113.849609375 432.50390625 112.149414062 c 0
 434.487304688 110.44921875 435.904296875 108.182617188 436.75390625 105.349609375 c 0
 437.604492188 102.516601562 437.74609375 99.1162109375 437.178710938 95.1494140625 c 0
 436.612304688 88.349609375 434.770507812 81.1240234375 431.653320312 73.474609375 c 0
 428.536132812 65.82421875 424.002929688 58.7412109375 418.053710938 52.224609375 c 0
 412.103515625 45.70703125 405.728515625 42.44921875 398.928710938 42.44921875 c 0x60
EndSplineSet
Validated: 1
EndChar

StartChar: three
Encoding: 51 51 30
Width: 548
VWidth: 902
GlyphClass: 2
Flags: HMW
HStem: 31.9557 71.4<233.786 253.903> 322.656 85<258.436 264.103> 594.656 71.3983<352.221 364.969>
VStem: 378.995 85
LayerCount: 2
Fore
SplineSet
457.620117188 221.500976562 m 0
 444.586914062 163.133789062 417.38671875 116.956054688 376.01953125 82.9560546875 c 0
 334.65234375 48.9560546875 283.935546875 31.9560546875 223.869140625 31.9560546875 c 0
 205.168945312 31.9560546875 187.4609375 34.9306640625 170.744140625 40.880859375 c 0
 154.02734375 46.8310546875 139.71875 54.48046875 127.819335938 63.8310546875 c 0
 115.918945312 73.1806640625 106.001953125 83.380859375 98.0693359375 94.4306640625 c 0
 90.1357421875 105.48046875 85.0361328125 116.388671875 82.7685546875 127.155273438 c 0
 81.6357421875 132.368164062 81.0693359375 137.401367188 81.0693359375 142.251953125 c 0
 81.0693359375 149.528320312 82.34375 156.395507812 84.8935546875 162.85546875 c 0
 89.1435546875 173.623046875 96.0859375 181.272460938 105.71875 185.805664062 c 0
 113.92578125 189.713867188 121.255859375 191.66796875 127.7109375 191.66796875 c 0
 130.616210938 191.66796875 133.34375 191.271484375 135.893554688 190.48046875 c 0
 144.111328125 187.930664062 151.052734375 180.706054688 156.719726562 168.805664062 c 0
 164.65234375 151.805664062 175.986328125 136.647460938 190.71875 123.331054688 c 0
 205.452148438 110.013671875 223.301757812 103.35546875 244.268554688 103.35546875 c 0
 275.435546875 103.35546875 303.486328125 112.989257812 328.418945312 132.255859375 c 0
 353.3515625 151.522460938 369.21875 176.456054688 376.018554688 207.055664062 c 0
 378.663085938 219.5234375 379.986328125 230.857421875 379.986328125 241.05859375 c 0
 379.986328125 246.157226562 379.655273438 250.97265625 378.995117188 255.505859375 c 0
 377.01171875 269.10546875 371.486328125 281.005859375 362.419921875 291.206054688 c 0
 353.352539062 301.405273438 339.328125 309.197265625 320.344726562 314.581054688 c 0
 301.361328125 319.963867188 277.986328125 322.655273438 250.219726562 322.655273438 c 0
 239.453125 322.655273438 231.236328125 327.331054688 225.569335938 336.680664062 c 0
 221.790039062 342.915039062 219.90234375 349.588867188 219.90234375 356.704101562 c 0
 219.90234375 360.26171875 220.373046875 363.927734375 221.318359375 367.706054688 c 0
 224.151367188 379.60546875 229.250976562 389.239257812 236.618164062 396.60546875 c 0
 243.985351562 403.97265625 253.051757812 407.655273438 263.819335938 407.655273438 c 0
 308.018554688 407.655273438 344.994140625 417.147460938 374.744140625 436.130859375 c 0
 404.494140625 455.114257812 423.051757812 482.739257812 430.418945312 519.005859375 c 0
 432.594726562 527.165039062 433.682617188 534.658203125 433.682617188 541.483398438 c 0
 433.682617188 555.987304688 428.76953125 567.478515625 418.944335938 575.956054688 c 0
 404.494140625 588.422851562 381.119140625 594.655273438 348.819335938 594.655273438 c 0
 342.5859375 594.655273438 336.494140625 593.947265625 330.543945312 592.530273438 c 0
 324.59375 591.114257812 319.494140625 589.697265625 315.244140625 588.280273438 c 0
 310.994140625 586.86328125 306.319335938 584.455078125 301.21875 581.0546875 c 0
 296.119140625 577.655273438 292.010742188 574.822265625 288.893554688 572.5546875 c 0
 285.77734375 570.288085938 281.668945312 566.604492188 276.569335938 561.504882812 c 2
 265.944335938 550.879882812 l 2
 263.9609375 548.896484375 260.418945312 544.7890625 255.319335938 538.555664062 c 0
 243.986328125 526.088867188 233.643554688 518.721679688 224.293945312 516.455078125 c 0
 221.623046875 515.807617188 218.985351562 515.483398438 216.3828125 515.483398438 c 0
 209.877929688 515.483398438 203.58984375 517.5078125 197.518554688 521.5546875 c 0
 190.114257812 525.786132812 186.413085938 532.607421875 186.413085938 542.021484375 c 0
 186.413085938 552.278320312 190.698242188 565.08203125 200.920898438 581.053710938 c 0
 208.853515625 592.38671875 217.920898438 602.729492188 228.120117188 612.079101562 c 0
 238.3203125 621.428710938 249.9375 630.354492188 262.970703125 638.854492188 c 0
 276.00390625 647.354492188 291.020507812 654.01171875 308.020507812 658.829101562 c 0
 325.020507812 663.646484375 342.870117188 666.053710938 361.5703125 666.053710938 c 0
 422.204101562 666.053710938 464.704101562 652.454101562 489.0703125 625.25390625 c 0
 504.708984375 607.797851562 512.52734375 584.97265625 512.52734375 556.779296875 c 0
 512.52734375 541.043945312 510.092773438 523.634765625 505.220703125 504.553710938 c 0
 501.8203125 488.12109375 496.579101562 473.24609375 489.495117188 459.928710938 c 0
 482.412109375 446.612304688 474.337890625 435.279296875 465.270507812 425.928710938 c 0
 456.204101562 416.579101562 445.861328125 408.362304688 434.245117188 401.279296875 c 0
 422.627929688 394.196289062 411.294921875 388.670898438 400.245117188 384.704101562 c 0
 389.194335938 380.737304688 377.436523438 377.620117188 364.969726562 375.353515625 c 1
 385.370117188 370.252929688 402.370117188 364.020507812 415.969726562 356.653320312 c 0
 429.569335938 349.286132812 440.620117188 339.793945312 449.120117188 328.177734375 c 0
 457.620117188 316.560546875 462.578125 301.96875 463.995117188 284.401367188 c 0
 464.27734375 280.887695312 464.419921875 277.23828125 464.419921875 273.452148438 c 0
 464.419921875 258.310546875 462.15234375 240.993164062 457.620117188 221.500976562 c 0
EndSplineSet
Validated: 1
EndChar

StartChar: four
Encoding: 52 52 31
Width: 548
VWidth: 902
GlyphClass: 2
Flags: HMW
HStem: 33.1263 17.85G<334.597 345.364> 243.076 67.9992
LayerCount: 2
Fore
SplineSet
386.163085938 99.4267578125 m 0
 385.596679688 81.2939453125 380.639648438 65.708984375 371.2890625 52.6767578125 c 0
 361.939453125 39.6435546875 351.314453125 33.1259765625 339.4140625 33.1259765625 c 0
 329.78125 33.1259765625 321.28125 37.234375 313.9140625 45.451171875 c 0
 307.529296875 52.572265625 304.336914062 59.80078125 304.336914062 67.134765625 c 0
 304.336914062 72.6455078125 309.333007812 93.4775390625 311.787109375 103.676757812 c 0
 315.470703125 118.9765625 320.712890625 140.934570312 327.512695312 169.551757812 c 0
 334.3125 198.16796875 339.979492188 222.676757812 344.512695312 243.076171875 c 1
 333.247070312 243.209960938 322.374023438 243.276367188 311.892578125 243.276367188 c 0
 233.272460938 243.276367188 176.712890625 239.526367188 142.212890625 232.026367188 c 0
 133.712890625 230.326171875 126.204101562 230.609375 119.6875 232.875976562 c 0
 113.170898438 235.143554688 108.637695312 239.110351562 106.087890625 244.77734375 c 0
 103.537109375 250.444335938 101.979492188 256.9609375 101.412109375 264.328125 c 0
 100.845703125 271.6953125 101.553710938 279.344726562 103.537109375 287.278320312 c 0
 105.51953125 295.2109375 108.495117188 302.861328125 112.461914062 310.227539062 c 0
 121.528320312 326.094726562 141.787109375 352.01953125 173.236328125 388.002929688 c 0
 204.686523438 423.986328125 244.778320312 468.46875 293.51171875 521.452148438 c 0
 342.245117188 574.435546875 377.094726562 612.827148438 398.061523438 636.626953125 c 0
 407.694335938 647.39453125 417.469726562 655.46875 427.38671875 660.852539062 c 0
 437.303710938 666.235351562 445.9453125 668.926757812 453.3125 668.926757812 c 0
 455.26953125 669.1328125 457.17578125 669.236328125 459.030273438 669.236328125 c 0
 467.375976562 669.236328125 474.677734375 667.150390625 480.9375 662.977539062 c 0
 488.059570312 658.229492188 491.62109375 650.2890625 491.62109375 639.154296875 c 0
 491.62109375 634.905273438 490.6640625 611.056640625 477.962890625 544.827148438 c 0
 470.030273438 503.459960938 462.947265625 468.46875 456.713867188 439.8515625 c 0
 450.481445312 411.234375 441.130859375 368.026367188 428.6640625 310.2265625 c 1
 437.731445312 309.659179688 447.930664062 309.375976562 459.264648438 309.375976562 c 0
 471.731445312 309.375976562 479.6640625 306.401367188 483.064453125 300.451171875 c 0
 486.463867188 294.500976562 487.314453125 286.708984375 485.614257812 277.076171875 c 0
 479.947265625 252.143554688 465.780273438 239.676757812 443.11328125 239.676757812 c 0
 432.346679688 239.676757812 422.712890625 239.958984375 414.212890625 240.526367188 c 1
 395.513671875 157.79296875 386.163085938 110.759765625 386.163085938 99.4267578125 c 0
412.514648438 564.375976562 m 1
 308.814453125 454.442382812 236.280273438 369.158203125 194.913085938 308.525390625 c 1
 224.8671875 310.548828125 261.470703125 311.561523438 304.725585938 311.561523438 c 0
 322.024414062 311.561523438 340.38671875 311.399414062 359.813476562 311.075195312 c 1
 384.180664062 417.041992188 401.747070312 501.475585938 412.514648438 564.375976562 c 1
EndSplineSet
Validated: 1
EndChar

StartChar: five
Encoding: 53 53 32
Width: 548
VWidth: 902
GlyphClass: 2
Flags: HMW
HStem: 36.7489 71.3983<216.961 222.344> 409.047 75.6525<322.644 375.912> 578.2 75.6483<492.929 519.563> 587.55 67.9983
LayerCount: 2
Fore
SplineSet
470.262695312 303.649414062 m 0xd0
 460.62890625 261.716796875 447.026367188 223.890625 429.459960938 190.173828125 c 0
 411.892578125 156.45703125 391.634765625 128.407226562 368.684570312 106.024414062 c 0
 345.734375 83.640625 320.517578125 66.4990234375 293.03515625 54.5986328125 c 0
 265.551757812 42.69921875 237.077148438 36.7490234375 207.609375 36.7490234375 c 0
 184.376953125 36.7490234375 163.551757812 39.298828125 145.134765625 44.3994140625 c 0
 126.717773438 49.4990234375 111.984375 56.58203125 100.934570312 65.6494140625 c 0
 89.884765625 74.7158203125 81.1015625 84.2080078125 74.5849609375 94.125 c 0
 68.0673828125 104.041992188 63.109375 114.383789062 59.7099609375 125.150390625 c 0
 58.5771484375 131.270507812 58.009765625 136.9375 58.009765625 142.150390625 c 0
 58.009765625 149.970703125 59.28515625 156.770507812 61.8349609375 162.55078125 c 0
 66.0849609375 172.18359375 73.5927734375 179.55078125 84.359375 184.650390625 c 0
 91.16015625 187.483398438 96.4013671875 189.466796875 100.084960938 190.599609375 c 0
 103.767578125 191.732421875 108.017578125 192.015625 112.834960938 191.44921875 c 0
 117.651367188 190.881835938 121.619140625 188.615234375 124.735351562 184.6484375 c 0
 127.852539062 180.681640625 130.827148438 175.014648438 133.66015625 167.647460938 c 0
 148.393554688 128.546875 176.16015625 108.713867188 216.9609375 108.147460938 c 0
 256.627929688 108.147460938 291.90234375 125.004882812 322.78515625 158.72265625 c 0
 353.668945312 192.439453125 375.626953125 237.630859375 388.66015625 294.297851562 c 0
 392.2421875 310.1640625 394.034179688 324.557617188 394.034179688 337.477539062 c 0
 394.034179688 353.165039062 391.392578125 366.6796875 386.109375 378.022460938 c 0
 376.4765625 398.705078125 356.643554688 409.046875 326.610351562 409.046875 c 0
 318.677734375 409.046875 310.885742188 408.622070312 303.235351562 407.772460938 c 0
 295.5859375 406.921875 289.068359375 405.7890625 283.685546875 404.372070312 c 0
 278.302734375 402.955078125 272.2109375 400.830078125 265.41015625 397.997070312 c 0
 258.610351562 395.1640625 253.510742188 392.897460938 250.110351562 391.197265625 c 0
 246.7109375 389.497070312 241.893554688 386.379882812 235.66015625 381.84765625 c 0
 229.427734375 377.314453125 225.319335938 374.197265625 223.336914062 372.497070312 c 0
 221.353515625 370.796875 217.103515625 367.254882812 210.586914062 361.872070312 c 0
 204.069335938 356.489257812 199.961914062 353.231445312 198.26171875 352.09765625 c 0
 193.161132812 348.130859375 187.353515625 344.731445312 180.836914062 341.8984375 c 0
 174.319335938 339.065429688 167.236328125 337.22265625 159.586914062 336.373046875 c 0
 151.936523438 335.5234375 144.994140625 336.797851562 138.76171875 340.198242188 c 0
 130.828125 344.165039062 126.153320312 352.948242188 124.736328125 366.547851562 c 0
 124.36328125 370.126953125 124.176757812 373.922851562 124.176757812 377.93359375 c 0
 124.176757812 389.163085938 125.638671875 402.084960938 128.561523438 416.698242188 c 0
 132.528320312 436.53125 137.061523438 455.65625 142.161132812 474.073242188 c 0
 147.26171875 492.490234375 152.928710938 512.323242188 159.161132812 533.573242188 c 0
 165.39453125 554.823242188 169.361328125 569.415039062 171.061523438 577.34765625 c 1
 168.228515625 584.71484375 167.377929688 593.073242188 168.51171875 602.422851562 c 0
 169.64453125 611.7734375 172.194335938 620.415039062 176.161132812 628.34765625 c 0
 180.127929688 636.28125 185.370117188 643.081054688 191.887695312 648.748046875 c 0
 198.404296875 654.415039062 205.345703125 657.248046875 212.712890625 657.248046875 c 0
 232.545898438 657.248046875 278.587890625 656.681640625 350.837890625 655.547851562 c 0xd0
 423.087890625 654.415039062 478.196289062 653.84765625 516.163085938 653.84765625 c 0
 522.962890625 653.84765625 527.780273438 650.731445312 530.61328125 644.498046875 c 0
 533.446289062 638.264648438 534.579101562 631.181640625 534.012695312 623.249023438 c 0
 533.4453125 615.315429688 532.028320312 607.94921875 529.76171875 601.149414062 c 0
 528.627929688 597.181640625 527.0703125 593.782226562 525.086914062 590.94921875 c 0
 523.104492188 588.116210938 520.696289062 585.991210938 517.86328125 584.57421875 c 0
 515.030273438 583.157226562 512.622070312 581.881835938 510.638671875 580.749023438 c 0
 508.65625 579.616210938 505.680664062 578.908203125 501.713867188 578.625 c 0
 497.747070312 578.341796875 495.0546875 578.200195312 493.637695312 578.200195312 c 0xe0
 492.220703125 578.200195312 489.24609375 578.482421875 484.712890625 579.049804688 c 0
 480.1796875 579.6171875 477.629882812 579.899414062 477.063476562 579.899414062 c 0
 469.696289062 579.899414062 456.8046875 580.75 438.387695312 582.450195312 c 0
 419.970703125 584.149414062 403.395507812 585.424804688 388.662109375 586.274414062 c 0
 373.9296875 587.125 353.387695312 587.549804688 327.037109375 587.549804688 c 0
 300.6875 587.549804688 273.0625 586.700195312 244.162109375 585 c 1
 242.461914062 579.333007812 238.0703125 562.899414062 230.987304688 535.700195312 c 0
 223.904296875 508.5 218.8046875 488.807617188 215.6875 476.625 c 0
 212.5703125 464.44140625 208.745117188 447.016601562 204.211914062 424.349609375 c 1
 222.912109375 441.916992188 246.145507812 456.3671875 273.912109375 467.700195312 c 0
 301.6796875 479.033203125 331.711914062 484.700195312 364.012695312 484.700195312 c 0
 387.8125 484.700195312 407.9296875 480.024414062 424.362304688 470.674804688 c 0
 440.794921875 461.325195312 453.262695312 448.432617188 461.762695312 432 c 0
 470.262695312 415.56640625 475.220703125 396.44140625 476.637695312 374.625 c 0
 476.919921875 370.260742188 477.0625 365.823242188 477.0625 361.311523438 c 0
 477.0625 343.26953125 474.794921875 324.048828125 470.262695312 303.649414062 c 0xd0
EndSplineSet
Validated: 1
EndChar

StartChar: six
Encoding: 54 54 33
Width: 548
VWidth: 903
GlyphClass: 2
Flags: HMW
HStem: 34.9564 71.4042<246.491 249.609> 387.707 74.7967<315.909 379.659> 612.104 68.0017
VStem: 95.4753 70.5475 407.85 80.75
LayerCount: 2
Fore
SplineSet
478.826171875 262.75390625 m 0
 471.458984375 231.020507812 459.55859375 201.131835938 443.125 173.081054688 c 0
 426.692382812 145.03125 407.850585938 120.948242188 386.600585938 100.831054688 c 0
 365.350585938 80.71484375 341.55078125 64.7060546875 315.200195312 52.806640625 c 0
 288.850585938 40.90625 262.642578125 34.9560546875 236.575195312 34.9560546875 c 0
 204.275390625 34.9560546875 177.5 41.6142578125 156.25 54.931640625 c 0
 135 68.248046875 119.416992188 87.515625 109.5 112.732421875 c 0
 100.119140625 136.584960938 95.4296875 164.875 95.4296875 197.6015625 c 0
 95.4296875 199.471679688 95.4443359375 201.357421875 95.4755859375 203.256835938 c 0
 96.0419921875 238.390625 101.708984375 277.7734375 112.4765625 321.40625 c 0
 124.375976562 370.139648438 139.109375 414.056640625 156.67578125 453.15625 c 0
 174.243164062 492.256835938 193.651367188 525.123046875 214.901367188 551.756835938 c 0
 236.151367188 578.389648438 259.809570312 600.9140625 285.875976562 619.331054688 c 0
 311.943359375 637.748046875 338.860351562 651.7734375 366.626953125 661.40625 c 0
 394.393554688 671.0390625 424.426757812 677.272460938 456.7265625 680.10546875 c 0
 459.100585938 680.321289062 461.387695312 680.4296875 463.586914062 680.4296875 c 0
 472.9375 680.4296875 480.708984375 678.479492188 486.90234375 674.580078125 c 0
 494.024414062 670.094726562 497.5859375 663.03125 497.5859375 653.389648438 c 0
 497.5859375 649.91015625 497.5859375 641.828125 483.076171875 628.678710938 c 0
 474.008789062 620.461914062 464.942382812 614.936523438 455.875 612.103515625 c 0
 449.642578125 610.404296875 440.150390625 608.13671875 427.400390625 605.303710938 c 0
 414.650390625 602.470703125 403.883789062 599.779296875 395.100585938 597.228515625 c 0
 386.317382812 594.678710938 375.55078125 590.853515625 362.80078125 585.75390625 c 0
 350.05078125 580.654296875 336.875 573.287109375 323.275390625 563.654296875 c 0
 309.67578125 554.020507812 295.791992188 542.404296875 281.625 528.803710938 c 0
 266.892578125 514.071289062 251.734375 493.954101562 236.151367188 468.454101562 c 0
 220.568359375 442.954101562 209.092773438 420.287109375 201.7265625 400.454101562 c 1
 223.258789062 421.420898438 248.192382812 437.00390625 276.525390625 447.204101562 c 0
 304.858398438 457.404296875 335.17578125 462.50390625 367.475585938 462.50390625 c 0
 391.841796875 462.50390625 412.666992188 458.821289062 429.950195312 451.454101562 c 0
 447.233398438 444.086914062 460.975585938 432.469726562 471.17578125 416.603515625 c 0
 481.375 400.736328125 487.18359375 379.911132812 488.600585938 354.127929688 c 0
 488.815429688 350.220703125 488.922851562 346.206054688 488.922851562 342.084960938 c 0
 488.922851562 319.005859375 485.557617188 292.5625 478.826171875 262.75390625 c 0
167.725585938 249.15625 m 0
 166.44921875 239.801757812 165.810546875 230.368164062 165.810546875 220.85546875 c 0
 165.810546875 217.690429688 165.881835938 214.517578125 166.022460938 211.334960938 c 0
 166.58984375 198.584960938 168.856445312 185.692382812 172.823242188 172.66015625 c 0
 176.791015625 159.626953125 182.032226562 148.293945312 188.549804688 138.66015625 c 0
 195.06640625 129.02734375 203.991210938 121.235351562 215.32421875 115.28515625 c 0
 226.657226562 109.3359375 239.407226562 106.360351562 253.57421875 106.360351562 c 0
 272.841796875 106.360351562 292.958007812 113.727539062 313.92578125 128.4609375 c 0
 334.892578125 143.193359375 353.025390625 161.751953125 368.325195312 184.134765625 c 0
 383.625 206.517578125 393.825195312 229.326171875 398.92578125 252.55859375 c 0
 404.887695312 278.03515625 407.868164062 299.623046875 407.868164062 317.3203125 c 0
 407.868164062 336.740234375 404.279296875 351.365234375 397.225585938 361.357421875 c 0
 390.42578125 370.990234375 381.642578125 377.790039062 370.875 381.756835938 c 0
 360.108398438 385.724609375 346.225585938 387.70703125 329.225585938 387.70703125 c 0
 302.591796875 387.70703125 276.100585938 380.33984375 249.75 365.607421875 c 0
 223.400390625 350.874023438 200.30859375 332.173828125 180.475585938 309.506835938 c 1
 174.2421875 285.140625 169.9921875 265.0234375 167.725585938 249.15625 c 0
EndSplineSet
Validated: 1
EndChar

StartChar: seven
Encoding: 55 55 34
Width: 548
VWidth: 901
GlyphClass: 2
Flags: HMW
HStem: 580.951 76.925
LayerCount: 2
Fore
SplineSet
140.49609375 73.9287109375 m 0
 130.86328125 59.1962890625 120.234375 48.1435546875 108.6171875 40.7763671875 c 0
 99.7333984375 35.142578125 91.4306640625 32.326171875 83.7080078125 32.326171875 c 0
 81.3310546875 32.326171875 79.009765625 32.5927734375 76.7421875 33.1259765625 c 0
 65.9755859375 35.9599609375 59.6005859375 42.759765625 57.6171875 53.5263671875 c 0
 57.2421875 55.5634765625 57.0546875 57.6416015625 57.0546875 59.7587890625 c 0
 57.0546875 68.8359375 60.5 78.6591796875 67.392578125 89.2265625 c 0
 107.625 147.59375 149.842773438 205.676757812 194.041992188 263.4765625 c 0
 238.2421875 321.276367188 274.3671875 367.318359375 302.416992188 401.6015625 c 0
 330.467773438 435.884765625 356.817382812 469.176757812 381.467773438 501.4765625 c 0
 406.1171875 533.776367188 423.825195312 560.125976562 434.592773438 580.526367188 c 1
 409.864257812 581.454101562 384.125 581.91796875 357.373046875 581.91796875 c 0
 335.083007812 581.91796875 312.08984375 581.595703125 288.393554688 580.951171875 c 0
 236.259765625 579.534179688 201.693359375 576.559570312 184.693359375 572.026367188 c 0
 177.893554688 570.326171875 172.368164062 570.609375 168.118164062 572.875976562 c 0
 163.868164062 575.143554688 160.750976562 578.54296875 158.768554688 583.076171875 c 0
 156.78515625 587.609375 155.65234375 592.426757812 155.369140625 597.526367188 c 0
 155.0859375 602.625976562 155.227539062 607.7265625 155.794921875 612.826171875 c 0
 158.061523438 623.026367188 162.311523438 631.1015625 168.544921875 637.051757812 c 0
 174.778320312 643.000976562 184.6953125 647.393554688 198.294921875 650.2265625 c 0
 218.6953125 654.193359375 246.177734375 656.743164062 280.745117188 657.875976562 c 0
 298.028320312 658.443359375 314.603515625 658.7265625 330.469726562 658.7265625 c 0
 346.336914062 658.7265625 361.495117188 658.442382812 375.9453125 657.875976562 c 0
 404.844726562 656.743164062 433.037109375 655.610351562 460.51953125 654.477539062 c 0
 488.002929688 653.34375 502.877929688 652.77734375 505.14453125 652.77734375 c 0
 510.811523438 652.77734375 515.912109375 651.501953125 520.4453125 648.952148438 c 0
 524.977539062 646.40234375 528.9453125 642.293945312 532.344726562 636.626953125 c 0
 535.745117188 630.959960938 536.453125 623.59375 534.469726562 614.526367188 c 0
 532.486328125 605.459960938 527.528320312 594.9765625 519.595703125 583.076171875 c 0
 508.262695312 566.076171875 488.99609375 540.434570312 461.795898438 506.151367188 c 0
 434.595703125 471.868164062 406.403320312 436.735351562 377.220703125 400.751953125 c 0
 348.038085938 364.76953125 311.629882812 316.885742188 267.99609375 257.103515625 c 0
 224.36328125 197.3203125 181.86328125 136.26171875 140.49609375 73.9287109375 c 0
EndSplineSet
Validated: 1
EndChar

StartChar: eight
Encoding: 56 56 35
Width: 548
VWidth: 901
GlyphClass: 2
Flags: HMW
HStem: 27.9576 73.0975<237.133 241.099> 600.854 61.2009<366.899 371.149>
VStem: 405.291 76.9258
LayerCount: 2
Fore
SplineSet
477.965820312 225.151367188 m 0
 473.999023438 207.017578125 467.623046875 188.888671875 458.83984375 170.755859375 c 0
 450.056640625 152.623046875 438.439453125 134.915039062 423.989257812 117.631835938 c 0
 409.540039062 100.348632812 393.106445312 85.1904296875 374.689453125 72.1572265625 c 0
 356.272460938 59.125 334.314453125 48.5 308.814453125 40.2822265625 c 0
 283.314453125 32.0654296875 255.83203125 27.9580078125 226.364257812 27.9580078125 c 0
 199.731445312 27.9580078125 176.639648438 31.9248046875 157.08984375 39.857421875 c 0
 137.540039062 47.791015625 122.522460938 57.8486328125 112.040039062 70.0322265625 c 0
 101.556640625 82.21484375 93.6240234375 96.806640625 88.240234375 113.806640625 c 0
 83.1259765625 129.958007812 80.5693359375 146.236328125 80.5693359375 162.642578125 c 0
 80.5693359375 172.08984375 81.2734375 192.338867188 86.9658203125 218.35546875 c 0
 91.4990234375 237.623046875 100.848632812 258.305664062 115.015625 280.40625 c 0
 129.182617188 302.505859375 147.032226562 322.90625 168.565429688 341.60546875 c 0
 190.098632812 360.305664062 212.198242188 373.338867188 234.865234375 380.706054688 c 1
 209.932617188 394.873046875 192.365234375 413.430664062 182.166015625 436.380859375 c 0
 175.608398438 451.134765625 172.330078125 466.063476562 172.330078125 481.168945312 c 0
 172.330078125 489.559570312 173.341796875 498.005859375 175.365234375 506.505859375 c 0
 177.065429688 513.305664062 179.190429688 520.53125 181.740234375 528.180664062 c 0
 184.291015625 535.831054688 188.3984375 544.897460938 194.065429688 555.380859375 c 0
 199.732421875 565.864257812 206.107421875 575.921875 213.190429688 585.5546875 c 0
 220.2734375 595.188476562 229.198242188 604.6796875 239.965820312 614.030273438 c 0
 250.732421875 623.379882812 262.490234375 631.596679688 275.240234375 638.6796875 c 0
 287.990234375 645.762695312 303.1484375 651.4296875 320.715820312 655.6796875 c 0
 338.282226562 659.9296875 356.982421875 662.0546875 376.815429688 662.0546875 c 0
 397.215820312 662.0546875 415.20703125 659.9296875 430.791015625 655.6796875 c 0
 446.374023438 651.4296875 459.124023438 645.762695312 469.041015625 638.6796875 c 0
 478.95703125 631.596679688 487.032226562 623.379882812 493.265625 614.030273438 c 0
 499.499023438 604.6796875 504.03125 595.188476562 506.864257812 585.5546875 c 0
 509.698242188 575.921875 511.397460938 565.721679688 511.96484375 554.955078125 c 0
 512.19140625 550.6484375 512.3046875 546.546875 512.3046875 542.647460938 c 0
 512.3046875 536.798828125 512.049804688 531.41015625 511.540039062 526.479492188 c 0
 510.689453125 518.262695312 509.415039062 510.470703125 507.71484375 503.103515625 c 0
 506.014648438 496.303710938 503.606445312 489.50390625 500.489257812 482.703125 c 0
 497.373046875 475.903320312 493.97265625 469.953125 490.290039062 464.853515625 c 0
 486.606445312 459.75390625 481.931640625 454.370117188 476.264648438 448.703125 c 0
 470.59765625 443.036132812 465.498046875 438.219726562 460.96484375 434.252929688 c 0
 456.431640625 430.286132812 450.624023438 425.752929688 443.541015625 420.65234375 c 0
 436.45703125 415.552734375 430.791015625 411.727539062 426.541015625 409.177734375 c 0
 422.291015625 406.627929688 416.624023438 403.0859375 409.541015625 398.552734375 c 0
 402.45703125 394.01953125 397.499023438 390.90234375 394.666015625 389.202148438 c 1
 412.233398438 380.135742188 427.108398438 369.935546875 439.291015625 358.602539062 c 0
 451.474609375 347.26953125 460.541015625 336.077148438 466.491210938 325.02734375 c 0
 472.44140625 313.977539062 476.69140625 302.219726562 479.241210938 289.752929688 c 0
 481.327148438 279.552734375 482.37109375 270.20703125 482.37109375 261.713867188 c 0
 482.37109375 259.826171875 482.319335938 257.98046875 482.216796875 256.176757812 c 0
 481.649414062 246.259765625 480.232421875 235.91796875 477.965820312 225.151367188 c 0
250.165039062 509.0546875 m 0
 248.975585938 504.151367188 248.381835938 499.392578125 248.381835938 494.78125 c 0
 248.381835938 481.807617188 253.084960938 469.991210938 262.491210938 459.330078125 c 0
 275.241210938 444.879882812 298.616210938 430.288085938 332.616210938 415.5546875 c 1
 356.983398438 425.188476562 379.508789062 438.221679688 400.19140625 454.654296875 c 0
 420.874023438 471.086914062 432.6328125 486.387695312 435.465820312 500.5546875 c 0
 436.921875 507.354492188 437.651367188 514.1015625 437.651367188 520.797851562 c 0
 437.651367188 529.725585938 436.356445312 538.561523438 433.765625 547.3046875 c 0
 429.232421875 562.604492188 420.590820312 575.354492188 407.840820312 585.5546875 c 0
 395.090820312 595.75390625 379.932617188 600.854492188 362.365234375 600.854492188 c 0
 337.999023438 600.854492188 314.481445312 591.362304688 291.814453125 572.37890625 c 0
 269.147460938 553.396484375 255.264648438 532.288085938 250.165039062 509.0546875 c 0
246.766601562 101.0546875 m 0
 262.06640625 101.0546875 277.932617188 103.458984375 294.365234375 108.276367188 c 0
 310.798828125 113.092773438 326.240234375 120.03515625 340.690429688 129.1015625 c 0
 355.140625 138.168945312 367.890625 150.068359375 378.940429688 164.801757812 c 0
 389.990234375 179.53515625 397.499023438 195.118164062 401.465820312 211.55078125 c 0
 402.954101562 217.502929688 405.333007812 228.759765625 405.333007812 239.978515625 c 0
 405.333007812 247.603515625 404.185546875 256.26171875 401.890625 265.952148438 c 0
 399.340820312 276.719726562 394.948242188 286.63671875 388.715820312 295.703125 c 0
 382.482421875 304.770507812 373.1328125 314.262695312 360.666015625 324.1796875 c 0
 348.198242188 334.096679688 332.615234375 343.021484375 313.916015625 350.954101562 c 1
 273.115234375 340.1875 237.982421875 321.487304688 208.515625 294.854492188 c 0
 179.048828125 268.221679688 160.631835938 239.887695312 153.264648438 209.85546875 c 0
 151.311523438 201.825195312 150.334960938 194.0859375 150.334960938 186.637695312 c 0
 150.334960938 174.638671875 152.869140625 163.393554688 157.939453125 152.905273438 c 0
 166.15625 135.905273438 178.198242188 123.012695312 194.065429688 114.23046875 c 0
 209.932617188 105.447265625 227.499023438 101.0546875 246.766601562 101.0546875 c 0
EndSplineSet
Validated: 1
EndChar

StartChar: nine
Encoding: 57 57 36
Width: 548
VWidth: 903
GlyphClass: 2
Flags: HMW
HStem: 35.0464 67.9967<127.76 127.76> 253.495 75.65<235.144 295.777> 610.492 71.4042<353.577 356.692>
LayerCount: 2
Fore
SplineSet
127.760742188 35.046875 m 0
 125.383789062 34.8310546875 123.08984375 34.72265625 120.877929688 34.72265625 c 0
 111.486328125 34.72265625 103.579101562 36.6689453125 97.158203125 40.568359375 c 0
 90.2158203125 44.783203125 86.7451171875 51.2763671875 86.7451171875 60.046875 c 0
 86.7451171875 66.0302734375 87.4248046875 74.658203125 101.409179688 86.8935546875 c 0
 110.475585938 94.8271484375 119.54296875 100.209960938 128.609375 103.04296875 c 0
 134.842773438 104.743164062 144.759765625 107.009765625 158.359375 109.842773438 c 0
 171.959960938 112.67578125 184.28515625 115.651367188 195.334960938 118.768554688 c 0
 206.384765625 121.884765625 218.993164062 125.993164062 233.16015625 131.092773438 c 0
 247.326171875 136.193359375 261.3515625 143.276367188 275.234375 152.342773438 c 0
 289.118164062 161.41015625 302.859375 172.176757812 316.459960938 184.643554688 c 0
 333.459960938 201.077148438 349.609375 220.202148438 364.91015625 242.018554688 c 0
 380.209960938 263.8359375 391.54296875 283.528320312 398.91015625 301.094726562 c 1
 380.209960938 282.961914062 358.676757812 270.495117188 334.309570312 263.694335938 c 0
 309.942382812 256.89453125 280.759765625 253.495117188 246.759765625 253.495117188 c 0
 223.526367188 253.495117188 202.701171875 259.302734375 184.28515625 270.919921875 c 0
 165.868164062 282.537109375 151.559570312 297.978515625 141.359375 317.24609375 c 0
 131.16015625 336.512695312 124.642578125 358.754882812 121.809570312 383.971679688 c 0
 120.865234375 392.375976562 120.393554688 400.829101562 120.393554688 409.328125 c 0
 120.393554688 426.329101562 122.282226562 443.518554688 126.060546875 460.897460938 c 0
 133.427734375 492.629882812 145.185546875 522.23828125 161.3359375 549.721679688 c 0
 177.485351562 577.204101562 196.185546875 600.579101562 217.435546875 619.846679688 c 0
 238.685546875 639.11328125 262.34375 654.271484375 288.41015625 665.321289062 c 0
 314.477539062 676.37109375 340.543945312 681.896484375 366.611328125 681.896484375 c 0
 431.2109375 681.896484375 473.286132812 655.546875 492.8359375 602.846679688 c 0
 501.65234375 579.080078125 506.061523438 550.645507812 506.061523438 517.543945312 c 0
 506.061523438 477.24609375 499.52734375 430.030273438 486.4609375 375.896484375 c 0
 475.694335938 330.563476562 461.102539062 289.62109375 442.685546875 253.071289062 c 0
 424.268554688 216.521484375 403.7265625 185.49609375 381.059570312 159.99609375 c 0
 358.392578125 134.49609375 333.03515625 112.6796875 304.984375 94.546875 c 0
 276.934570312 76.4130859375 248.317382812 62.671875 219.134765625 53.3212890625 c 0
 189.951171875 43.9716796875 159.493164062 37.8798828125 127.760742188 35.046875 c 0
205.958007812 471.092773438 m 0
 201.087890625 450.075195312 198.653320312 431.348632812 198.653320312 414.91015625 c 0
 198.653320312 395.006835938 202.223632812 378.459960938 209.361328125 365.26953125 c 0
 222.39453125 341.186523438 247.327148438 329.14453125 284.16015625 329.14453125 c 0
 307.393554688 329.14453125 331.4765625 334.811523438 356.41015625 346.14453125 c 0
 381.342773438 357.477539062 402.592773438 373.060546875 420.16015625 392.893554688 c 1
 424.692382812 409.327148438 429.79296875 434.259765625 435.459960938 467.693359375 c 0
 436.734375 477.04296875 437.372070312 486.471679688 437.372070312 495.981445312 c 0
 437.372070312 499.151367188 437.301757812 502.331054688 437.16015625 505.518554688 c 0
 436.592773438 518.268554688 434.326171875 531.16015625 430.358398438 544.193359375 c 0
 426.391601562 557.2265625 421.150390625 568.559570312 414.6328125 578.192382812 c 0
 408.116210938 587.825195312 399.19140625 595.6171875 387.858398438 601.567382812 c 0
 376.525390625 607.517578125 363.775390625 610.4921875 349.608398438 610.4921875 c 0
 329.775390625 610.4921875 309.799804688 603.692382812 289.682617188 590.092773438 c 0
 269.56640625 576.4921875 251.858398438 559.067382812 236.557617188 537.817382812 c 0
 221.2578125 516.567382812 211.057617188 494.325195312 205.958007812 471.092773438 c 0
EndSplineSet
Validated: 1
EndChar

StartChar: colon
Encoding: 58 58 37
Width: 548
VWidth: 887
GlyphClass: 2
Flags: HMW
VStem: 214.457 164.047
LayerCount: 2
Fore
SplineSet
378.502929688 392.092773438 m 0
 375.669921875 373.392578125 369.15625 353.556640625 358.95703125 332.58984375 c 0
 353.856445312 321.256835938 346.20703125 312.615234375 336.006835938 306.665039062 c 0
 326.694335938 301.233398438 318.08984375 298.515625 310.193359375 298.515625 c 0
 309.44140625 298.515625 308.696289062 298.541015625 307.95703125 298.58984375 c 0
 279.85546875 300.123046875 265.805664062 310.868164062 265.805664062 330.828125 c 0
 265.805664062 333.005859375 265.97265625 335.293945312 266.306640625 337.690429688 c 0
 268.573242188 352.990234375 272.541015625 372.540039062 278.208007812 396.33984375 c 0
 279.907226562 403.70703125 283.307617188 409.798828125 288.407226562 414.616210938 c 0
 293.5078125 419.432617188 299.174804688 422.974609375 305.407226562 425.241210938 c 0
 311.640625 427.508789062 317.448242188 428.92578125 322.83203125 429.4921875 c 0
 328.21484375 430.059570312 333.740234375 430.342773438 339.40625 430.342773438 c 0
 343.939453125 430.342773438 348.47265625 429.775390625 353.005859375 428.642578125 c 0
 357.5390625 427.509765625 362.072265625 425.666992188 366.60546875 423.1171875 c 0
 371.137695312 420.567382812 374.396484375 416.600585938 376.37890625 411.217773438 c 0
 378.362304688 405.833984375 379.0703125 399.458984375 378.502929688 392.092773438 c 0
326.65625 165.139648438 m 0
 325.5234375 145.306640625 319.857421875 124.903320312 309.657226562 103.936523438 c 0
 304.557617188 92.603515625 296.057617188 84.2451171875 284.157226562 78.8623046875 c 0
 273.391601562 73.9921875 263.78515625 71.556640625 255.337890625 71.556640625 c 0
 254.448242188 71.556640625 253.571289062 71.583984375 252.708007812 71.638671875 c 0
 241.940429688 72.205078125 232.448242188 75.7470703125 224.231445312 82.263671875 c 0
 217.423828125 87.6640625 214.01953125 94.9111328125 214.01953125 104.006835938 c 0
 214.01953125 105.887695312 214.165039062 107.848632812 214.45703125 109.888671875 c 0
 216.723632812 121.7890625 218.140625 129.296875 218.708007812 132.4140625 c 0
 219.274414062 135.53125 220.833007812 141.338867188 223.3828125 149.838867188 c 0
 225.932617188 158.338867188 227.774414062 164.856445312 228.907226562 169.388671875 c 0
 230.607421875 176.189453125 233.865234375 182.138671875 238.682617188 187.239257812 c 0
 243.499023438 192.338867188 248.8828125 195.880859375 254.833007812 197.864257812 c 0
 260.782226562 199.84765625 266.44921875 201.263671875 271.833007812 202.114257812 c 0
 277.215820312 202.963867188 282.458007812 203.388671875 287.557617188 203.388671875 c 0
 293.791015625 203.388671875 299.740234375 202.397460938 305.407226562 200.4140625 c 0
 311.07421875 198.430664062 316.174804688 194.323242188 320.708007812 188.08984375 c 0
 325.240234375 181.856445312 327.223632812 174.20703125 326.65625 165.139648438 c 0
EndSplineSet
Validated: 1
EndChar

StartChar: semicolon
Encoding: 59 59 38
Width: 548
VWidth: 864
GlyphClass: 2
Flags: HMW
VStem: 169.404 255.845
LayerCount: 2
Fore
SplineSet
425.249023438 333.322265625 m 0
 422.416015625 314.623046875 415.620117188 294.7890625 404.852539062 273.822265625 c 0
 399.752929688 262.489257812 392.102539062 253.846679688 381.903320312 247.896484375 c 0
 372.58984375 242.46484375 364.22265625 239.748046875 356.798828125 239.748046875 c 0
 356.091796875 239.748046875 355.392578125 239.772460938 354.703125 239.822265625 c 0
 347.903320312 240.388671875 341.245117188 241.947265625 334.727539062 244.497070312 c 0
 328.2109375 247.046875 322.543945312 251.438476562 317.7265625 257.671875 c 0
 312.91015625 263.905273438 311.068359375 271.271484375 312.201171875 279.771484375 c 0
 314.467773438 295.072265625 319.000976562 314.622070312 325.80078125 338.421875 c 0
 327.500976562 345.221679688 330.758789062 351.171875 335.576171875 356.271484375 c 0
 340.393554688 361.372070312 345.91796875 364.9140625 352.151367188 366.896484375 c 0
 358.383789062 368.879882812 364.333984375 370.296875 370.000976562 371.146484375 c 0
 375.66796875 371.997070312 380.768554688 372.138671875 385.30078125 371.572265625 c 0
 390.401367188 371.572265625 395.217773438 371.146484375 399.750976562 370.296875 c 0
 404.284179688 369.447265625 408.817382812 367.604492188 413.350585938 364.771484375 c 0
 417.883789062 361.938476562 421.141601562 357.831054688 423.125 352.447265625 c 0
 425.107421875 347.064453125 425.815429688 340.689453125 425.249023438 333.322265625 c 0
350.453125 77.4716796875 m 0
 344.786132812 59.3388671875 310.50390625 -14.6123046875 247.603515625 -144.37890625 c 0
 241.936523438 -156.279296875 234.711914062 -164.920898438 225.928710938 -170.303710938 c 0
 217.982421875 -175.173828125 210.15234375 -177.609375 202.4375 -177.609375 c 0
 201.625 -177.609375 200.813476562 -177.58203125 200.00390625 -177.528320312 c 0
 189.236328125 -176.9609375 180.454101562 -173.278320312 173.653320312 -166.478515625 c 0
 169.358398438 -162.18359375 167.211914062 -156.872070312 167.211914062 -150.541992188 c 0
 167.211914062 -146.850585938 167.942382812 -142.8125 169.403320312 -138.427734375 c 0
 173.37109375 -124.828125 186.545898438 -91.677734375 208.928710938 -38.978515625 c 0
 231.311523438 13.7216796875 248.736328125 53.955078125 261.204101562 81.7216796875 c 0
 265.170898438 90.2216796875 269.278320312 97.021484375 273.528320312 102.122070312 c 0
 277.778320312 107.221679688 281.88671875 110.622070312 285.853515625 112.322265625 c 0
 289.8203125 114.021484375 294.0703125 115.155273438 298.603515625 115.721679688 c 0
 303.13671875 116.2890625 307.103515625 116.2890625 310.50390625 115.721679688 c 0
 315.603515625 115.721679688 320.704101562 115.013671875 325.803710938 113.596679688 c 0
 330.903320312 112.1796875 335.861328125 110.197265625 340.678710938 107.646484375 c 0
 345.49609375 105.096679688 348.895507812 101.271484375 350.87890625 96.171875 c 0
 352.861328125 91.072265625 352.719726562 84.8388671875 350.453125 77.4716796875 c 0
EndSplineSet
Validated: 1
EndChar

StartChar: less
Encoding: 60 60 39
Width: 548
VWidth: 902
GlyphClass: 2
Flags: W
LayerCount: 2
Fore
SplineSet
395.516601562 64.4111328125 m 0
 391.549804688 58.744140625 386.592773438 53.9287109375 380.642578125 49.9619140625 c 0
 374.692382812 45.994140625 367.041992188 43.4443359375 357.692382812 42.3115234375 c 0
 355.823242188 42.0849609375 353.913085938 41.9716796875 351.963867188 41.9716796875 c 0
 344.166015625 41.9716796875 335.734375 43.78515625 326.666992188 47.4111328125 c 0
 314.767578125 51.9443359375 300.884765625 61.861328125 285.017578125 77.1611328125 c 0
 269.150390625 92.4619140625 252.43359375 110.736328125 234.866210938 131.986328125 c 0
 217.299804688 153.236328125 200.016601562 174.911132812 183.016601562 197.01171875 c 0
 166.016601562 219.111328125 148.024414062 241.919921875 129.041992188 265.436523438 c 0
 110.05859375 288.953125 93.4833984375 307.228515625 79.31640625 320.26171875 c 0
 73.6494140625 325.361328125 70.81640625 333.01171875 70.81640625 343.211914062 c 0
 70.81640625 353.411132812 73.224609375 363.186523438 78.0419921875 372.536132812 c 0
 82.8583984375 381.88671875 88.9501953125 388.544921875 96.3173828125 392.51171875 c 0
 131.450195312 416.311523438 173.525390625 446.203125 222.541992188 482.186523438 c 0
 271.559570312 518.169921875 316.184570312 550.752929688 356.416992188 579.935546875 c 0
 396.650390625 609.119140625 431.783203125 632.2109375 461.81640625 649.2109375 c 0
 471.44921875 654.877929688 479.94921875 657.852539062 487.31640625 658.135742188 c 0
 494.68359375 658.418945312 500.633789062 657.001953125 505.166992188 653.884765625 c 0
 509.69921875 650.767578125 513.241210938 646.943359375 515.791992188 642.41015625 c 0
 518.341796875 637.876953125 520.18359375 633.059570312 521.31640625 627.959960938 c 0
 521.8203125 625.819335938 522.072265625 623.670898438 522.072265625 621.515625 c 0
 522.072265625 613.974609375 518.987304688 606.34765625 512.817382812 598.634765625 c 0
 504.884765625 588.717773438 490.434570312 576.959960938 469.467773438 563.360351562 c 0
 434.900390625 541.259765625 381.633789062 504.993164062 309.666992188 454.559570312 c 0
 237.69921875 404.126953125 192.083007812 372.110351562 172.815429688 358.509765625 c 1
 189.249023438 341.509765625 207.241210938 320.967773438 226.791015625 296.884765625 c 0
 246.340820312 272.801757812 263.340820312 250.985351562 277.791015625 231.434570312 c 0
 292.241210938 211.884765625 308.249023438 191.91015625 325.815429688 171.509765625 c 0
 343.3828125 151.110351562 359.25 134.959960938 373.416992188 123.059570312 c 0
 387.583984375 111.16015625 396.366210938 100.818359375 399.766601562 92.03515625 c 0
 400.966796875 88.935546875 401.56640625 85.7822265625 401.56640625 82.5771484375 c 0
 401.56640625 76.69921875 399.549804688 70.6435546875 395.516601562 64.4111328125 c 0
EndSplineSet
Validated: 1
EndChar

StartChar: equal
Encoding: 61 61 40
Width: 548
VWidth: 908
GlyphClass: 2
Flags: HMW
HStem: 268.077 70.55<149.286 173.653> 434.679 72.2508
LayerCount: 2
Fore
SplineSet
210.204101562 506.9296875 m 0
 240.237304688 505.796875 270.978515625 505.2265625 302.427734375 505.2265625 c 0
 333.877929688 505.2265625 363.486328125 505.509765625 391.252929688 506.077148438 c 0
 419.01953125 506.643554688 435.737304688 506.926757812 441.404296875 506.926757812 c 0
 453.87109375 506.926757812 461.803710938 504.09375 465.204101562 498.426757812 c 0
 468.603515625 492.759765625 469.454101562 485.109375 467.75390625 475.4765625 c 0
 466.62109375 470.376953125 465.204101562 465.702148438 463.50390625 461.452148438 c 0
 461.803710938 457.202148438 459.25390625 453.09375 455.853515625 449.126953125 c 0
 452.454101562 445.16015625 448.204101562 442.184570312 443.103515625 440.202148438 c 0
 438.00390625 438.21875 432.336914062 437.510742188 426.103515625 438.077148438 c 0
 413.630859375 438.456054688 400.591796875 438.64453125 386.984375 438.64453125 c 0
 380.190429688 438.64453125 373.254882812 438.59765625 366.178710938 438.502929688 c 0
 344.928710938 438.220703125 315.74609375 437.512695312 278.62890625 436.37890625 c 0
 241.51171875 435.24609375 214.454101562 434.6796875 197.454101562 434.6796875 c 0
 184.420898438 434.6796875 174.928710938 438.079101562 168.978515625 444.87890625 c 0
 163.029296875 451.6796875 161.186523438 459.896484375 163.454101562 469.529296875 c 0
 165.154296875 480.295898438 170.112304688 489.36328125 178.329101562 496.73046875 c 0
 185.958984375 503.5703125 195.6640625 506.990234375 207.447265625 506.990234375 c 0
 208.353515625 506.990234375 209.272460938 506.970703125 210.204101562 506.9296875 c 0
173.653320312 338.626953125 m 0
 187.466796875 338.4375 202.0703125 338.342773438 217.463867188 338.342773438 c 0
 248.16796875 338.342773438 282.012695312 338.719726562 319.001953125 339.474609375 c 0
 374.53515625 340.607421875 402.584960938 341.173828125 403.15234375 341.173828125 c 0
 415.619140625 341.173828125 423.552734375 338.19921875 426.952148438 332.249023438 c 0
 430.352539062 326.298828125 431.202148438 318.506835938 429.501953125 308.874023438 c 0
 428.369140625 303.774414062 426.811523438 299.099609375 424.828125 294.849609375 c 0
 422.844726562 290.599609375 420.294921875 286.491210938 417.177734375 282.524414062 c 0
 414.061523438 278.557617188 409.953125 275.58203125 404.853515625 273.599609375 c 0
 399.752929688 271.616210938 394.0859375 270.908203125 387.853515625 271.474609375 c 0
 375.379882812 271.853515625 362.21484375 272.041992188 348.35546875 272.041992188 c 0
 341.435546875 272.041992188 334.342773438 271.995117188 327.078125 271.901367188 c 0
 305.260742188 271.618164062 275.510742188 270.91015625 237.828125 269.776367188 c 0
 200.14453125 268.643554688 172.802734375 268.077148438 155.802734375 268.077148438 c 0
 142.76953125 268.077148438 133.844726562 271.619140625 129.028320312 278.702148438 c 0
 125.752929688 283.517578125 124.115234375 289.055664062 124.115234375 295.313476562 c 0
 124.115234375 298.258789062 124.477539062 301.36328125 125.203125 304.626953125 c 0
 126.903320312 314.259765625 132.002929688 322.334960938 140.502929688 328.8515625 c 0
 149.002929688 335.369140625 160.052734375 338.626953125 173.653320312 338.626953125 c 0
EndSplineSet
Validated: 1
EndChar

StartChar: greater
Encoding: 62 62 41
Width: 548
VWidth: 903
GlyphClass: 2
Flags: W
LayerCount: 2
Fore
SplineSet
131.147460938 57.818359375 m 0
 122.081054688 52.7177734375 113.721679688 49.884765625 106.071289062 49.3173828125 c 0
 98.421875 48.75 92.330078125 50.025390625 87.796875 53.142578125 c 0
 83.263671875 56.259765625 79.7216796875 60.083984375 77.171875 64.6171875 c 0
 74.6220703125 69.150390625 72.7802734375 73.9677734375 71.646484375 79.0673828125 c 0
 71.142578125 81.2080078125 70.8916015625 83.3564453125 70.8916015625 85.51171875 c 0
 70.8916015625 93.052734375 73.9755859375 100.6796875 80.1455078125 108.392578125 c 0
 88.0791015625 118.309570312 102.8125 130.067382812 124.344726562 143.666992188 c 0
 158.912109375 165.767578125 212.037109375 202.034179688 283.719726562 252.467773438 c 0
 355.403320312 302.900390625 401.161132812 334.916992188 420.994140625 348.517578125 c 1
 404.561523438 365.517578125 386.427734375 386.059570312 366.594726562 410.142578125 c 0
 346.76171875 434.225585938 329.478515625 456.041992188 314.74609375 475.592773438 c 0
 300.012695312 495.142578125 284.004882812 515.1171875 266.721679688 535.517578125 c 0
 249.438476562 555.916992188 233.713867188 572.067382812 219.546875 583.967773438 c 0
 205.379882812 595.8671875 196.596679688 606.208984375 193.196289062 614.9921875 c 0
 191.99609375 618.091796875 191.397460938 621.245117188 191.397460938 624.450195312 c 0
 191.397460938 630.328125 193.413085938 636.383789062 197.446289062 642.616210938 c 0
 201.4140625 648.283203125 206.372070312 653.100585938 212.321289062 657.067382812 c 0
 218.271484375 661.034179688 225.921875 663.583984375 235.271484375 664.717773438 c 0
 237.140625 664.944335938 239.05078125 665.056640625 241 665.056640625 c 0
 248.797851562 665.056640625 257.229492188 663.244140625 266.296875 659.6171875 c 0
 278.196289062 655.083984375 292.221679688 645.309570312 308.372070312 630.291992188 c 0
 324.521484375 615.275390625 341.23828125 597 358.521484375 575.467773438 c 0
 375.8046875 553.934570312 392.946289062 532.1171875 409.946289062 510.017578125 c 0
 426.946289062 487.916992188 444.938476562 465.25 463.921875 442.017578125 c 0
 482.905273438 418.784179688 499.762695312 400.3671875 514.49609375 386.767578125 c 0
 519.595703125 381.666992188 522.00390625 374.017578125 521.720703125 363.817382812 c 0
 521.4375 353.6171875 519.030273438 343.842773438 514.497070312 334.4921875 c 0
 509.963867188 325.142578125 504.013671875 318.484375 496.646484375 314.517578125 c 0
 461.513671875 290.717773438 419.438476562 260.825195312 370.421875 224.842773438 c 0
 321.405273438 188.859375 276.780273438 156.276367188 236.546875 127.092773438 c 0
 196.313476562 97.91015625 161.180664062 74.818359375 131.147460938 57.818359375 c 0
EndSplineSet
Validated: 1
EndChar

StartChar: question
Encoding: 63 63 42
Width: 548
VWidth: 903
GlyphClass: 2
Flags: HMW
HStem: 41.1543 130.898 595.357 71.4009<317.867 328.631>
VStem: 126.051 128.35 190.649 80.7508
LayerCount: 2
Fore
SplineSet
271.399414062 275.7578125 m 0xd0
 265.733398438 261.024414062 258.223632812 249.688476562 248.874023438 241.754882812 c 0
 242.640625 236.466796875 235.462890625 233.822265625 227.341796875 233.822265625 c 0
 223.280273438 233.822265625 218.983398438 234.483398438 214.44921875 235.805664062 c 0
 200.848632812 239.772460938 192.916015625 247.139648438 190.649414062 257.907226562 c 0
 190.171875 260.173828125 189.93359375 262.603515625 189.93359375 265.197265625 c 0
 189.93359375 274.921875 193.2890625 286.94140625 199.999023438 301.256835938 c 0
 207.366210938 316.556640625 216.149414062 331.006835938 226.348632812 344.606445312 c 0
 236.548828125 358.20703125 246.890625 369.823242188 257.374023438 379.45703125 c 0
 267.857421875 389.08984375 278.765625 398.297851562 290.098632812 407.081054688 c 0
 301.431640625 415.864257812 312.198242188 424.081054688 322.3984375 431.73046875 c 0
 332.598632812 439.380859375 342.08984375 447.172851562 350.873046875 455.10546875 c 0
 359.65625 463.0390625 367.1640625 471.680664062 373.397460938 481.03125 c 0
 379.630859375 490.380859375 383.880859375 500.439453125 386.147460938 511.206054688 c 0
 388.512695312 521.455078125 389.6953125 530.727539062 389.6953125 539.0234375 c 0
 389.6953125 554.577148438 385.537109375 566.696289062 377.22265625 575.381835938 c 0
 364.47265625 588.698242188 343.364257812 595.356445312 313.897460938 595.356445312 c 0
 306.530273438 595.356445312 298.59765625 593.514648438 290.09765625 589.83203125 c 0
 281.59765625 586.1484375 274.23046875 582.041015625 267.997070312 577.5078125 c 0
 261.764648438 572.974609375 254.5390625 566.8828125 246.322265625 559.232421875 c 0
 238.10546875 551.583007812 231.73046875 545.065429688 227.197265625 539.682617188 c 0
 222.6640625 534.299804688 217.28125 527.924804688 211.047851562 520.557617188 c 0
 204.815429688 513.190429688 199.006835938 507.3828125 193.624023438 503.1328125 c 0
 188.241210938 498.8828125 183.283203125 496.615234375 178.75 496.333007812 c 0
 174.216796875 496.049804688 170.108398438 496.333007812 166.42578125 497.182617188 c 0
 162.7421875 498.032226562 158.067382812 499.875 152.400390625 502.708007812 c 0
 144.467773438 507.807617188 140.642578125 515.174804688 140.92578125 524.807617188 c 0
 141.208984375 534.440429688 146.451171875 546.907226562 156.650390625 562.208007812 c 0
 165.150390625 574.107421875 174.784179688 585.583007812 185.55078125 596.6328125 c 0
 196.317382812 607.682617188 209.067382812 618.732421875 223.80078125 629.782226562 c 0
 238.534179688 640.833007812 254.966796875 649.7578125 273.099609375 656.557617188 c 0
 291.233398438 663.357421875 309.083007812 666.7578125 326.649414062 666.7578125 c 0
 383.8828125 666.7578125 423.974609375 652.590820312 446.924804688 624.2578125 c 0
 461.5625 606.186523438 468.880859375 582.353515625 468.880859375 552.756835938 c 0
 468.880859375 535.94921875 466.520507812 517.283203125 461.799804688 496.7578125 c 0
 458.399414062 481.458007812 452.875 467.57421875 445.224609375 455.107421875 c 0
 437.575195312 442.640625 429.075195312 431.874023438 419.724609375 422.806640625 c 0
 410.375 413.740234375 400.174804688 405.240234375 389.125 397.306640625 c 0
 378.075195312 389.374023438 366.8828125 381.440429688 355.549804688 373.5078125 c 0
 344.216796875 365.57421875 333.30859375 357.357421875 322.826171875 348.857421875 c 0
 312.342773438 340.357421875 302.567382812 329.732421875 293.500976562 316.982421875 c 0
 284.43359375 304.232421875 277.06640625 290.490234375 271.399414062 275.7578125 c 0xd0
177.048828125 41.154296875 m 0
 174.184570312 40.8359375 171.431640625 40.6767578125 168.791015625 40.6767578125 c 0
 152.624023438 40.6767578125 140.645507812 46.6416015625 132.8515625 58.576171875 c 0
 126.806640625 67.8310546875 123.784179688 78.158203125 123.784179688 89.5546875 c 0
 123.784179688 95.2529296875 124.540039062 101.217773438 126.05078125 107.451171875 c 0
 130.017578125 125.017578125 140.217773438 140.03515625 156.650390625 152.501953125 c 0
 173.083984375 164.96875 189.80078125 171.485351562 206.80078125 172.052734375 c 0
 207.6328125 172.077148438 208.454101562 172.090820312 209.265625 172.090820312 c 0
 226.712890625 172.090820312 239.6328125 166.26953125 248.025390625 154.62890625 c 0
 253.818359375 146.592773438 256.715820312 137.139648438 256.715820312 126.267578125 c 0
 256.715820312 120.657226562 255.943359375 114.668945312 254.400390625 108.303710938 c 0xe0
 250.43359375 90.169921875 241.3671875 75.0126953125 227.200195312 62.8291015625 c 0
 213.033203125 50.646484375 196.31640625 43.4208984375 177.048828125 41.154296875 c 0
EndSplineSet
Validated: 1
EndChar

StartChar: at
Encoding: 64 64 43
Width: 548
VWidth: 893
GlyphClass: 2
Flags: HMW
HStem: -66.6135 72.2467<193.812 234.894> 129.738 66.2958<364.662 401.211> 143.338 67.995<263.511 270.595> 564.081 76.5066<375.427 378.545>
VStem: 66.1686 72.6758 335.195 68.85 463.12 64.1741
LayerCount: 2
Fore
SplineSet
404.040039062 47.2861328125 m 0xde
 399.506835938 39.353515625 394.98046875 32.4111328125 390.447265625 26.4609375 c 0
 385.9140625 20.5107421875 380.247070312 13.1435546875 373.447265625 4.3603515625 c 0
 366.646484375 -4.4228515625 359.563476562 -11.9306640625 352.197265625 -18.1630859375 c 0
 344.830078125 -24.396484375 336.046875 -30.771484375 325.846679688 -37.2880859375 c 0
 315.646484375 -43.8056640625 304.879882812 -49.1884765625 293.546875 -53.4384765625 c 0
 282.213867188 -57.6884765625 269.0390625 -61.0888671875 254.021484375 -63.638671875 c 0
 241.736328125 -65.724609375 229.165039062 -66.767578125 216.309570312 -66.767578125 c 0
 213.453125 -66.767578125 210.581054688 -66.716796875 207.696289062 -66.61328125 c 0
 179.928710938 -66.61328125 155.5625 -59.24609375 134.595703125 -44.513671875 c 0
 113.627929688 -29.7802734375 97.3359375 -9.23828125 85.7197265625 17.111328125 c 0
 74.1025390625 43.4619140625 67.5859375 75.478515625 66.1689453125 113.161132812 c 0
 65.99609375 117.7578125 65.9091796875 122.40625 65.9091796875 127.107421875 c 0
 65.9091796875 160.953125 70.3876953125 197.530273438 79.34375 236.836914062 c 0
 91.2431640625 286.703125 105.693359375 333.169921875 122.693359375 376.237304688 c 0
 139.693359375 419.3046875 158.53515625 456.846679688 179.21875 488.86328125 c 0
 199.901367188 520.879882812 221.71875 548.36328125 244.668945312 571.313476562 c 0
 267.618164062 594.263671875 291.276367188 611.545898438 315.643554688 623.163085938 c 0
 340.010742188 634.780273438 363.810546875 640.587890625 387.043945312 640.587890625 c 0
 404.610351562 640.587890625 420.3359375 639.030273438 434.21875 635.913085938 c 0
 448.1015625 632.795898438 460.993164062 627.696289062 472.893554688 620.61328125 c 0
 484.793945312 613.530273438 494.426757812 604.038085938 501.793945312 592.138671875 c 0
 509.16015625 580.23828125 515.252929688 565.36328125 520.069335938 547.513671875 c 0
 524.88671875 529.663085938 527.294921875 508.837890625 527.294921875 485.038085938 c 0
 527.294921875 461.23828125 525.02734375 433.188476562 520.494140625 400.888671875 c 0
 515.9609375 368.587890625 509.161132812 332.321289062 500.094726562 292.087890625 c 0
 495.561523438 271.688476562 489.752929688 252.280273438 482.669921875 233.86328125 c 0
 475.586914062 215.446289062 467.229492188 198.163085938 457.595703125 182.013671875 c 0
 447.962890625 165.86328125 436.771484375 153.11328125 424.021484375 143.763671875 c 0
 411.271484375 134.413085938 397.813476562 129.73828125 383.646484375 129.73828125 c 0xde
 351.033203125 129.73828125 334.727539062 147.298828125 334.727539062 182.420898438 c 0
 334.727539062 188.186523438 335.166015625 194.42578125 336.044921875 201.138671875 c 1
 315.078125 162.60546875 287.595703125 143.337890625 253.595703125 143.337890625 c 0
 222.428710938 143.337890625 200.611328125 153.821289062 188.14453125 174.788085938 c 0
 181.288085938 186.319335938 177.859375 201.194335938 177.859375 219.411132812 c 0
 177.859375 234.31640625 180.154296875 251.458007812 184.744140625 270.838867188 c 0
 189.844726562 292.372070312 196.64453125 312.205078125 205.14453125 330.337890625 c 0
 213.64453125 348.471679688 223.13671875 363.913085938 233.619140625 376.663085938 c 0
 244.102539062 389.413085938 255.577148438 400.1796875 268.044921875 408.962890625 c 0
 280.51171875 417.74609375 293.119140625 423.979492188 305.869140625 427.662109375 c 0
 316.918945312 430.853515625 327.967773438 432.450195312 339.016601562 432.450195312 c 0
 344.119140625 432.336914062 l 0
 356.869140625 431.76953125 368.911132812 428.65234375 380.244140625 422.985351562 c 0
 391.577148438 417.885742188 399.794921875 411.0859375 404.89453125 402.5859375 c 0
 409.994140625 394.0859375 409.994140625 386.435546875 404.89453125 379.635742188 c 0
 402.061523438 375.102539062 398.944335938 371.419921875 395.544921875 368.586914062 c 0
 392.14453125 365.75390625 388.4609375 363.770507812 384.494140625 362.637695312 c 0
 380.52734375 361.50390625 376.985351562 360.654296875 373.868164062 360.086914062 c 0
 370.751953125 359.520507812 366.78515625 359.662109375 361.967773438 360.512695312 c 0
 357.150390625 361.362304688 353.467773438 362.0703125 350.91796875 362.637695312 c 0
 348.368164062 363.204101562 344.826171875 364.336914062 340.29296875 366.037109375 c 0
 334.059570312 367.169921875 327.401367188 367.453125 320.318359375 366.88671875 c 0
 313.235351562 366.319335938 306.15234375 363.911132812 299.069335938 359.661132812 c 0
 291.986328125 355.411132812 285.186523438 350.028320312 278.669921875 343.51171875 c 0
 272.15234375 336.994140625 266.202148438 328.352539062 260.819335938 317.5859375 c 0
 255.436523438 306.818359375 251.044921875 294.635742188 247.64453125 281.036132812 c 0
 245.944335938 273.668945312 244.811523438 266.7265625 244.244140625 260.209960938 c 0
 243.677734375 253.693359375 243.53515625 246.326171875 243.818359375 238.109375 c 0
 244.1015625 229.892578125 246.2265625 223.375 250.193359375 218.55859375 c 0
 254.16015625 213.741210938 259.827148438 211.333007812 267.194335938 211.333007812 c 0xbe
 283.627929688 211.333007812 296.944335938 218.275390625 307.14453125 232.158203125 c 0
 317.344726562 246.041015625 326.694335938 269.1328125 335.194335938 301.43359375 c 0
 337.4609375 310.5 345.9609375 317.8671875 360.694335938 323.534179688 c 0
 369.880859375 327.142578125 377.926757812 328.947265625 384.833984375 328.947265625 c 0
 389.857421875 328.947265625 394.27734375 327.9921875 398.095703125 326.083984375 c 0
 404.328125 323.250976562 406.311523438 317.583984375 404.044921875 309.083984375 c 0
 393.844726562 279.05078125 387.611328125 255.67578125 385.344726562 238.958984375 c 0
 384.2109375 230.600585938 383.64453125 223.588867188 383.64453125 217.921875 c 0
 383.64453125 212.254882812 384.2109375 207.93359375 385.344726562 204.958984375 c 0
 387.611328125 199.008789062 392.14453125 196.034179688 398.944335938 196.034179688 c 0
 403.477539062 196.034179688 408.15234375 199.716796875 412.969726562 207.083984375 c 0
 417.786132812 214.451171875 422.178710938 224.083984375 426.145507812 235.984375 c 0
 430.112304688 247.883789062 433.370117188 258.3671875 435.919921875 267.43359375 c 0
 438.470703125 276.500976562 440.595703125 285.284179688 442.294921875 293.784179688 c 0
 449.095703125 322.68359375 454.1953125 349.317382812 457.595703125 373.68359375 c 0
 460.995117188 398.05078125 462.836914062 418.875976562 463.120117188 436.159179688 c 0
 463.1484375 437.88671875 463.163085938 439.596679688 463.163085938 441.290039062 c 0
 463.163085938 456.540039062 462.015625 470.412109375 459.720703125 482.908203125 c 0
 457.169921875 496.791015625 454.336914062 508.124023438 451.220703125 516.907226562 c 0
 448.103515625 525.690429688 443.5703125 533.198242188 437.620117188 539.431640625 c 0
 431.669921875 545.665039062 426.287109375 550.33984375 421.470703125 553.45703125 c 0
 416.653320312 556.573242188 410.845703125 558.981445312 404.044921875 560.681640625 c 0
 397.245117188 562.381835938 392.145507812 563.373046875 388.745117188 563.65625 c 0
 385.345703125 563.939453125 381.095703125 564.08203125 375.995117188 564.08203125 c 0
 355.028320312 564.08203125 333.63671875 556.998046875 311.819335938 542.83203125 c 0
 290.002929688 528.665039062 269.319335938 508.97265625 249.76953125 483.755859375 c 0
 230.219726562 458.5390625 212.0859375 427.23046875 195.369140625 389.831054688 c 0
 178.65234375 352.430664062 165.194335938 311.630859375 154.994140625 267.430664062 c 0
 145.927734375 228.897460938 140.544921875 194.189453125 138.844726562 163.306640625 c 0
 138.380859375 154.884765625 138.1484375 146.905273438 138.1484375 139.3671875 c 0
 138.1484375 119.266601562 139.797851562 102.313476562 143.094726562 88.5078125 c 0
 147.627929688 69.5244140625 154.28515625 53.5166015625 163.068359375 40.4833984375 c 0
 171.8515625 27.4501953125 181.626953125 18.3828125 192.393554688 13.283203125 c 0
 203.16015625 8.18359375 215.060546875 5.6328125 228.09375 5.6328125 c 0
 241.693359375 5.6328125 254.5859375 7.0498046875 266.768554688 9.8828125 c 0
 278.952148438 12.7158203125 289.293945312 16.1162109375 297.793945312 20.0830078125 c 0
 306.293945312 24.0498046875 314.651367188 29.43359375 322.868164062 36.2333984375 c 0
 331.0859375 43.033203125 337.885742188 49.2666015625 343.268554688 54.93359375 c 0
 348.651367188 60.6005859375 354.743164062 67.966796875 361.543945312 77.0341796875 c 0
 364.376953125 81.0009765625 366.78515625 84.1181640625 368.767578125 86.384765625 c 0
 370.750976562 88.6513671875 373.159179688 91.34375 375.9921875 94.4609375 c 0
 378.825195312 97.578125 381.233398438 99.8447265625 383.215820312 101.26171875 c 0
 385.19921875 102.678710938 387.465820312 103.953125 390.016601562 105.086914062 c 0
 392.56640625 106.219726562 395.116210938 106.786132812 397.666015625 106.786132812 c 0
 400.215820312 106.786132812 402.624023438 106.219726562 404.891601562 105.086914062 c 0
 408.858398438 103.38671875 411.833007812 101.26171875 413.81640625 98.7119140625 c 0
 415.798828125 96.1611328125 417.215820312 92.76171875 418.06640625 88.51171875 c 0
 418.916015625 84.26171875 418.208007812 78.5947265625 415.94140625 71.51171875 c 0
 413.673828125 64.4287109375 409.70703125 56.353515625 404.040039062 47.2861328125 c 0xde
EndSplineSet
Validated: 1
EndChar

StartChar: A
Encoding: 65 65 44
Width: 548
VWidth: 903
GlyphClass: 2
Flags: HMW
HStem: 267.328 68.855
VStem: 424.424 77.7759
LayerCount: 2
Fore
SplineSet
153.274414062 88.828125 m 2
 144.20703125 71.26171875 134.006835938 59.6494140625 122.673828125 53.982421875 c 0
 116.377929688 50.833984375 110.518554688 49.259765625 105.096679688 49.259765625 c 0
 100.758789062 49.259765625 96.701171875 50.2666015625 92.923828125 52.28125 c 0
 84.259765625 57.0615234375 79.9267578125 65.30859375 79.9267578125 77.021484375 c 0
 79.9267578125 87.5224609375 83.4091796875 100.80859375 90.3740234375 116.881835938 c 0
 97.7412109375 135.014648438 123.241210938 179.21484375 166.874023438 249.481445312 c 1
 160.704101562 254.76953125 157.619140625 260.916015625 157.619140625 267.91796875 c 0
 157.619140625 269.919921875 157.87109375 271.991210938 158.375 274.131835938 c 0
 159.5078125 282.064453125 164.607421875 289.572265625 173.674804688 296.655273438 c 0
 182.7421875 303.739257812 193.224609375 309.263671875 205.125 313.23046875 c 1
 307.125 475.297851562 381.924804688 583.530273438 429.524414062 637.930664062 c 0
 439.724609375 649.263671875 448.5078125 657.48046875 455.875 662.581054688 c 0
 463.2421875 667.680664062 470.608398438 670.23046875 477.975585938 670.23046875 c 0
 479.830078125 670.436523438 481.6328125 670.5390625 483.384765625 670.5390625 c 0
 491.265625 670.5390625 498.10546875 668.453125 503.900390625 664.280273438 c 0
 510.006835938 659.883789062 513.059570312 652.75 513.059570312 642.877929688 c 0
 513.059570312 641.298828125 512.981445312 639.649414062 512.825195312 637.930664062 c 0
 507.159179688 567.6640625 502.625976562 468.072265625 499.225585938 339.155273438 c 0
 497.950195312 290.809570312 497.313476562 250.174804688 497.313476562 217.25 c 0
 497.313476562 162.376953125 499.083984375 128.920898438 502.625976562 116.87890625 c 0
 503.974609375 111.752929688 504.649414062 106.850585938 504.649414062 102.173828125 c 0
 504.649414062 97.0283203125 503.833007812 92.1552734375 502.200195312 87.5537109375 c 0
 499.083007812 78.771484375 494.69140625 71.404296875 489.024414062 65.4541015625 c 0
 483.357421875 59.50390625 477.124023438 55.1123046875 470.32421875 52.279296875 c 0
 465.401367188 50.20703125 460.6875 49.1708984375 456.1796875 49.1708984375 c 0
 450.827148438 49.1708984375 445.766601562 50.6318359375 440.999023438 53.5537109375 c 0
 432.215820312 58.9375 426.69140625 70.6953125 424.423828125 88.828125 c 0
 423.517578125 95.8544921875 423.063476562 109.590820312 423.063476562 130.036132812 c 0
 423.063476562 160.704101562 424.083984375 206.467773438 426.124023438 267.328125 c 1
 358.124023438 264.495117188 296.640625 258.544921875 241.673828125 249.478515625 c 1
 153.274414062 88.828125 l 2
438.874023438 565.68359375 m 1
 407.140625 527.715820312 355.57421875 447.25 284.173828125 324.283203125 c 1
 339.140625 331.083007812 387.590820312 335.049804688 429.524414062 336.18359375 c 1
 438.874023438 565.68359375 l 1
EndSplineSet
Validated: 1
EndChar

StartChar: B
Encoding: 66 66 45
Width: 548
VWidth: 901
GlyphClass: 2
Flags: HMW
HStem: 31.9038 17.85G<113.608 118.991> 303.905 61.2<273.975 277.374> 586.955 67.1483<345.372 357.558>
LayerCount: 2
Fore
SplineSet
214.47265625 39.55078125 m 0
 205.405273438 38.9833984375 195.349609375 38.1376953125 184.299804688 37.0048828125 c 0
 173.25 35.8720703125 164.182617188 35.021484375 157.099609375 34.455078125 c 0
 150.016601562 33.8876953125 142.791992188 33.3203125 135.424804688 32.75390625 c 0
 128.057617188 32.1865234375 121.682617188 31.904296875 116.299804688 31.904296875 c 0
 110.916992188 31.904296875 106.2421875 32.470703125 102.275390625 33.603515625 c 2
 98.875 33.603515625 l 2
 88.1083984375 33.603515625 80.31640625 37.4287109375 75.4990234375 45.0791015625 c 0
 72.857421875 49.2744140625 71.537109375 54.3642578125 71.537109375 60.34765625 c 0
 71.537109375 65.2763671875 72.4326171875 70.8125 74.2236328125 76.9541015625 c 0
 81.5908203125 100.75390625 92.640625 146.086914062 107.374023438 212.954101562 c 0
 122.107421875 279.8203125 136.557617188 348.670898438 150.723632812 419.50390625 c 0
 158.657226562 457.470703125 164.040039062 482.970703125 166.873046875 496.00390625 c 0
 169.706054688 509.037109375 174.098632812 526.603515625 180.047851562 548.704101562 c 0
 185.998046875 570.803710938 190.106445312 586.103515625 192.373046875 594.603515625 c 0
 196.33984375 609.904296875 202.998046875 621.37890625 212.348632812 629.029296875 c 0
 221.698242188 636.678710938 231.755859375 640.50390625 242.5234375 640.50390625 c 2
 245.073242188 640.50390625 l 2
 254.140625 643.336914062 263.631835938 645.745117188 273.548828125 647.727539062 c 0
 283.465820312 649.7109375 292.390625 651.127929688 300.32421875 651.977539062 c 0
 308.256835938 652.828125 316.615234375 653.39453125 325.3984375 653.677734375 c 0
 334.181640625 653.9609375 340.83984375 654.102539062 345.372070312 654.102539062 c 2
 361.09765625 654.102539062 l 1
 370.022460938 654.102539062 l 2
 405.72265625 654.102539062 435.897460938 647.01953125 460.547851562 632.852539062 c 0
 485.197265625 618.686523438 502.622070312 598.14453125 512.822265625 571.227539062 c 0
 518.559570312 556.086914062 521.428710938 539.556640625 521.428710938 521.63671875 c 0
 521.428710938 507.69921875 519.693359375 492.920898438 516.22265625 477.301757812 c 0
 508.85546875 444.435546875 495.255859375 416.243164062 475.422851562 392.7265625 c 0
 455.58984375 369.208984375 432.072265625 352.067382812 404.872070312 341.30078125 c 1
 421.305664062 335.067382812 436.747070312 325.859375 451.197265625 313.676757812 c 0
 465.647460938 301.493164062 476.83984375 287.893554688 484.772460938 272.875976562 c 0
 490.618164062 261.811523438 493.541015625 251.284179688 493.541015625 241.295898438 c 0
 493.541015625 237.729492188 493.16796875 234.231445312 492.422851562 230.801757812 c 0
 487.889648438 209.268554688 477.97265625 187.875976562 462.672851562 166.625976562 c 0
 447.372070312 145.375976562 427.96484375 125.96875 404.447265625 108.401367188 c 0
 380.930664062 90.833984375 352.59765625 75.8173828125 319.447265625 63.3505859375 c 0
 286.297851562 50.8837890625 251.305664062 42.9501953125 214.47265625 39.55078125 c 0
353.025390625 586.955078125 m 0
 324.69140625 586.955078125 296.07421875 583.271484375 267.173828125 575.904296875 c 1
 264.340820312 565.137695312 259.807617188 547.854492188 253.575195312 524.0546875 c 0
 247.341796875 500.254882812 240.966796875 475.038085938 234.450195312 448.404296875 c 0
 227.932617188 421.771484375 221.557617188 394.571289062 215.325195312 366.8046875 c 1
 239.69140625 365.671875 262.924804688 365.104492188 285.025390625 365.104492188 c 0
 300.891601562 365.104492188 315.766601562 366.521484375 329.650390625 369.354492188 c 0
 343.533203125 372.1875 355.432617188 375.87109375 365.349609375 380.404296875 c 0
 375.266601562 384.936523438 384.474609375 390.461914062 392.974609375 396.978515625 c 0
 401.474609375 403.49609375 408.557617188 410.154296875 414.224609375 416.954101562 c 0
 419.891601562 423.75390625 424.849609375 431.26171875 429.099609375 439.478515625 c 0
 433.349609375 447.6953125 436.608398438 455.0625 438.875 461.580078125 c 0
 441.141601562 468.096679688 443.125 475.038085938 444.825195312 482.405273438 c 0
 446.768554688 490.82421875 447.739257812 498.873046875 447.739257812 506.552734375 c 0
 447.739257812 512.311523438 447.193359375 517.862304688 446.099609375 523.205078125 c 0
 443.549804688 535.672851562 439.016601562 545.73046875 432.5 553.380859375 c 0
 425.983398438 561.030273438 418.049804688 567.547851562 408.700195312 572.930664062 c 0
 399.349609375 578.313476562 390 581.997070312 380.650390625 583.979492188 c 0
 371.299804688 585.962890625 362.091796875 586.955078125 353.025390625 586.955078125 c 0
277.374023438 303.904296875 m 1
 238.840820312 303.904296875 213.622070312 303.62109375 201.72265625 303.053710938 c 1
 183.022460938 211.8203125 169.989257812 146.9375 162.622070312 108.404296875 c 1
 168.2890625 108.404296875 177.78125 108.6875 191.098632812 109.254882812 c 0
 204.415039062 109.821289062 214.756835938 110.104492188 222.124023438 110.104492188 c 0
 246.491210938 111.237304688 270.291015625 115.770507812 293.524414062 123.704101562 c 0
 316.756835938 131.63671875 336.307617188 141.12890625 352.173828125 152.178710938 c 0
 368.041015625 163.228515625 381.215820312 174.845703125 391.69921875 187.029296875 c 0
 402.182617188 199.211914062 408.83984375 210.404296875 411.672851562 220.603515625 c 0
 413.373046875 227.970703125 412.098632812 235.337890625 407.848632812 242.705078125 c 0
 403.598632812 250.071289062 396.65625 257.721679688 387.0234375 265.654296875 c 0
 377.390625 273.587890625 363.08203125 280.955078125 344.098632812 287.754882812 c 0
 325.116210938 294.5546875 302.874023438 299.9375 277.374023438 303.904296875 c 1
EndSplineSet
Validated: 1
EndChar

StartChar: C
Encoding: 67 67 46
Width: 548
VWidth: 903
GlyphClass: 2
Flags: HMW
HStem: 26.8663 76.5025<169.701 216.167> 590.419 68.8467<411.951 413.651>
VStem: 445.667 65.45
LayerCount: 2
Fore
SplineSet
408.267578125 107.618164062 m 0
 352.18359375 53.734375 279.028320312 26.791015625 188.80078125 26.791015625 c 0
 186.038085938 26.791015625 183.260742188 26.8154296875 180.466796875 26.8662109375 c 0
 158.93359375 26.8662109375 139.525390625 30.8330078125 122.2421875 38.7666015625 c 0
 104.958984375 46.69921875 90.9345703125 57.1826171875 80.1669921875 70.2158203125 c 0
 69.400390625 83.248046875 60.900390625 98.40625 54.6669921875 115.689453125 c 0
 48.4345703125 132.97265625 45.0341796875 151.389648438 44.4677734375 170.939453125 c 0
 44.4111328125 172.895507812 44.3828125 174.852539062 44.3828125 176.810546875 c 0
 44.3828125 194.430664062 46.677734375 212.165039062 51.267578125 230.014648438 c 0
 60.900390625 271.381835938 74.0751953125 311.33203125 90.7919921875 349.864257812 c 0
 107.509765625 388.397460938 126.208984375 423.248046875 146.892578125 454.415039062 c 0
 167.575195312 485.58203125 189.958984375 514.198242188 214.041992188 540.265625 c 0
 238.125 566.33203125 262.06640625 588.0078125 285.866210938 605.290039062 c 0
 309.666992188 622.573242188 333.32421875 635.890625 356.841796875 645.240234375 c 0
 380.358398438 654.590820312 402.033203125 659.265625 421.866210938 659.265625 c 0
 441.133789062 659.265625 458.416992188 656.998046875 473.716796875 652.465820312 c 1
 477.68359375 660.965820312 483.208984375 667.907226562 490.291992188 673.290039062 c 0
 497.375 678.673828125 504.8828125 681.6484375 512.815429688 682.215820312 c 0
 521.8828125 683.915039062 530.099609375 681.790039062 537.466796875 675.840820312 c 0
 544.833984375 669.890625 548.516601562 661.248046875 548.516601562 649.915039062 c 0
 548.516601562 641.415039062 547.94921875 633.057617188 546.81640625 624.840820312 c 0
 545.68359375 616.623046875 544.408203125 608.548828125 542.991210938 600.615234375 c 0
 541.57421875 592.682617188 540.299804688 586.165039062 539.166992188 581.065429688 c 0
 538.033203125 575.965820312 536.616210938 570.015625 534.916992188 563.215820312 c 0
 533.216796875 556.415039062 532.083984375 552.165039062 531.516601562 550.465820312 c 0
 528.68359375 538.565429688 521.883789062 526.5234375 511.116210938 514.340820312 c 0
 500.349609375 502.157226562 490.432617188 495.499023438 481.366210938 494.366210938 c 0
 479.391601562 494.037109375 477.459960938 493.872070312 475.571289062 493.872070312 c 0
 467.698242188 493.872070312 460.563476562 496.728515625 454.166015625 502.44140625 c 0
 447.99609375 507.950195312 444.911132812 514.916992188 444.911132812 523.338867188 c 0
 444.911132812 525.74609375 445.163085938 528.271484375 445.666992188 530.916015625 c 0
 446.799804688 535.44921875 450.19921875 547.349609375 455.866210938 566.616210938 c 0
 455.299804688 567.18359375 453.174804688 569.025390625 449.491210938 572.142578125 c 0
 445.80859375 575.258789062 443.116210938 577.526367188 441.416992188 578.943359375 c 0
 439.716796875 580.360351562 437.024414062 582.202148438 433.341796875 584.46875 c 0
 429.658203125 586.735351562 426.116210938 588.293945312 422.716796875 589.143554688 c 0
 419.31640625 589.994140625 415.633789062 590.418945312 411.666992188 590.418945312 c 0
 395.233398438 590.418945312 376.391601562 584.751953125 355.141601562 573.418945312 c 0
 333.891601562 562.0859375 312.216796875 545.935546875 290.116210938 524.96875 c 0
 268.016601562 504.001953125 246.908203125 479.918945312 226.791992188 452.71875 c 0
 206.674804688 425.518554688 188.399414062 394.776367188 171.966796875 360.494140625 c 0
 155.533203125 326.2109375 143.633789062 291.786132812 136.266601562 257.21875 c 0
 132.83203125 242.107421875 131.114257812 227.203125 131.114257812 212.5078125 c 0
 131.114257812 202.95703125 131.83984375 193.494140625 133.291015625 184.119140625 c 0
 136.973632812 160.318359375 145.473632812 140.911132812 158.791015625 125.893554688 c 0
 172.107421875 110.876953125 188.399414062 103.369140625 207.666992188 103.369140625 c 0
 224.666992188 103.369140625 241.666992188 105.2109375 258.666992188 108.893554688 c 0
 275.666992188 112.577148438 291.25 117.393554688 305.416992188 123.34375 c 0
 319.583984375 129.293945312 332.05078125 135.244140625 342.817382812 141.193359375 c 0
 353.583984375 147.143554688 363.784179688 153.518554688 373.416992188 160.318359375 c 0
 381.350585938 165.418945312 388.150390625 169.385742188 393.817382812 172.21875 c 0
 399.484375 175.051757812 405.291992188 176.46875 411.2421875 176.46875 c 0
 417.192382812 176.46875 422.150390625 174.485351562 426.1171875 170.518554688 c 0
 431.887695312 164.749023438 434.771484375 158.3046875 434.771484375 151.186523438 c 0
 434.771484375 138.728515625 425.9375 124.206054688 408.267578125 107.618164062 c 0
EndSplineSet
Validated: 1
EndChar

StartChar: D
Encoding: 68 68 47
Width: 548
VWidth: 901
GlyphClass: 2
Flags: HMW
HStem: 24.8751 73.0983<284.166 294.085> 641.126 17G<231.184 239.967>
LayerCount: 2
Fore
SplineSet
283.318359375 24.875 m 0
 257.250976562 24.875 231.889648438 26.150390625 207.240234375 28.7001953125 c 0
 182.58984375 31.25 163.181640625 34.224609375 149.014648438 37.625 c 0
 134.84765625 41.025390625 122.5234375 44.1416015625 112.040039062 46.974609375 c 0
 101.556640625 49.80859375 95.46484375 51.224609375 93.7646484375 51.224609375 c 0
 82.998046875 51.224609375 75.2060546875 55.0498046875 70.3896484375 62.7001953125 c 0
 67.748046875 66.8955078125 66.4267578125 71.9853515625 66.4267578125 77.9697265625 c 0
 66.4267578125 82.8974609375 67.3232421875 88.43359375 69.1142578125 94.5751953125 c 0
 77.046875 121.775390625 88.6640625 170.083007812 103.963867188 239.5 c 0
 119.264648438 308.916992188 135.130859375 384.141601562 151.564453125 465.174804688 c 0
 158.364257812 496.908203125 162.897460938 517.733398438 165.1640625 527.650390625 c 0
 167.430664062 537.567382812 171.3984375 553.008789062 177.065429688 573.975585938 c 0
 182.732421875 594.942382812 186.131835938 607.692382812 187.264648438 612.225585938 c 0
 191.232421875 627.526367188 197.749023438 639.000976562 206.815429688 646.651367188 c 0
 215.8828125 654.30078125 225.799804688 658.125976562 236.56640625 658.125976562 c 0
 243.366210938 658.125976562 251.866210938 657.55859375 262.06640625 656.42578125 c 0
 272.266601562 655.29296875 285.44140625 653.026367188 301.591796875 649.625976562 c 0
 317.741210938 646.225585938 333.891601562 641.55078125 350.041992188 635.600585938 c 0
 366.19140625 629.651367188 383.049804688 621.29296875 400.616210938 610.526367188 c 0
 418.18359375 599.758789062 434.333984375 587.291992188 449.06640625 573.125 c 0
 463.799804688 558.958007812 477.2578125 541.25 489.440429688 520 c 0
 501.624023438 498.75 510.973632812 475.516601562 517.491210938 450.299804688 c 0
 523.486328125 427.100585938 526.484375 399.826171875 526.484375 368.475585938 c 0
 526.484375 365.747070312 526.461914062 362.989257812 526.416015625 360.200195312 c 0
 525.848632812 325.349609375 520.749023438 287.80859375 511.116210938 247.575195312 c 0
 506.583007812 227.7421875 499.5 207.625 489.866210938 187.224609375 c 0
 480.233398438 166.825195312 468.05078125 146.849609375 453.317382812 127.299804688 c 0
 438.583984375 107.75 422.576171875 90.3251953125 405.29296875 75.025390625 c 0
 388.010742188 59.724609375 368.743164062 47.5419921875 347.493164062 38.474609375 c 0
 326.243164062 29.408203125 304.8515625 24.875 283.318359375 24.875 c 0
201.71484375 347.025390625 m 0
 196.615234375 322.658203125 189.107421875 285.965820312 179.190429688 236.948242188 c 0
 169.2734375 187.931640625 162.048828125 150.956054688 157.515625 126.0234375 c 1
 176.783203125 115.823242188 197.607421875 108.598632812 219.991210938 104.348632812 c 0
 242.374023438 100.098632812 268.866210938 97.9736328125 299.465820312 97.9736328125 c 0
 314.19921875 97.9736328125 329.215820312 103.215820312 344.515625 113.698242188 c 0
 359.815429688 124.181640625 373.69921875 137.78125 386.166015625 154.498046875 c 0
 398.6328125 171.215820312 409.682617188 189.631835938 419.315429688 209.749023438 c 0
 428.94921875 229.866210938 436.032226562 249.55859375 440.565429688 268.825195312 c 0
 446.993164062 296.928710938 450.20703125 323.278320312 450.20703125 347.872070312 c 0
 450.20703125 416.506835938 425.17578125 471.474609375 375.115234375 512.775390625 c 0
 350.748046875 532.608398438 313.915039062 553.0078125 264.615234375 573.974609375 c 1
 264.615234375 574.825195312 l 1
 263.764648438 574.825195312 l 1
 262.915039062 574.825195312 l 1
 262.065429688 575.674804688 l 1
 261.21484375 575.674804688 l 1
 260.365234375 576.525390625 l 1
 259.514648438 576.525390625 l 1
 258.665039062 576.525390625 l 1
 258.665039062 577.375 l 1
 257.815429688 577.375 l 1
 256.96484375 577.375 l 1
 256.115234375 578.224609375 l 1
 255.264648438 578.224609375 l 1
 254.415039062 578.224609375 l 1
 254.415039062 579.075195312 l 1
 235.71484375 505.408203125 218.1484375 428.05859375 201.71484375 347.025390625 c 0
EndSplineSet
Validated: 1
EndChar

StartChar: E
Encoding: 69 69 48
Width: 548
VWidth: 901
GlyphClass: 2
Flags: HMW
HStem: 36.4771 74.3717 46.2504 76.9225 316.551 73.0991<167.725 203.145> 333.551 68.8491<434.909 462.111> 573.676 70.125
LayerCount: 2
Fore
SplineSet
379.374023438 46.25 m 0x48
 377.723632812 46.353515625 375.604492188 46.404296875 373.015625 46.404296875 c 0
 361.381835938 46.404296875 340.26953125 45.36328125 309.676757812 43.27734375 c 0
 272.276367188 40.7265625 231.4765625 38.4599609375 187.276367188 36.4765625 c 0
 163.475585938 35.4091796875 142.6328125 34.875 124.747070312 34.875 c 0
 109.41796875 34.875 96.2607421875 35.267578125 85.2763671875 36.0517578125 c 0
 73.376953125 36.619140625 62.8935546875 42.994140625 53.8271484375 55.1767578125 c 0
 46.19140625 65.435546875 42.3740234375 77.6044921875 42.3740234375 91.6826171875 c 0
 42.3740234375 94.322265625 42.5087890625 97.0283203125 42.7763671875 99.8017578125 c 0
 44.4765625 114.53515625 49.71875 141.02734375 58.501953125 179.27734375 c 0
 67.28515625 217.52734375 76.91796875 258.185546875 87.400390625 301.251953125 c 0
 97.8837890625 344.319335938 108.508789062 392.768554688 119.275390625 446.6015625 c 0
 126.642578125 480.6015625 131.600585938 503.126953125 134.150390625 514.176757812 c 0
 136.701171875 525.2265625 140.80859375 541.518554688 146.475585938 563.051757812 c 0
 152.142578125 584.584960938 155.826171875 597.90234375 157.525390625 603.001953125 c 0
 161.493164062 618.301757812 168.009765625 629.918945312 177.077148438 637.8515625 c 0
 186.143554688 645.78515625 196.060546875 649.751953125 206.827148438 649.751953125 c 0
 207.57421875 649.782226562 208.306640625 649.796875 209.02734375 649.796875 c 0
 221.99609375 649.796875 230.895507812 644.96484375 235.727539062 635.301757812 c 1
 266.89453125 639.834960938 302.736328125 642.66796875 343.252929688 643.80078125 c 0
 363.51171875 644.368164062 382.565429688 644.651367188 400.416015625 644.651367188 c 0
 418.265625 644.651367188 434.911132812 644.3671875 450.353515625 643.80078125 c 0
 481.236328125 642.66796875 505.4609375 640.967773438 523.028320312 638.701171875 c 0
 534.928710938 637.000976562 542.861328125 633.6015625 546.828125 628.500976562 c 0
 550.794921875 623.401367188 551.645507812 616.318359375 549.377929688 607.250976562 c 0
 548.245117188 602.151367188 546.6875 597.333984375 544.704101562 592.80078125 c 0
 542.720703125 588.268554688 540.170898438 584.16015625 537.053710938 580.4765625 c 0
 533.9375 576.793945312 529.829101562 573.819335938 524.729492188 571.551757812 c 0
 519.62890625 569.28515625 513.678710938 568.717773438 506.87890625 569.8515625 c 0
 470.971679688 572.7734375 434.602539062 574.235351562 397.772460938 574.235351562 c 0
 384.6171875 574.235351562 371.403320312 574.048828125 358.129882812 573.67578125 c 0
 307.697265625 572.259765625 263.780273438 568.717773438 226.379882812 563.05078125 c 1
 210.512695312 504.1171875 196.345703125 446.317382812 183.87890625 389.650390625 c 1xa8
 222.412109375 389.650390625 275.395507812 391.775390625 342.828125 396.025390625 c 0
 410.26171875 400.275390625 447.944335938 402.400390625 455.877929688 402.400390625 c 0
 468.344726562 402.400390625 476.419921875 399.567382812 480.102539062 393.900390625 c 0
 483.78515625 388.233398438 484.493164062 380.30078125 482.2265625 370.100585938 c 0
 476.685546875 345.721679688 463.018554688 333.532226562 441.224609375 333.532226562 c 0
 440.729492188 333.532226562 440.229492188 333.5390625 439.725585938 333.55078125 c 0x18
 430.092773438 333.55078125 388.868164062 330.717773438 316.05078125 325.05078125 c 0
 243.234375 319.384765625 193.791992188 316.55078125 167.724609375 316.55078125 c 1
 164.891601562 304.083984375 161.208984375 287.791992188 156.67578125 267.67578125 c 0
 152.142578125 247.55859375 148.317382812 230.275390625 145.201171875 215.825195312 c 0
 142.083984375 201.375 138.966796875 186.5 135.849609375 171.200195312 c 0
 132.733398438 155.900390625 130.465820312 143.291992188 129.048828125 133.375 c 0
 127.631835938 123.458007812 127.20703125 116.516601562 127.774414062 112.549804688 c 1
 135.046875 110.235351562 152.010742188 109.078125 178.665039062 109.078125 c 0
 197.701171875 109.078125 221.6796875 109.66796875 250.599609375 110.848632812 c 0xa8
 320.016601562 113.681640625 364.924804688 117.365234375 385.325195312 121.897460938 c 0
 393.2578125 123.03125 399.916015625 123.456054688 405.298828125 123.172851562 c 0
 410.682617188 122.889648438 415.07421875 121.756835938 418.474609375 119.7734375 c 0
 421.874023438 117.791015625 424.423828125 115.666015625 426.124023438 113.3984375 c 0
 427.82421875 111.131835938 428.95703125 108.157226562 429.524414062 104.473632812 c 0
 430.090820312 100.791015625 430.374023438 97.5322265625 430.374023438 94.69921875 c 0
 430.374023438 91.8662109375 430.090820312 89.033203125 429.524414062 86.2001953125 c 0
 427.256835938 75.43359375 421.732421875 65.80078125 412.94921875 57.30078125 c 0
 405.19921875 49.80078125 395.57421875 46.05078125 384.073242188 46.05078125 c 0
 382.540039062 46.05078125 380.973632812 46.1171875 379.374023438 46.25 c 0x48
EndSplineSet
Validated: 1
EndChar

StartChar: F
Encoding: 70 70 49
Width: 548
VWidth: 901
GlyphClass: 2
Flags: HMW
HStem: 320.584 73.1017 578.136 73.9491
LayerCount: 2
Fore
SplineSet
120.958984375 72.3837890625 m 0
 116.9921875 60.484375 109.484375 50.9931640625 98.43359375 43.91015625 c 0
 88.203125 37.3515625 77.8505859375 34.072265625 67.376953125 34.072265625 c 0
 66.5380859375 34.072265625 65.69921875 34.09375 64.859375 34.1357421875 c 0
 54.091796875 34.1357421875 46.2998046875 37.9609375 41.4833984375 45.6103515625 c 0
 38.841796875 49.8056640625 37.521484375 54.8955078125 37.521484375 60.8798828125 c 0
 37.521484375 65.80859375 38.4169921875 71.34375 40.2080078125 77.4853515625 c 0
 47.5751953125 102.418945312 59.0498046875 150.161132812 74.6328125 220.7109375 c 0
 90.2158203125 291.260742188 105.374023438 363.935546875 120.107421875 438.735351562 c 0
 128.040039062 476.702148438 133.565429688 502.202148438 136.682617188 515.235351562 c 0
 139.798828125 528.268554688 144.33203125 545.8359375 150.282226562 567.935546875 c 0
 156.232421875 590.036132812 160.33984375 605.052734375 162.607421875 612.985351562 c 0
 166.57421875 628.286132812 173.090820312 639.760742188 182.158203125 647.411132812 c 0
 191.224609375 655.060546875 201.141601562 658.885742188 211.909179688 658.885742188 c 0
 213.311523438 658.993164062 214.670898438 659.047851562 215.986328125 659.047851562 c 0
 228.486328125 659.047851562 237.044921875 654.176757812 241.659179688 644.434570312 c 1
 294.359375 648.401367188 347.05859375 650.952148438 399.758789062 652.084960938 c 0
 412.932617188 652.368164062 425.48828125 652.509765625 437.422851562 652.509765625 c 0
 473.229492188 652.509765625 503.458007812 651.234375 528.109375 648.684570312 c 0
 540.008789062 647.551757812 547.80078125 644.293945312 551.484375 638.911132812 c 0
 555.166992188 633.52734375 556.159179688 626.01953125 554.458984375 616.38671875 c 0
 552.192382812 605.619140625 547.234375 596.552734375 539.583984375 589.185546875 c 0
 531.93359375 581.818359375 521.591796875 578.135742188 508.55859375 578.135742188 c 0
 479.387695312 579.711914062 449.188476562 580.500976562 417.959960938 580.500976562 c 0
 359.408203125 580.500976562 297.241210938 577.728515625 231.458007812 572.185546875 c 1
 229.19140625 562.552734375 225.224609375 547.110351562 219.557617188 525.860351562 c 0
 213.890625 504.610351562 208.365234375 482.935546875 202.982421875 460.8359375 c 0
 197.599609375 438.735351562 192.357421875 416.352539062 187.256835938 393.685546875 c 1
 211.541992188 396.599609375 238.116210938 398.056640625 266.98046875 398.056640625 c 0
 271.791992188 398.056640625 276.66796875 398.016601562 281.607421875 397.935546875 c 0
 316.173828125 397.369140625 347.057617188 395.810546875 374.256835938 393.260742188 c 0
 401.45703125 390.7109375 422.990234375 388.018554688 438.857421875 385.185546875 c 0
 450.756835938 382.918945312 458.548828125 379.235351562 462.232421875 374.135742188 c 0
 465.915039062 369.036132812 466.907226562 361.952148438 465.20703125 352.885742188 c 0
 464.07421875 347.786132812 462.516601562 343.110351562 460.533203125 338.860351562 c 0
 458.549804688 334.610351562 455.858398438 330.502929688 452.458007812 326.536132812 c 0
 449.057617188 322.568359375 444.950195312 319.59375 440.1328125 317.610351562 c 0
 435.31640625 315.627929688 429.5078125 314.919921875 422.708007812 315.486328125 c 0
 407.408203125 318.319335938 385.590820312 320.727539062 357.2578125 322.7109375 c 0
 328.924804688 324.693359375 296.766601562 325.827148438 260.784179688 326.109375 c 0
 258.387695312 326.12890625 256.017578125 326.137695312 253.674804688 326.137695312 c 0
 220.846679688 326.137695312 193.323242188 324.287109375 171.109375 320.583984375 c 1
 140.508789062 170.416992188 123.791992188 87.68359375 120.958984375 72.3837890625 c 0
EndSplineSet
Validated: 1
EndChar

StartChar: G
Encoding: 71 71 50
Width: 548
VWidth: 901
GlyphClass: 2
Flags: HMW
HStem: 25.6229 76.4975<171.423 214.773> 598.522 68.8491<415.372 419.904>
LayerCount: 2
Fore
SplineSet
445.690429688 259.370117188 m 0
 441.72265625 247.470703125 435.206054688 233.58984375 426.139648438 217.72265625 c 0
 417.072265625 201.856445312 406.1640625 184.998046875 393.4140625 167.1484375 c 0
 380.6640625 149.297851562 366.072265625 132.014648438 349.639648438 115.297851562 c 0
 333.206054688 98.5810546875 316.206054688 83.4228515625 298.639648438 69.8232421875 c 0
 281.072265625 56.22265625 261.947265625 45.314453125 241.264648438 37.09765625 c 0
 221.916015625 29.4111328125 203.435546875 25.568359375 185.822265625 25.568359375 c 0
 184.607421875 25.568359375 183.396484375 25.5859375 182.189453125 25.623046875 c 0
 160.65625 25.623046875 141.248046875 29.58984375 123.96484375 37.5224609375 c 0
 106.681640625 45.4560546875 92.6572265625 55.939453125 81.8896484375 68.9716796875 c 0
 71.123046875 82.0048828125 62.623046875 97.1630859375 56.3896484375 114.446289062 c 0
 50.1572265625 131.729492188 46.7568359375 150.146484375 46.1904296875 169.696289062 c 0
 46.126953125 171.869140625 46.095703125 174.043945312 46.095703125 176.221679688 c 0
 46.095703125 193.625976562 48.1103515625 211.142578125 52.1396484375 228.771484375 c 0
 61.7724609375 270.704101562 75.23046875 311.50390625 92.513671875 351.170898438 c 0
 109.796875 390.837890625 128.638671875 426.538085938 149.038085938 458.271484375 c 0
 169.438476562 490.00390625 191.821289062 519.045898438 216.188476562 545.396484375 c 0
 240.555664062 571.74609375 264.780273438 593.846679688 288.86328125 611.696289062 c 0
 312.946289062 629.545898438 336.74609375 643.288085938 360.263671875 652.920898438 c 0
 383.780273438 662.5546875 405.455078125 667.37109375 425.288085938 667.37109375 c 0
 447.388671875 667.37109375 470.763671875 661.846679688 495.413085938 650.795898438 c 0
 520.063476562 639.74609375 535.221679688 630.25390625 540.888671875 622.321289062 c 0
 545.033203125 616.622070312 547.10546875 610.153320312 547.10546875 602.915039062 c 0
 547.10546875 594.318359375 544.182617188 584.637695312 538.338867188 573.87109375 c 0
 534.938476562 566.50390625 528.846679688 561.12109375 520.063476562 557.721679688 c 0
 511.280273438 554.321289062 503.205078125 554.321289062 495.838867188 557.721679688 c 0
 493.004882812 558.854492188 486.629882812 563.104492188 476.713867188 570.471679688 c 0
 466.796875 577.837890625 456.454101562 584.35546875 445.6875 590.022460938 c 0
 434.920898438 595.689453125 424.720703125 598.522460938 415.087890625 598.522460938 c 0
 398.654296875 598.522460938 379.671875 592.713867188 358.138671875 581.096679688 c 0
 336.60546875 569.48046875 314.788085938 552.763671875 292.688476562 530.946289062 c 0
 270.588867188 509.12890625 249.338867188 484.337890625 228.938476562 456.5703125 c 0
 208.538085938 428.803710938 190.12109375 397.353515625 173.688476562 362.220703125 c 0
 157.254882812 327.087890625 145.072265625 291.670898438 137.139648438 255.970703125 c 0
 133.704101562 240.859375 131.987304688 225.955078125 131.987304688 211.258789062 c 0
 131.987304688 201.708007812 132.712890625 192.245117188 134.163085938 182.870117188 c 0
 137.846679688 159.0703125 146.346679688 139.662109375 159.663085938 124.645507812 c 0
 172.98046875 109.62890625 189.272460938 102.120117188 208.5390625 102.120117188 c 0
 221.005859375 102.120117188 235.03125 106.512695312 250.614257812 115.295898438 c 0
 266.197265625 124.078125 280.930664062 135.270507812 294.813476562 148.870117188 c 0
 308.696289062 162.470703125 322.296875 177.770507812 335.61328125 194.770507812 c 0
 348.930664062 211.770507812 360.546875 228.203125 370.463867188 244.0703125 c 0
 380.380859375 259.9375 388.456054688 274.670898438 394.689453125 288.270507812 c 1
 361.255859375 286.5703125 328.106445312 283.453125 295.239257812 278.920898438 c 0
 262.372070312 274.387695312 239.139648438 268.4375 225.5390625 261.0703125 c 0
 220.70703125 258.655273438 216.256835938 257.446289062 212.188476562 257.446289062 c 0
 207.66796875 257.446289062 203.618164062 258.938476562 200.0390625 261.920898438 c 0
 193.239257812 267.587890625 190.40625 275.237304688 191.5390625 284.870117188 c 0
 193.239257812 306.403320312 207.122070312 323.120117188 233.189453125 335.020507812 c 0
 250.189453125 342.953125 283.764648438 349.045898438 333.9140625 353.295898438 c 0
 369.735351562 356.331054688 399.9921875 357.849609375 424.682617188 357.849609375 c 0
 434.55859375 357.849609375 443.543945312 357.606445312 451.639648438 357.120117188 c 0
 464.671875 356.553710938 473.171875 354.145507812 477.139648438 349.895507812 c 0
 481.106445312 345.645507812 482.806640625 338.987304688 482.239257812 329.920898438 c 0
 479.97265625 308.953125 471.47265625 295.920898438 456.739257812 290.8203125 c 0
 456.171875 289.120117188 454.47265625 284.587890625 451.639648438 277.220703125 c 0
 448.806640625 269.853515625 446.823242188 263.903320312 445.690429688 259.370117188 c 0
EndSplineSet
Validated: 1
EndChar

StartChar: H
Encoding: 72 72 51
Width: 548
VWidth: 901
GlyphClass: 2
Flags: HMW
HStem: 317.174 73.1009<183.838 215.571>
LayerCount: 2
Fore
SplineSet
416.739257812 72.375 m 0
 412.772460938 60.474609375 405.407226562 50.982421875 394.639648438 43.8994140625 c 0
 384.670898438 37.3408203125 374.458984375 34.0615234375 364.004882812 34.0615234375 c 0
 363.16796875 34.0615234375 362.330078125 34.0830078125 361.490234375 34.125 c 0
 350.72265625 34.125 342.930664062 37.9501953125 338.114257812 45.599609375 c 0
 335.47265625 49.794921875 334.15234375 54.8857421875 334.15234375 60.869140625 c 0
 334.15234375 65.7978515625 335.047851562 71.3330078125 336.838867188 77.474609375 c 0
 360.072265625 156.2421875 382.739257812 244.641601562 404.838867188 342.674804688 c 1
 395.772460938 342.108398438 362.48046875 337.715820312 304.962890625 329.499023438 c 0
 247.446289062 321.282226562 207.071289062 317.173828125 183.837890625 317.173828125 c 0
 183.271484375 315.474609375 182.421875 312.499023438 181.288085938 308.249023438 c 0
 180.155273438 303.999023438 179.305664062 301.024414062 178.73828125 299.32421875 c 0
 162.87109375 243.224609375 145.3046875 167.57421875 126.037109375 72.3740234375 c 0
 122.0703125 60.474609375 114.5625 50.982421875 103.512695312 43.8994140625 c 0
 93.2822265625 37.3408203125 83.171875 34.0615234375 73.18359375 34.0615234375 c 0
 72.384765625 34.0615234375 71.5849609375 34.0830078125 70.787109375 34.125 c 0
 60.587890625 34.125 52.7958984375 37.9501953125 47.412109375 45.599609375 c 0
 44.490234375 49.7529296875 43.029296875 54.7822265625 43.029296875 60.689453125 c 0
 43.029296875 65.662109375 44.0654296875 71.2578125 46.1376953125 77.474609375 c 0
 48.404296875 85.408203125 51.8046875 98.158203125 56.337890625 115.724609375 c 0
 60.8701171875 133.291992188 66.537109375 156.80859375 73.337890625 186.275390625 c 0
 80.1376953125 215.743164062 86.3701171875 242.375976562 92.037109375 266.17578125 c 0
 96.5703125 285.442382812 103.512695312 313.067382812 112.862304688 349.05078125 c 0
 122.212890625 385.034179688 128.870117188 411.666992188 132.837890625 428.950195312 c 2
 150.6875 506.724609375 l 2
 155.787109375 532.224609375 159.1875 548.516601562 160.887695312 555.599609375 c 0
 162.587890625 562.682617188 165.137695312 572.458007812 168.537109375 584.924804688 c 2
 176.1875 612.974609375 l 2
 180.154296875 628.275390625 186.8125 639.75 196.162109375 647.400390625 c 0
 205.512695312 655.049804688 215.5703125 658.875 226.337890625 658.875 c 0
 227.21875 658.916992188 228.084960938 658.938476562 228.93359375 658.938476562 c 0
 239.543945312 658.938476562 247.603515625 655.659179688 253.112304688 649.100585938 c 0
 256.8984375 644.59375 258.791992188 638.421875 258.791992188 630.586914062 c 0
 258.791992188 626.110351562 258.173828125 621.08984375 256.9375 615.525390625 c 0
 255.8046875 609.859375 252.262695312 597.67578125 246.3125 578.975585938 c 0
 240.362304688 560.275390625 235.6875 542.993164062 232.287109375 527.125976562 c 0
 228.887695312 512.392578125 223.9296875 489.868164062 217.412109375 459.55078125 c 0
 210.895507812 429.234375 205.653320312 406.141601562 201.686523438 390.275390625 c 1
 229.454101562 390.275390625 258.353515625 391.974609375 288.38671875 395.375 c 0
 318.419921875 398.775390625 345.620117188 402.174804688 369.986328125 405.575195312 c 0
 394.353515625 408.974609375 411.353515625 411.2421875 420.986328125 412.375 c 1
 421.553710938 416.341796875 422.545898438 422.150390625 423.962890625 429.799804688 c 0
 425.379882812 437.450195312 426.654296875 443.2578125 427.787109375 447.224609375 c 0
 435.720703125 482.358398438 440.8203125 505.590820312 443.087890625 516.923828125 c 0
 445.354492188 528.256835938 449.604492188 545.82421875 455.837890625 569.624023438 c 0
 462.0703125 593.423828125 466.037109375 607.874023438 467.737304688 612.974609375 c 0
 471.704101562 628.274414062 478.221679688 639.749023438 487.288085938 647.399414062 c 0
 496.35546875 655.048828125 506.272460938 658.874023438 517.0390625 658.874023438 c 0
 517.920898438 658.916015625 518.786132812 658.9375 519.635742188 658.9375 c 0
 530.24609375 658.9375 538.3046875 655.658203125 543.814453125 649.099609375 c 0
 547.600585938 644.592773438 549.493164062 638.420898438 549.493164062 630.5859375 c 0
 549.493164062 626.109375 548.875 621.088867188 547.639648438 615.525390625 c 0
 545.372070312 604.7578125 539.989257812 582.658203125 531.489257812 549.224609375 c 0
 522.989257812 515.791992188 515.764648438 486.466796875 509.814453125 461.25 c 0
 503.864257812 436.033203125 495.7890625 399.625 485.588867188 352.025390625 c 0
 477.65625 312.358398438 465.189453125 260.224609375 448.189453125 195.625 c 0
 431.189453125 131.025390625 420.706054688 89.9423828125 416.739257812 72.375 c 0
EndSplineSet
Validated: 1
EndChar

StartChar: I
Encoding: 73 73 52
Width: 548
VWidth: 902
GlyphClass: 2
Flags: HMW
HStem: 40.327 68.0008 46.7011 66.2991 572.426 75.6509 583.477 70.5491<194.342 217.009 209.926 217.009 209.926 315.608>
LayerCount: 2
Fore
SplineSet
392.11328125 42.875 m 0x60
 379.080078125 45.142578125 357.111328125 46.41796875 326.228515625 46.701171875 c 0x60
 320.0546875 46.7578125 313.899414062 46.7861328125 307.759765625 46.7861328125 c 0
 283.186523438 46.7861328125 258.883789062 46.3330078125 234.854492188 45.42578125 c 0
 204.821289062 44.29296875 173.087890625 43.16015625 139.655273438 42.02734375 c 0
 106.221679688 40.8935546875 82.9892578125 40.3271484375 69.9560546875 40.3271484375 c 0
 56.35546875 40.3271484375 46.8642578125 43.16015625 41.48046875 48.8271484375 c 0
 36.09765625 54.494140625 34.5400390625 61.8603515625 36.806640625 70.927734375 c 0
 38.5068359375 81.1279296875 43.3232421875 89.76953125 51.2568359375 96.8525390625 c 0
 59.189453125 103.935546875 69.95703125 107.760742188 83.556640625 108.328125 c 0
 106.223632812 109.4609375 145.323242188 110.877929688 200.856445312 112.578125 c 1
 228.624023438 209.477539062 253.840820312 312.044921875 276.5078125 420.27734375 c 0
 280.474609375 440.677734375 284.583007812 459.944335938 288.833007812 478.078125 c 0
 293.083007812 496.2109375 296.057617188 509.244140625 297.7578125 517.176757812 c 0
 299.458007812 525.110351562 302.715820312 537.434570312 307.532226562 554.15234375 c 0
 312.349609375 570.869140625 315.041015625 580.643554688 315.608398438 583.4765625 c 1
 291.80859375 584.04296875 270.345703125 584.327148438 251.220703125 584.327148438 c 0
 232.095703125 584.327148438 215.30859375 584.04296875 200.858398438 583.4765625 c 0
 187.825195312 583.4765625 178.6171875 586.59375 173.234375 592.827148438 c 0
 167.8515625 599.059570312 166.008789062 606.993164062 167.708984375 616.625976562 c 0
 169.409179688 626.826171875 174.508789062 635.609375 183.008789062 642.9765625 c 0
 191.508789062 650.342773438 202.841796875 654.026367188 217.008789062 654.026367188 c 0x90
 261.401367188 655.348632812 302.518554688 656.009765625 340.362304688 656.009765625 c 0
 416.0390625 656.009765625 478.622070312 653.365234375 528.109375 648.077148438 c 0
 547.400390625 646.147460938 557.045898438 637.446289062 557.045898438 621.97265625 c 0
 557.045898438 619.263671875 556.75 616.348632812 556.159179688 613.2265625 c 0
 555.026367188 608.125976562 553.184570312 603.16796875 550.633789062 598.3515625 c 0
 548.083984375 593.534179688 544.966796875 588.859375 541.284179688 584.326171875 c 0
 537.6015625 579.79296875 532.92578125 576.250976562 527.258789062 573.701171875 c 0
 521.591796875 571.151367188 515.359375 570.7265625 508.559570312 572.42578125 c 0
 493.826171875 575.258789062 456.143554688 578.375976562 395.509765625 581.776367188 c 1
 394.376953125 577.243164062 391.119140625 564.493164062 385.736328125 543.526367188 c 0
 380.352539062 522.559570312 376.102539062 505.841796875 372.986328125 493.375 c 0
 369.869140625 480.908203125 365.760742188 463.05859375 360.661132812 439.825195312 c 0
 355.560546875 416.591796875 350.4609375 393.642578125 345.361328125 370.975585938 c 0
 336.861328125 330.7421875 324.819335938 280.591796875 309.236328125 220.525390625 c 0
 293.65234375 160.458007812 284.444335938 124.758789062 281.611328125 113.424804688 c 1
 304.844726562 113.424804688 331.194335938 113.283203125 360.662109375 113 c 0
 390.12890625 112.716796875 405.995117188 112.575195312 408.262695312 112.575195312 c 0
 420.729492188 112.575195312 428.662109375 109.600585938 432.0625 103.650390625 c 0
 435.462890625 97.7001953125 436.3125 89.908203125 434.612304688 80.275390625 c 0
 433.479492188 75.1748046875 432.0625 70.5 430.362304688 66.25 c 0
 428.662109375 62 426.112304688 57.75 422.712890625 53.5 c 0
 419.3125 49.25 414.920898438 46.1337890625 409.537109375 44.150390625 c 0
 404.154296875 42.1669921875 398.346679688 41.7421875 392.11328125 42.875 c 0x60
EndSplineSet
Validated: 1
EndChar

StartChar: J
Encoding: 74 74 53
Width: 548
VWidth: 900
GlyphClass: 2
Flags: HMW
HStem: 20.8991 85.8509<196.328 202.562> 581.9 70.5491<181.595 203.412>
VStem: 48.7123 74.3758 59.7623 65.45
LayerCount: 2
Fore
SplineSet
336.009765625 233.399414062 m 0xe0
 320.142578125 182.399414062 304.419921875 141.032226562 288.836914062 109.298828125 c 0
 273.25390625 77.56640625 257.811523438 54.8994140625 242.51171875 41.298828125 c 0
 227.211914062 27.69921875 211.061523438 20.8994140625 194.061523438 20.8994140625 c 0
 175.928710938 20.8994140625 159.211914062 24.298828125 143.911132812 31.0986328125 c 0
 128.611328125 37.8994140625 115.719726562 46.9658203125 105.236328125 58.298828125 c 0
 94.75390625 69.6318359375 85.544921875 81.95703125 77.6123046875 95.2744140625 c 0
 69.6796875 108.590820312 63.5869140625 121.908203125 59.3369140625 135.224609375 c 0
 55.0869140625 148.541992188 52.1123046875 160.44140625 50.412109375 170.924804688 c 0
 48.7119140625 181.408203125 48.1455078125 189.765625 48.7119140625 195.999023438 c 0xe0
 48.7119140625 201.098632812 49.845703125 207.19140625 52.1123046875 214.274414062 c 0
 54.37890625 221.357421875 56.9296875 228.015625 59.7626953125 234.248046875 c 0
 62.595703125 240.481445312 66.9873046875 246.005859375 72.9375 250.823242188 c 0
 78.8876953125 255.640625 86.1123046875 258.615234375 94.6123046875 259.748046875 c 0
 97.634765625 260.297851562 100.44921875 260.572265625 103.055664062 260.572265625 c 0
 111.19921875 260.572265625 117.309570312 257.889648438 121.387695312 252.524414062 c 0
 124.9140625 247.8828125 126.677734375 242.452148438 126.677734375 236.229492188 c 0
 126.677734375 232.955078125 126.189453125 229.461914062 125.211914062 225.749023438 c 0xd0
 125.16796875 225.5 123.045898438 213.521484375 123.045898438 200.549804688 c 0
 123.045898438 192.388671875 124.193359375 183.080078125 126.48828125 172.625 c 0
 129.038085938 161.0078125 133.004882812 150.3828125 138.387695312 140.75 c 0
 143.771484375 131.1171875 152.12890625 123.041992188 163.461914062 116.524414062 c 0
 174.794921875 110.0078125 188.395507812 106.75 204.262695312 106.75 c 0
 222.961914062 106.75 245.345703125 156.049804688 271.412109375 254.649414062 c 0
 274.245117188 267.1171875 282.887695312 307.06640625 297.336914062 374.5 c 0
 311.787109375 441.932617188 327.512695312 510.783203125 344.512695312 581.049804688 c 1
 309.493164062 582.0703125 276.717773438 582.580078125 246.186523438 582.580078125 c 0
 225.831054688 582.580078125 206.47265625 582.353515625 188.112304688 581.899414062 c 0
 175.079101562 581.899414062 165.729492188 585.016601562 160.0625 591.25 c 0
 154.395507812 597.483398438 152.6953125 605.416015625 154.961914062 615.048828125 c 0
 156.662109375 625.249023438 161.904296875 634.032226562 170.6875 641.399414062 c 0
 179.470703125 648.765625 190.37890625 652.44921875 203.411132812 652.44921875 c 0
 247.803710938 653.771484375 288.953125 654.432617188 326.858398438 654.432617188 c 0
 402.663085938 654.432617188 465.49609375 651.788085938 515.361328125 646.5 c 0
 534.65234375 644.5703125 544.297851562 635.869140625 544.297851562 620.395507812 c 0
 544.297851562 617.6875 544.002929688 614.771484375 543.411132812 611.649414062 c 0
 542.278320312 606.548828125 540.436523438 601.590820312 537.88671875 596.774414062 c 0
 535.336914062 591.95703125 532.078125 587.282226562 528.111328125 582.749023438 c 0
 524.14453125 578.215820312 519.327148438 574.673828125 513.661132812 572.124023438 c 0
 507.994140625 569.57421875 502.043945312 569.149414062 495.810546875 570.848632812 c 0
 478.244140625 573.681640625 450.4765625 576.232421875 412.509765625 578.499023438 c 1
 408.54296875 562.06640625 403.30078125 537.1328125 396.784179688 503.700195312 c 0
 390.266601562 470.266601562 384.317382812 439.80859375 378.93359375 412.326171875 c 0
 373.55078125 384.842773438 366.892578125 354.2421875 358.959960938 320.525390625 c 0
 351.026367188 286.80859375 343.376953125 257.766601562 336.009765625 233.399414062 c 0xe0
EndSplineSet
Validated: 1
EndChar

StartChar: K
Encoding: 75 75 54
Width: 548
VWidth: 901
GlyphClass: 2
Flags: W
LayerCount: 2
Fore
SplineSet
136.286132812 72.375 m 0
 132.319335938 60.474609375 124.811523438 50.9814453125 113.76171875 43.8974609375 c 0
 103.53125 37.33984375 93.177734375 34.060546875 82.7041015625 34.060546875 c 0
 81.8662109375 34.060546875 81.0263671875 34.0810546875 80.1865234375 34.1240234375 c 0
 69.419921875 34.1240234375 61.6279296875 37.94921875 56.810546875 45.5986328125 c 0
 54.1689453125 49.7939453125 52.8486328125 54.8837890625 52.8486328125 60.8681640625 c 0
 52.8486328125 65.7958984375 53.744140625 71.33203125 55.5361328125 77.4736328125 c 0
 62.90234375 102.407226562 74.51953125 150.1484375 90.38671875 220.69921875 c 0
 106.25390625 291.249023438 121.553710938 363.923828125 136.286132812 438.723632812 c 0
 143.653320312 474.990234375 148.75390625 499.499023438 151.586914062 512.249023438 c 0
 154.419921875 524.999023438 159.094726562 543.416015625 165.611328125 567.499023438 c 0
 172.12890625 591.58203125 176.236328125 606.740234375 177.936523438 612.97265625 c 0
 181.903320312 628.272460938 188.419921875 639.748046875 197.487304688 647.397460938 c 0
 206.5546875 655.047851562 216.471679688 658.873046875 227.23828125 658.873046875 c 0
 228.120117188 658.915039062 228.985351562 658.935546875 229.834960938 658.935546875 c 0
 240.444335938 658.935546875 248.50390625 655.657226562 254.012695312 649.098632812 c 0
 257.798828125 644.591796875 259.692382812 638.419921875 259.692382812 630.584960938 c 0
 259.692382812 626.108398438 259.07421875 621.087890625 257.837890625 615.5234375 c 0
 255.004882812 601.923828125 247.637695312 572.173828125 235.73828125 526.2734375 c 0
 223.837890625 480.374023438 214.205078125 442.407226562 206.837890625 412.374023438 c 1
 230.637695312 432.20703125 266.337890625 462.240234375 313.938476562 502.47265625 c 0
 361.538085938 542.706054688 399.221679688 574.581054688 426.98828125 598.09765625 c 0
 454.754882812 621.615234375 472.60546875 636.20703125 480.538085938 641.874023438 c 0
 489.60546875 649.240234375 497.822265625 654.19921875 505.189453125 656.749023438 c 0
 512.555664062 659.298828125 518.647460938 659.865234375 523.46484375 658.44921875 c 0
 528.282226562 657.032226562 532.389648438 654.056640625 535.790039062 649.5234375 c 0
 538.799804688 644.840820312 540.3046875 639.814453125 540.3046875 634.44140625 c 0
 540.3046875 621.606445312 531.716796875 606.80078125 514.540039062 590.0234375 c 0
 504.33984375 579.82421875 469.34765625 548.798828125 409.564453125 496.94921875 c 0
 349.782226562 445.098632812 296.939453125 399.907226562 251.040039062 361.374023438 c 1
 264.073242188 340.973632812 287.022460938 309.098632812 319.889648438 265.749023438 c 0
 352.756835938 222.3984375 381.231445312 184.291015625 405.314453125 151.423828125 c 0
 420.421875 130.806640625 443.228515625 99.681640625 443.228515625 86.0107421875 c 0
 443.228515625 76.5908203125 441.07421875 68.0791015625 436.763671875 60.4736328125 c 0
 431.947265625 51.9736328125 425.85546875 45.45703125 418.48828125 40.923828125 c 0
 410.833984375 36.166015625 403.74609375 33.787109375 397.223632812 33.787109375 c 0
 385.881835938 33.787109375 376.252929688 40.982421875 368.336914062 55.375 c 0
 364.370117188 62.7412109375 350.0625 82.2919921875 325.412109375 114.024414062 c 0
 300.762695312 145.7578125 274.12890625 180.75 245.512695312 219 c 0
 216.895507812 257.25 196.353515625 287.708007812 183.88671875 310.375 c 1
 179.63671875 293.375 l 2
 177.936523438 283.741210938 163.486328125 210.07421875 136.286132812 72.375 c 0
EndSplineSet
Validated: 1
EndChar

StartChar: L
Encoding: 76 76 55
Width: 548
VWidth: 901
GlyphClass: 2
Flags: HMW
HStem: 44.1757 68.8525
LayerCount: 2
Fore
SplineSet
452.438476562 60.330078125 m 0
 415.038085938 52.962890625 359.510742188 47.576171875 285.84375 44.17578125 c 0
 212.176757812 40.775390625 158.34375 39.076171875 124.34375 39.076171875 c 0
 113.576171875 39.076171875 105.784179688 42.900390625 100.967773438 50.55078125 c 0
 98.326171875 54.74609375 97.005859375 59.8359375 97.005859375 65.8203125 c 0
 97.005859375 70.748046875 97.9013671875 76.2841796875 99.6923828125 82.42578125 c 0
 100.825195312 86.958984375 111.30859375 119.400390625 131.141601562 179.750976562 c 0
 150.974609375 240.100585938 168.825195312 298.326171875 184.69140625 354.42578125 c 0
 192.05859375 379.92578125 203.108398438 426.67578125 217.841796875 494.67578125 c 0
 232.575195312 562.67578125 240.5078125 599.508789062 241.640625 605.17578125 c 0
 245.607421875 620.475585938 252.265625 632.092773438 261.616210938 640.025390625 c 0
 270.965820312 647.958984375 280.741210938 651.92578125 290.940429688 651.92578125 c 0
 291.822265625 651.967773438 292.689453125 651.989257812 293.540039062 651.989257812 c 0
 304.168945312 651.989257812 312.369140625 648.709960938 318.140625 642.151367188 c 0
 321.950195312 637.823242188 323.854492188 631.9609375 323.854492188 624.563476562 c 0
 323.854492188 619.85546875 323.083007812 614.52734375 321.540039062 608.576171875 c 0
 317.573242188 592.143554688 311.90625 569.760742188 304.5390625 541.427734375 c 0
 297.171875 513.094726562 287.822265625 477.39453125 276.489257812 434.327148438 c 0
 265.15625 391.260742188 255.5234375 353.860351562 247.58984375 322.126953125 c 0
 241.357421875 298.327148438 231.298828125 263.760742188 217.416015625 218.427734375 c 0
 203.533203125 173.094726562 193.7578125 137.9609375 188.090820312 113.028320312 c 1
 191.935546875 112.979492188 195.83984375 112.954101562 199.801757812 112.954101562 c 0
 241.395507812 112.954101562 289.483398438 115.670898438 344.065429688 121.103515625 c 0
 403.848632812 127.052734375 444.223632812 132.861328125 465.190429688 138.528320312 c 0
 471.991210938 140.228515625 477.658203125 139.9453125 482.190429688 137.677734375 c 0
 486.723632812 135.411132812 489.982421875 132.01171875 491.96484375 127.478515625 c 0
 493.948242188 122.9453125 495.081054688 117.987304688 495.364257812 112.604492188 c 0
 495.647460938 107.220703125 495.504882812 102.262695312 494.938476562 97.7294921875 c 0
 492.671875 87.5302734375 488.421875 79.3125 482.188476562 73.080078125 c 0
 475.955078125 66.8466796875 466.038085938 62.5966796875 452.438476562 60.330078125 c 0
EndSplineSet
Validated: 1
EndChar

StartChar: M
Encoding: 77 77 56
Width: 548
VWidth: 902
GlyphClass: 2
Flags: HMW
HStem: 43.5819 17.85G<65.7278 70.8278>
VStem: 210.225 82.4509 394.675 75.6509
LayerCount: 2
Fore
SplineSet
116.7265625 102.2265625 m 0
 113.327148438 84.09375 106.52734375 69.7900390625 96.328125 59.306640625 c 0
 86.1279296875 48.82421875 75.927734375 43.58203125 65.7275390625 43.58203125 c 0
 53.1337890625 43.9638671875 46.8369140625 53.5986328125 46.8369140625 72.4853515625 c 0
 46.8369140625 81.642578125 48.31640625 92.974609375 51.27734375 106.482421875 c 0
 52.9775390625 113.282226562 56.51953125 124.899414062 61.90234375 141.333007812 c 0
 67.2861328125 157.765625 74.2275390625 179.298828125 82.7275390625 205.931640625 c 0
 91.2275390625 232.564453125 98.5947265625 255.797851562 104.828125 275.630859375 c 0
 106.52734375 282.430664062 109.64453125 292.9140625 114.177734375 307.081054688 c 0
 126.64453125 349.013671875 136.703125 381.739257812 144.352539062 405.255859375 c 0
 152.002929688 428.7734375 161.495117188 458.09765625 172.828125 493.231445312 c 0
 184.161132812 528.364257812 193.793945312 555.989257812 201.7265625 576.106445312 c 0
 209.66015625 596.22265625 216.459960938 610.248046875 222.126953125 618.180664062 c 0
 230.059570312 630.081054688 240.259765625 638.72265625 252.7265625 644.106445312 c 0
 263.025390625 648.552734375 272.358398438 650.776367188 280.72265625 650.776367188 c 0
 282.484375 650.776367188 284.202148438 650.677734375 285.876953125 650.481445312 c 0
 309.676757812 650.481445312 321.577148438 639.998046875 321.577148438 619.03125 c 0
 321.627929688 616.763671875 321.654296875 614.361328125 321.654296875 611.82421875 c 0
 321.654296875 586.46484375 319.078125 547.641601562 313.926757812 495.356445312 c 0
 308.259765625 437.838867188 300.892578125 372.247070312 291.826171875 298.580078125 c 0
 282.758789062 224.913085938 276.809570312 176.180664062 273.9765625 152.379882812 c 1
 297.776367188 232.280273438 320.443359375 304.247070312 341.9765625 368.280273438 c 0
 357.276367188 415.313476562 374.559570312 462.629882812 393.826171875 510.23046875 c 0
 413.092773438 557.830078125 428.67578125 594.096679688 440.576171875 619.030273438 c 0
 444.54296875 627.530273438 450.493164062 634.471679688 458.42578125 639.85546875 c 0
 466.359375 645.23828125 474.008789062 648.49609375 481.375976562 649.62890625 c 0
 488.743164062 650.762695312 495.826171875 651.045898438 502.625976562 650.478515625 c 2
 506.026367188 650.478515625 l 1
 516.651367188 650.478515625 l 2
 519.201171875 650.478515625 522.743164062 649.770507812 527.276367188 648.353515625 c 0
 531.809570312 646.936523438 535.3515625 645.094726562 537.901367188 642.828125 c 0
 540.451171875 640.560546875 542.576171875 637.018554688 544.276367188 632.202148438 c 0
 545.9765625 627.384765625 546.54296875 621.577148438 545.9765625 614.77734375 c 0
 544.276367188 597.77734375 531.243164062 514.759765625 506.875976562 365.7265625 c 0
 482.508789062 216.693359375 470.326171875 132.543945312 470.326171875 113.27734375 c 0
 469.758789062 79.27734375 458.9921875 57.744140625 438.025390625 48.6767578125 c 0
 432.844726562 46.60546875 427.989257812 45.568359375 423.459960938 45.568359375 c 0
 418.081054688 45.568359375 413.161132812 47.0302734375 408.700195312 49.9521484375 c 0
 400.483398438 55.3349609375 395.80859375 67.0927734375 394.674804688 85.2255859375 c 0
 394.591796875 86.6318359375 394.548828125 88.2138671875 394.548828125 89.9697265625 c 0
 394.548828125 135.625976562 422.924804688 299.51171875 479.674804688 581.626953125 c 1
 445.674804688 499.459960938 418.7578125 424.66015625 398.924804688 357.2265625 c 0
 379.091796875 292.626953125 358.408203125 231.28515625 336.875 173.202148438 c 0
 315.341796875 115.119140625 300.609375 79.560546875 292.67578125 66.52734375 c 0
 283.609375 52.927734375 267.17578125 46.1279296875 243.375976562 46.1279296875 c 0
 232.609375 45.560546875 224.392578125 47.2607421875 218.725585938 51.2275390625 c 0
 213.05859375 55.1943359375 210.225585938 60.861328125 210.225585938 68.228515625 c 0
 210.225585938 95.4287109375 214.192382812 157.903320312 222.125 255.653320312 c 0
 230.05859375 353.403320312 238.275390625 447.045898438 246.775390625 536.578125 c 1
 227.650390625 475.37890625 l 2
 220.567382812 452.711914062 214.6171875 433.01953125 209.799804688 416.302734375 c 0
 204.983398438 399.5859375 197.758789062 374.793945312 188.125 341.926757812 c 0
 178.4921875 309.059570312 171.125 284.126953125 166.025390625 267.126953125 c 0
 159.225585938 243.327148438 151.858398438 218.818359375 143.924804688 193.6015625 c 0
 135.9921875 168.384765625 129.758789062 148.551757812 125.2265625 134.1015625 c 0
 120.693359375 119.65234375 117.860351562 109.02734375 116.7265625 102.2265625 c 0
EndSplineSet
Validated: 1
EndChar

StartChar: N
Encoding: 78 78 57
Width: 548
VWidth: 901
GlyphClass: 2
Flags: W
LayerCount: 2
Fore
SplineSet
363.20703125 39.916015625 m 0
 353.006835938 39.3486328125 345.208984375 41.1884765625 339.826171875 45.4384765625 c 0
 334.443359375 49.6884765625 331.185546875 55.49609375 330.051757812 62.86328125 c 0
 327.78515625 74.1962890625 320.842773438 99.1298828125 309.2265625 137.662109375 c 0
 297.609375 176.1953125 285.708984375 216.287109375 273.526367188 257.9375 c 0
 261.342773438 299.587890625 249.16015625 346.1953125 236.977539062 397.762695312 c 0
 224.793945312 449.329101562 217.001953125 493.24609375 213.602539062 529.513671875 c 1
 202.26953125 467.74609375 190.0859375 410.229492188 177.052734375 356.962890625 c 0
 164.01953125 303.6953125 150.278320312 249.4375 135.828125 194.1875 c 0
 121.377929688 138.9375 113.01953125 105.362304688 110.752929688 93.462890625 c 0
 107.352539062 75.3291015625 100.977539062 62.0126953125 91.6279296875 53.5126953125 c 0
 82.8623046875 45.5439453125 73.474609375 41.5595703125 63.4638671875 41.5595703125 c 0
 62.796875 41.5595703125 62.1259765625 41.5771484375 61.453125 41.6123046875 c 0
 50.685546875 41.6123046875 44.453125 46.4296875 42.7529296875 56.0625 c 0
 42.2431640625 58.953125 41.9873046875 62.2509765625 41.9873046875 65.95703125 c 0
 41.9873046875 74.603515625 43.3759765625 85.47265625 46.1533203125 98.5625 c 0
 48.419921875 109.895507812 59.1865234375 153.8125 78.4541015625 230.3125 c 0
 97.720703125 306.8125 114.4375 373.6796875 128.604492188 430.912109375 c 0
 142.771484375 488.145507812 154.955078125 543.112304688 165.154296875 595.8125 c 0
 166.854492188 607.145507812 170.254882812 616.778320312 175.354492188 624.711914062 c 0
 180.455078125 632.64453125 186.404296875 638.453125 193.205078125 642.135742188 c 0
 200.004882812 645.819335938 206.8046875 648.369140625 213.604492188 649.786132812 c 0
 220.404296875 651.203125 226.921875 651.344726562 233.154296875 650.211914062 c 0
 256.387695312 650.211914062 268.5703125 639.728515625 269.704101562 618.76171875 c 0
 271.970703125 581.361328125 286.5625 512.51171875 313.479492188 412.211914062 c 0
 340.396484375 311.912109375 364.0546875 230.87890625 384.455078125 169.111328125 c 1
 398.62109375 222.37890625 417.038085938 299.870117188 439.705078125 401.587890625 c 0
 462.372070312 503.3046875 475.405273438 570.3125 478.805664062 602.612304688 c 0
 480.505859375 616.212890625 485.747070312 627.6875 494.530273438 637.037109375 c 0
 503.313476562 646.387695312 512.805664062 651.0625 523.005859375 651.0625 c 0
 528.672851562 651.0625 533.489257812 650.354492188 537.456054688 648.9375 c 0
 541.422851562 647.520507812 544.3984375 645.8203125 546.380859375 643.837890625 c 0
 548.364257812 641.854492188 549.639648438 638.596679688 550.206054688 634.063476562 c 0
 550.7734375 629.530273438 550.915039062 625.421875 550.631835938 621.739257812 c 0
 550.348632812 618.055664062 549.923828125 612.248046875 549.357421875 604.315429688 c 0
 548.790039062 595.248046875 539.157226562 549.7734375 520.45703125 467.889648438 c 0
 501.756835938 386.006835938 481.21484375 301.1484375 458.83203125 213.315429688 c 0
 436.44921875 125.482421875 420.723632812 74.765625 411.657226562 61.166015625 c 0
 403.157226562 46.9990234375 387.006835938 39.916015625 363.20703125 39.916015625 c 0
EndSplineSet
Validated: 1
EndChar

StartChar: O
Encoding: 79 79 58
Width: 548
VWidth: 902
GlyphClass: 2
Flags: HMW
HStem: 31.6499 71.3983<208.22 209.074> 593.497 68.8509<368.872 378.788>
LayerCount: 2
Fore
SplineSet
198.306640625 31.6494140625 m 0
 166.006835938 32.216796875 139.370117188 42.83984375 118.403320312 63.5234375 c 0
 97.4365234375 84.2060546875 83.978515625 111.973632812 78.0283203125 146.823242188 c 0
 75.8359375 159.663085938 74.740234375 172.944335938 74.740234375 186.668945312 c 0
 74.740234375 210.1953125 77.9609375 235.021484375 84.4033203125 261.1484375 c 0
 84.970703125 263.981445312 86.103515625 268.797851562 87.8037109375 275.598632812 c 0
 93.470703125 301.098632812 98.287109375 321.498046875 102.25390625 336.797851562 c 0
 106.221679688 352.098632812 112.029296875 372.498046875 119.6796875 397.998046875 c 0
 127.329101562 423.498046875 135.971679688 447.723632812 145.604492188 470.672851562 c 0
 155.237304688 493.623046875 166.00390625 515.297851562 177.904296875 535.698242188 c 0
 200.00390625 572.53125 230.461914062 602.848632812 269.279296875 626.6484375 c 0
 308.096679688 650.448242188 348.188476562 662.348632812 389.5546875 662.348632812 c 0
 410.522460938 662.348632812 429.7890625 657.956054688 447.35546875 649.172851562 c 0
 464.922851562 640.389648438 479.514648438 627.782226562 491.131835938 611.348632812 c 0
 502.749023438 594.916015625 510.681640625 573.94921875 514.931640625 548.44921875 c 0
 516.98828125 536.110351562 518.016601562 523.041992188 518.016601562 509.244140625 c 0
 518.016601562 494.526367188 516.846679688 478.977539062 514.506835938 462.598632812 c 0
 509.973632812 434.265625 504.166015625 403.94921875 497.083007812 371.649414062 c 0
 490 339.348632812 481.5 306.624023438 471.583007812 273.473632812 c 0
 461.666015625 240.32421875 452.173828125 214.116210938 443.106445312 194.848632812 c 0
 430.639648438 168.215820312 417.040039062 145.265625 402.306640625 125.999023438 c 0
 387.573242188 106.732421875 372.698242188 91.0068359375 357.681640625 78.82421875 c 0
 342.665039062 66.640625 326.373046875 57.0078125 308.805664062 49.9248046875 c 0
 291.239257812 42.841796875 273.814453125 38.0244140625 256.53125 35.474609375 c 0
 239.248046875 32.9248046875 219.83984375 31.6494140625 198.306640625 31.6494140625 c 0
214.453125 103.047851562 m 0
 228.620117188 103.047851562 242.787109375 104.889648438 256.954101562 108.573242188 c 0
 271.12109375 112.255859375 285.00390625 118.206054688 298.604492188 126.422851562 c 0
 312.204101562 134.640625 325.37890625 145.547851562 338.12890625 159.1484375 c 0
 350.87890625 172.748046875 361.787109375 188.615234375 370.854492188 206.748046875 c 0
 374.25390625 214.115234375 380.346679688 231.115234375 389.12890625 257.748046875 c 0
 397.912109375 284.380859375 407.120117188 316.114257812 416.75390625 352.947265625 c 0
 426.38671875 389.780273438 434.036132812 426.046875 439.703125 461.747070312 c 0
 441.345703125 472.587890625 442.166992188 482.91796875 442.166992188 492.735351562 c 0
 442.166992188 516.786132812 437.23828125 537.764648438 427.37890625 555.671875 c 0
 413.49609375 580.889648438 392.670898438 593.497070312 364.904296875 593.497070312 c 0
 336.571289062 593.497070312 310.221679688 582.305664062 285.854492188 559.921875 c 0
 261.487304688 537.5390625 240.237304688 506.231445312 222.104492188 465.998046875 c 0
 197.737304688 412.165039062 178.470703125 348.415039062 164.303710938 274.748046875 c 0
 160.903320312 256.615234375 158.495117188 239.8984375 157.078125 224.598632812 c 0
 156.192382812 215.036132812 155.75 205.473632812 155.75 195.912109375 c 0
 155.75 190.173828125 155.91015625 184.436523438 156.228515625 178.698242188 c 0
 157.078125 163.3984375 159.486328125 150.223632812 163.453125 139.172851562 c 0
 167.419921875 128.123046875 173.794921875 119.33984375 182.578125 112.823242188 c 0
 191.361328125 106.306640625 201.986328125 103.047851562 214.453125 103.047851562 c 0
EndSplineSet
Validated: 1
EndChar

StartChar: P
Encoding: 80 80 59
Width: 548
VWidth: 901
GlyphClass: 2
Flags: HMW
HStem: 247.395 69.7<267.133 274.783 267.133 288.949> 587.397 68.8483<349.015 392.082>
LayerCount: 2
Fore
SplineSet
148.984375 72.2939453125 m 0
 146.717773438 60.39453125 140.056640625 51.1884765625 129.005859375 44.671875 c 0
 118.840820312 38.67578125 108.5546875 35.6787109375 98.1494140625 35.6787109375 c 0
 97.244140625 35.6787109375 96.3388671875 35.701171875 95.431640625 35.7470703125 c 0
 84.0986328125 35.7470703125 75.740234375 39.2890625 70.357421875 46.3720703125 c 0
 67.435546875 50.216796875 65.9736328125 55.0224609375 65.9736328125 60.7880859375 c 0
 65.9736328125 65.6435546875 67.0107421875 71.1796875 69.08203125 77.396484375 c 0
 71.3486328125 86.4638671875 74.7490234375 99.921875 79.2822265625 117.771484375 c 0
 83.8154296875 135.622070312 88.9150390625 157.721679688 94.58203125 184.072265625 c 0
 100.249023438 210.421875 105.631835938 235.921875 110.732421875 260.572265625 c 0
 115.83203125 285.221679688 122.065429688 315.396484375 129.432617188 351.096679688 c 0
 136.798828125 386.796875 143.032226562 416.546875 148.131835938 440.346679688 c 0
 156.065429688 477.1796875 167.682617188 525.913085938 182.982421875 586.545898438 c 1
 179.58203125 590.795898438 l 2
 177.315429688 597.595703125 177.598632812 604.538085938 180.431640625 611.62109375 c 0
 183.264648438 618.704101562 187.514648438 625.079101562 193.181640625 630.74609375 c 0
 198.848632812 636.413085938 204.515625 639.8125 210.182617188 640.946289062 c 0
 230.58203125 645.479492188 259.482421875 649.162109375 296.881835938 651.995117188 c 0
 334.282226562 654.828125 360.065429688 656.245117188 374.232421875 656.245117188 c 0
 409.932617188 656.245117188 440.249023438 649.4453125 465.182617188 635.844726562 c 0
 490.115234375 622.245117188 507.682617188 601.703125 517.881835938 574.219726562 c 0
 523.620117188 558.760742188 526.48828125 541.642578125 526.48828125 522.8671875 c 0
 526.48828125 508.262695312 524.752929688 492.65625 521.282226562 476.044921875 c 0
 513.915039062 444.3125 502.157226562 414.419921875 486.006835938 386.370117188 c 0
 469.857421875 358.3203125 451.157226562 334.094726562 429.907226562 313.6953125 c 0
 408.657226562 293.294921875 384.57421875 277.145507812 357.657226562 265.245117188 c 0
 330.740234375 253.344726562 303.115234375 247.395507812 274.782226562 247.395507812 c 0
 233.415039062 247.395507812 201.682617188 250.51171875 179.58203125 256.745117188 c 1
 175.048828125 232.9453125 170.94140625 210.13671875 167.2578125 188.3203125 c 0
 163.575195312 166.502929688 159.891601562 143.8359375 156.208984375 120.319335938 c 0
 152.525390625 96.802734375 150.118164062 80.7939453125 148.984375 72.2939453125 c 0
358.081054688 587.396484375 m 0
 339.948242188 587.396484375 306.231445312 585.127929688 256.931640625 580.594726562 c 1
 254.098632812 569.26171875 248.71484375 548.294921875 240.782226562 517.6953125 c 0
 232.848632812 487.094726562 224.916015625 455.645507812 216.983398438 423.344726562 c 0
 209.049804688 391.044921875 201.682617188 359.594726562 194.8828125 328.995117188 c 1
 212.9453125 321.026367188 235.240234375 317.041992188 261.768554688 317.041992188 c 0
 263.538085938 317.041992188 265.326171875 317.059570312 267.1328125 317.094726562 c 0
 282.432617188 317.094726562 296.599609375 318.228515625 309.6328125 320.495117188 c 0
 322.666015625 322.76171875 334.283203125 325.87890625 344.483398438 329.845703125 c 0
 354.682617188 333.8125 364.31640625 339.0546875 373.3828125 345.572265625 c 0
 382.450195312 352.088867188 390.099609375 358.60546875 396.333007812 365.123046875 c 0
 402.56640625 371.639648438 408.374023438 379.290039062 413.756835938 388.072265625 c 0
 419.140625 396.85546875 423.532226562 404.7890625 426.932617188 411.872070312 c 0
 430.33203125 418.955078125 433.58984375 427.171875 436.70703125 436.521484375 c 0
 439.82421875 445.872070312 442.232421875 453.521484375 443.932617188 459.471679688 c 0
 445.631835938 465.421875 447.615234375 472.646484375 449.881835938 481.146484375 c 0
 451.922851562 490.666992188 452.942382812 499.625976562 452.942382812 508.0234375 c 0
 452.942382812 513.623046875 452.48828125 518.971679688 451.58203125 524.072265625 c 0
 449.315429688 536.822265625 444.922851562 547.021484375 438.40625 554.671875 c 0
 431.889648438 562.322265625 423.956054688 568.697265625 414.606445312 573.796875 c 0
 405.255859375 578.896484375 395.764648438 582.438476562 386.130859375 584.421875 c 0
 376.498046875 586.405273438 367.1484375 587.396484375 358.081054688 587.396484375 c 0
EndSplineSet
Validated: 1
EndChar

